<svg width="48" height="48" viewBox="0 0 48 48" fill="none" xmlns="http://www.w3.org/2000/svg">
<path d="M13.2844 19.4H43.9511" stroke="#214F7A" stroke-width="1.5"/>
<path d="M28.6165 16.3333V40.8667" stroke="#214F7A" stroke-width="1.5"/>
<path d="M22.4834 47C22.4834 45.3733 23.1296 43.8133 24.2798 42.663C25.43 41.5128 26.9901 40.8666 28.6167 40.8666C30.2434 40.8666 31.8034 41.5128 32.9537 42.663C34.1039 43.8133 34.7501 45.3733 34.7501 47H22.4834Z" stroke="#214F7A" stroke-width="1.5"/>
<path d="M10.1143 31.274L16.3491 20.2086L22.5797 31.2884" stroke="#214F7A" stroke-width="1.5"/>
<path d="M34.6519 31.3056L40.8837 20.4319L47.1219 31.3056" stroke="#214F7A" stroke-width="1.5"/>
<path d="M22.4825 31.6667C22.4825 33.2934 21.8363 34.8534 20.6861 36.0037C19.5359 37.1539 17.9758 37.8001 16.3492 37.8001C14.7225 37.8001 13.1625 37.1539 12.0122 36.0037C10.862 34.8534 10.2158 33.2934 10.2158 31.6667H22.4825Z" stroke="#214F7A" stroke-width="1.5"/>
<path d="M47.0169 31.6667C47.0169 33.2934 46.3707 34.8534 45.2205 36.0037C44.0703 37.1539 42.5102 37.8001 40.8836 37.8001C39.2569 37.8001 37.6969 37.1539 36.5467 36.0037C35.3964 34.8534 34.7502 33.2934 34.7502 31.6667H47.0169Z" stroke="#214F7A" stroke-width="1.5"/>
<path d="M13.284 43.9333H4.084C3.27067 43.9333 2.49065 43.6102 1.91554 43.0351C1.34043 42.46 1.01733 41.68 1.01733 40.8667V4.06667C1.01733 3.25334 1.34043 2.47332 1.91554 1.89821C2.49065 1.32309 3.27067 1 4.084 1H24.9148C25.322 1.00004 25.7125 1.16183 26.0004 1.44978L34.3009 9.75022C34.5888 10.0381 34.7506 10.4286 34.7507 10.8358V13.2667" stroke="#13273A" stroke-width="1.5"/>
</svg>
