<svg width="1440" height="521" viewBox="0 0 1440 521" fill="none" xmlns="http://www.w3.org/2000/svg">
<mask id="mask0" mask-type="alpha" maskUnits="userSpaceOnUse" x="0" y="0" width="1440" height="521">
<rect width="1440" height="520.96" fill="#214F7A"/>
</mask>
<g mask="url(#mask0)">
<path d="M1446.74 340.377L1445.55 340.038C1446.36 337.749 1447.19 335.457 1448.01 333.163C1472.67 264.39 1498.18 193.277 1490.54 120.828C1483.21 51.2614 1441.72 -9.63756 1373.71 -50.6527C1224.76 -140.483 1013.84 -120.214 893.537 -4.50698C839.422 47.5405 809.015 111.094 780.134 177.097C778.239 181.427 776.368 185.845 774.387 190.521C766.098 210.093 756.7 232.276 743.753 251.214C728.862 272.994 711.545 287.15 690.812 294.491C675.409 299.946 658.139 302.242 638.615 301.385C626.237 300.842 612.954 299.032 598.661 295.955C566.995 289.14 536.017 277.407 508.687 267.055C504.805 265.584 501.138 264.196 497.506 262.836C445.083 243.193 392.931 220.956 342.494 199.451C300.606 181.591 257.291 163.122 214.051 146.237C208.667 144.135 203.334 142.038 197.688 139.815C123.564 110.65 39.5526 77.5946 -40.601 83.182C-94.8701 86.9667 -123.191 118.568 -145.712 152.156L-146.791 151.584C-132.073 129.635 -118.823 114.997 -103.824 104.122C-85.6983 90.9798 -65.0508 83.7665 -40.7004 82.0669C-4.81073 79.5643 35.1571 84.6187 81.4795 97.5226C121.966 108.798 160.717 124.047 198.196 138.791C203.841 141.011 209.175 143.111 214.556 145.213C257.818 162.105 301.141 180.579 343.038 198.442C393.46 219.942 445.599 242.171 497.995 261.807C501.629 263.167 505.296 264.557 509.181 266.029C561.916 286.003 634.142 313.361 690.351 293.455C736.35 277.164 756.791 228.906 773.217 190.128C775.198 185.45 777.071 181.029 778.97 176.692C792.725 145.257 807.967 111.885 826.181 80.8218C846.254 46.5876 867.986 18.4296 892.621 -5.26589C922.241 -33.7555 957.808 -56.9548 998.336 -74.218C1037.4 -90.8599 1079.59 -101.389 1123.71 -105.51C1145.4 -107.536 1167.42 -107.956 1189.15 -106.758C1211.04 -105.552 1232.85 -102.693 1253.98 -98.2598C1297.76 -89.0744 1338.28 -73.3683 1374.41 -51.5787C1390.9 -41.6368 1406.11 -30.2851 1419.61 -17.843C1433.15 -5.36412 1445.09 8.31579 1455.1 22.8185C1465.23 37.5004 1473.47 53.1574 1479.59 69.3572C1485.84 85.8958 1489.94 103.176 1491.79 120.722C1499.45 193.397 1473.91 264.621 1449.21 333.502C1448.38 335.799 1447.56 338.09 1446.74 340.377Z" fill="#426E97"/>
<path d="M1470 354.147L1468.84 353.845C1469.56 351.696 1470.27 349.547 1470.98 347.393C1493.96 278.011 1517.73 206.267 1507.96 133.542C1498.44 62.6669 1454.37 0.532594 1383.85 -41.4159C1327.91 -74.9648 1262.54 -92.8125 1196.47 -95.7155C1091.54 -100.323 984.799 -67.2603 910.923 0.422083C853.964 52.6071 820.513 118.666 791.135 181.854C789.345 185.734 787.57 189.674 785.691 193.844C776.845 213.485 766.821 235.744 753.259 254.623C737.647 276.353 719.792 290.191 698.67 296.918C673.812 304.836 644.332 304.669 608.544 296.407C577.745 289.297 547.634 277.496 521.065 267.087C517.323 265.621 513.791 264.238 510.284 262.877C458.968 243.112 407.535 220.73 357.797 199.083C317.294 181.456 275.408 163.23 233.843 146.527C229.177 144.653 224.354 142.703 219.688 140.817C144.374 110.377 59.0108 75.8753 -23.0439 84.3607C-76.9046 89.9334 -108.043 120.444 -138.224 164.547L-139.25 163.989C-127.893 147.396 -112.27 126.334 -92.0888 110.62C-71.9628 94.951 -49.4252 86.0136 -23.1819 83.2973C13.5631 79.4954 54.3587 84.0144 101.539 97.1074C142.765 108.547 182.123 124.457 220.187 139.842C224.85 141.728 229.674 143.676 234.339 145.552C275.921 162.26 317.815 180.491 358.327 198.12C408.054 219.76 459.475 242.136 510.767 261.895C514.277 263.256 517.812 264.641 521.553 266.107C572.702 286.148 642.751 313.599 698.27 295.911C745.161 280.973 767.017 232.443 784.579 193.446C786.458 189.274 788.233 185.332 790.029 181.446C819.451 118.16 852.956 51.998 910.065 -0.322092C968.884 -54.2116 1050.06 -88.124 1138.64 -95.8162C1181.77 -99.5616 1224.74 -96.9803 1266.35 -88.1412C1309.23 -79.0344 1348.99 -63.6132 1384.53 -42.3025C1401.64 -32.1248 1417.48 -20.5079 1431.62 -7.7785C1445.78 4.97304 1458.35 18.9452 1468.96 33.7524C1479.7 48.7242 1488.55 64.6833 1495.25 81.1876C1502.08 98.0185 1506.76 115.589 1509.16 133.417C1518.95 206.358 1495.15 278.21 1472.13 347.698C1471.42 349.849 1470.71 352.001 1470 354.147Z" fill="#426E97"/>
<path d="M1493.26 367.921L1492.15 367.653L1493.89 361.911C1515.22 291.822 1537.28 219.345 1525.39 146.257C1513.7 74.4043 1467.04 11.0371 1394.01 -32.1787C1250.37 -117.164 1050.17 -101.028 928.317 5.35389C867.903 58.0989 831.514 126.572 802.147 186.614C800.376 190.239 798.618 193.908 796.756 197.794C787.361 217.407 776.713 239.639 762.577 258.336C746.297 279.871 727.968 293.285 706.542 299.349C693.562 303.021 679.377 304.519 663.743 303.831C650.052 303.23 635.251 300.955 619.167 297.004C589.461 289.702 560.334 277.945 534.64 267.571C530.626 265.95 526.837 264.42 523.079 262.922C473.677 243.205 423.704 221.035 375.376 199.594C335.513 181.908 294.295 163.621 253.649 146.824C249.984 145.309 246.287 143.776 242.559 142.229C165.797 110.392 78.7946 74.3085 -5.47589 85.5471C-68.1469 93.9049 -101.71 135.281 -130.719 176.942L-131.695 176.404C-118.004 156.742 -101.197 134.323 -80.3483 117.158C-58.2522 98.9643 -33.8162 88.293 -5.6442 84.5353C32.0859 79.5029 73.8665 83.5554 122.082 96.9233C164.196 108.599 206.087 125.973 243.045 141.303C246.773 142.85 250.47 144.383 254.134 145.896C294.795 162.697 336.021 180.99 375.892 198.678C424.209 220.114 474.171 242.282 523.554 261.989C527.314 263.489 531.106 265.019 535.12 266.64C587.121 287.632 651.84 313.759 706.2 298.374C753.789 284.908 777.03 236.382 795.707 197.393C797.57 193.505 799.327 189.836 801.102 186.209C815.48 156.813 833.04 122.407 854.281 90.1104C876.672 56.0653 900.631 28.1014 927.52 4.62693C957.48 -21.5295 992.652 -42.6805 1032.06 -58.2368C1070.2 -73.2945 1111.03 -82.6322 1153.4 -85.9871C1239.69 -92.8222 1325.37 -74.0141 1394.65 -33.026C1412.37 -22.5462 1428.82 -10.6322 1443.57 2.38214C1458.36 15.4284 1471.55 29.6904 1482.78 44.7727C1494.14 60.0342 1503.6 76.2758 1510.89 93.0502C1518.33 110.164 1523.59 128.019 1526.54 146.115C1538.46 219.414 1516.37 291.993 1495.01 362.183L1493.26 367.921Z" fill="#426E97"/>
<path d="M1516.51 381.694L1515.45 381.46L1516.76 376.728C1536.46 305.83 1556.83 232.521 1542.81 158.969C1528.9 85.9277 1479.65 21.3227 1404.15 -22.9417C1348.68 -55.4616 1284.24 -72.855 1219.1 -75.7162C1119.86 -80.0732 1018.99 -50.7043 945.709 10.2805C882.243 63.0968 844.011 131.447 813.157 191.369C811.463 194.657 809.782 197.975 808.005 201.487C798.061 221.121 786.792 243.372 772.052 261.947C755.064 283.353 736.21 296.38 714.411 301.771C690.544 307.675 662.786 306.309 629.553 297.591C600.849 290.06 572.663 278.296 547.794 267.917C543.652 266.188 539.739 264.555 535.863 262.956C488.277 243.335 439.708 221.327 392.74 200.041C353.592 182.301 313.111 163.955 273.446 147.107C271.002 146.068 268.546 145.024 266.074 143.973C202.68 117.003 132.432 87.1189 62.0046 84.0243C45.3387 83.2925 28.6783 84.0587 12.0786 86.721C-53.3323 97.2057 -89.2468 141.237 -123.224 189.325L-124.151 188.805C-109.069 167.462 -91.0982 143.069 -68.6213 123.713C-44.5689 103.002 -18.2346 90.5868 11.8855 85.7583C50.7165 79.5348 93.6008 83.177 142.989 96.8913C186.105 108.864 228.843 127.049 266.548 143.089C269.021 144.14 271.476 145.186 273.921 146.222C313.599 163.076 354.086 181.424 393.24 199.166C440.199 220.448 488.759 242.453 536.326 262.067C540.206 263.666 544.118 265.299 548.263 267.028C598.412 287.958 660.824 314.009 714.119 300.823C762.563 288.84 787.206 240.177 807.009 201.077C808.789 197.563 810.469 194.245 812.164 190.954C827.232 161.688 845.686 127.373 868.301 94.7374C891.848 60.7562 916.924 32.8954 944.964 9.55848C975.026 -15.4608 1009.97 -35.6098 1048.81 -50.3286C1086.48 -64.6028 1126.63 -73.3462 1168.15 -76.3155C1209.62 -79.2823 1250.9 -76.3843 1290.85 -67.6999C1331.95 -58.7674 1370.27 -43.9847 1404.76 -23.767C1423.08 -13.022 1440.17 -0.830395 1455.54 12.4713C1470.94 25.7975 1484.75 40.3493 1496.59 55.7263C1508.56 71.2752 1518.63 87.8115 1526.51 104.876C1534.55 122.276 1540.4 140.416 1543.9 158.795C1557.95 232.548 1537.55 305.958 1517.82 376.951L1516.51 381.694Z" fill="#426E97"/>
<path d="M1539.77 395.467L1538.75 395.263L1539.61 391.832C1557.69 320.033 1576.39 245.789 1560.24 171.676C1544.06 97.4094 1492.23 31.5714 1414.3 -13.7098C1358.39 -46.1977 1294.17 -63.6206 1229.42 -66.4646C1133.49 -70.6767 1036.36 -42.9214 963.1 15.2047C903.359 62.6054 864.352 121.81 824.163 196.121C822.555 199.093 820.96 202.079 819.274 205.245C808.786 224.893 796.899 247.164 781.549 265.606C763.846 286.875 744.457 299.499 722.275 304.195C669.783 315.31 609.512 289.272 561.085 268.349C556.767 266.483 552.688 264.722 548.646 262.998C503.135 243.595 456.252 221.874 410.915 200.871C372.214 182.942 332.196 164.399 293.241 147.401L290.134 146.046C226.376 118.214 155.838 87.4258 84.6413 84.2993C66.3088 83.4937 47.946 84.5203 29.6273 87.9047C-38.4822 100.484 -76.4992 146.893 -115.733 201.718L-116.613 201.219C-98.2532 175.564 -79.871 150.835 -56.8975 130.312C-30.9025 107.091 -2.66982 92.9223 29.4148 86.996C69.4488 79.601 113.542 82.8773 164.21 97.0115C208.422 109.343 252.076 128.399 290.592 145.213L293.699 146.569C332.665 163.574 372.688 182.117 411.395 200.048C456.727 221.049 503.601 242.765 549.096 262.163C553.141 263.887 557.222 265.65 561.54 267.517C609.819 288.373 669.904 314.333 722.032 303.293C771.359 292.848 797.401 244.055 818.327 204.849C820.016 201.684 821.611 198.695 823.22 195.723C839.014 166.516 858.386 132.231 882.295 99.3815C906.996 65.4446 933.201 37.6844 962.402 14.517C992.525 -9.38231 1027.21 -28.5465 1065.49 -42.44C1102.67 -55.9333 1142.16 -64.0848 1182.86 -66.6685C1223.52 -69.2497 1263.97 -66.1822 1303.11 -57.5567C1343.34 -48.6881 1380.94 -34.1953 1414.87 -14.481C1433.81 -3.47563 1451.52 8.99592 1467.52 22.585C1483.53 36.1887 1497.96 51.0328 1510.41 66.707C1522.98 82.5432 1533.66 99.3717 1542.13 116.731C1550.76 134.416 1557.2 152.846 1561.26 171.504C1577.46 245.806 1558.73 320.146 1540.63 392.041L1539.77 395.467Z" fill="#426E97"/>
<path d="M1563.02 409.243L1562.05 409.068L1562.46 407.251C1578.94 334.443 1595.98 259.159 1577.67 184.389C1559.17 108.862 1504.76 41.7884 1424.45 -4.47035C1289.11 -82.4286 1102.4 -72.0815 980.495 20.1338C918.199 67.2595 877.346 126.471 835.173 200.878C833.656 203.555 832.149 206.24 830.554 209.084C808.411 248.561 780.855 297.694 730.145 306.621C678.953 315.632 621.055 289.712 574.537 268.882C569.987 266.846 565.691 264.921 561.433 263.044C518.303 244.018 473.449 222.751 430.073 202.185C391.496 183.895 351.606 164.981 313.042 147.696C235.758 113.057 139.579 69.9489 47.1796 89.0884C-29.227 104.915 -71.2008 162.926 -108.236 214.111L-109.069 213.632C-90.9323 188.566 -70.3758 160.155 -45.1617 136.936C-31.8235 124.654 -18.3887 114.862 -4.09295 107.002C11.7976 98.269 28.9712 91.9521 46.9533 88.2288C88.0579 79.7164 133.15 82.5776 184.808 96.9796C230.513 109.721 274.595 129.477 313.486 146.91C352.061 164.198 391.957 183.114 430.537 201.406C473.907 221.97 518.753 243.232 561.872 262.254C566.132 264.132 570.428 266.058 574.978 268.094C621.364 288.862 679.091 314.709 729.949 305.757C780.181 296.915 807.617 247.996 829.663 208.691C831.258 205.847 832.765 203.162 834.282 200.483C850.84 171.269 871.154 136.961 896.28 104.006C922.137 70.0938 949.473 42.4392 979.847 19.4634C1009.99 -3.33813 1044.4 -21.5322 1082.12 -34.6128C1118.81 -47.3324 1157.63 -54.8944 1197.52 -57.0852C1237.38 -59.2759 1277.03 -56.034 1315.37 -47.4528C1354.74 -38.6406 1391.62 -24.4278 1424.98 -5.2096C1444.53 6.05361 1462.87 18.8002 1479.49 32.6791C1496.11 46.5579 1511.16 61.6942 1524.22 77.6656C1537.4 93.7843 1548.67 110.912 1557.74 128.569C1566.96 146.539 1573.99 165.256 1578.63 184.199C1596.98 259.149 1579.92 334.529 1563.43 407.425L1563.02 409.243Z" fill="#426E97"/>
<path d="M1586.28 423.018L1585.35 422.871C1600.22 349.007 1615.59 272.628 1595.09 197.096C1574.24 120.267 1517.25 51.9636 1434.6 4.76667C1378.78 -27.1122 1315.09 -44.2968 1250.92 -47.1163C1160.78 -51.0754 1069.67 -26.7045 997.889 25.0606C933.146 71.7466 890.419 131.012 846.182 205.633C844.753 208.045 843.304 210.506 841.834 213.008C818.576 252.569 789.631 301.807 738.017 309.045C730.52 310.096 722.686 310.445 714.466 310.084C698.372 309.377 680.79 305.953 661.295 299.757C635.714 291.627 610.442 279.883 588.148 269.523C583.311 267.276 578.744 265.154 574.222 263.086C533.832 244.632 491.422 224.033 450.411 204.113C411.563 185.243 371.394 165.733 332.845 147.991C259.973 114.456 160.17 68.5268 64.7277 90.2722C-14.416 108.304 -59.2484 169.692 -98.8023 223.851L-100.737 226.499L-101.523 226.045L-99.5887 223.397C-79.2309 195.522 -58.1806 166.696 -32.1801 142.425C-18.1106 129.291 -3.98601 118.762 10.9995 110.237C27.6985 100.737 45.6972 93.7475 64.496 89.4642C106.246 79.9521 151.768 82.2485 203.67 96.4859C247.785 108.587 290.148 127.404 333.275 147.249C371.836 164.994 412.01 184.506 450.861 203.378C491.869 223.296 534.27 243.892 574.652 262.342C579.177 264.41 583.747 266.532 588.584 268.782C633.046 289.444 688.383 315.158 737.873 308.22C789.021 301.048 817.845 252.019 841.003 212.623C842.474 210.12 843.922 207.657 845.352 205.245C862.713 175.96 883.998 141.58 910.255 108.623C937.271 74.711 965.744 47.167 997.298 24.4122C1027.42 2.6889 1061.54 -14.5498 1098.71 -26.8273C1134.88 -38.7782 1173.05 -45.7483 1212.15 -47.5436C1251.21 -49.339 1290.06 -45.9153 1327.62 -37.3709C1366.14 -28.6079 1402.3 -14.6652 1435.1 4.0667C1455.27 15.5829 1474.24 28.607 1491.48 42.7757C1508.7 56.9296 1524.36 72.3557 1538.03 88.6292C1551.81 105.033 1563.69 122.456 1573.34 140.411C1583.16 158.664 1590.78 177.671 1596 196.902C1616.55 272.606 1601.16 349.071 1586.28 423.018Z" fill="#426E97"/>
<path d="M1609.53 436.797L1608.66 436.674C1621.72 362.692 1635.24 286.19 1612.52 209.801C1589.27 131.634 1529.69 62.0972 1444.75 13.999C1389.38 -17.3518 1325.89 -34.2958 1261.86 -37.1079C1174.25 -40.954 1085.61 -18.3539 1015.28 29.9802C948.214 76.0719 903.578 135.433 857.192 210.383C855.845 212.559 854.482 214.774 853.1 217.024C828.736 256.659 798.411 305.985 745.892 311.462C724.369 313.707 700.226 310.165 672.079 300.636C647.582 292.342 623.326 280.622 601.925 270.282C596.743 267.78 591.851 265.415 587.011 263.123C549.772 245.482 510.301 225.819 472.129 206.8C432.548 187.081 391.622 166.691 352.645 148.278C265.698 107.204 173.2 68.9814 82.274 91.4489C0.255125 111.713 -46.8012 175.722 -88.3198 232.195C-89.9643 234.435 -91.606 236.665 -93.2395 238.882L-93.979 238.45C-92.3428 236.23 -90.7038 234 -89.0592 231.762C-67.7385 202.762 -45.6948 172.774 -18.5216 147.261C-3.81203 133.451 10.9169 122.316 26.5067 113.219C43.89 103.078 62.5729 95.4964 82.0395 90.6875C124.452 80.2078 170.41 81.9466 222.544 96.0047C268.416 108.373 312.175 128.267 353.062 147.583C392.047 165.998 432.978 186.393 472.563 206.115C510.729 225.129 550.197 244.792 587.428 262.428C592.27 264.722 597.165 267.087 602.347 269.59C644.859 290.127 697.768 315.689 745.79 310.679C797.857 305.248 828.057 256.121 852.325 216.643C853.707 214.394 855.073 212.176 856.416 210C874.619 180.587 896.911 146.087 924.206 113.219C952.386 79.2868 982.001 51.8557 1014.74 29.3539C1044.81 8.68912 1078.62 -7.6138 1115.23 -19.098C1150.9 -30.2851 1188.41 -36.6658 1226.73 -38.0633C1265.01 -39.4583 1303.07 -35.8455 1339.86 -27.3256C1377.54 -18.5995 1412.99 -4.92202 1445.22 13.331C1466 25.0952 1485.59 38.3944 1503.46 52.8553C1521.28 67.2794 1537.56 83.0002 1551.83 99.5782C1566.2 116.264 1578.69 133.982 1588.94 152.245C1599.35 170.78 1607.57 190.077 1613.37 209.595C1618.79 227.801 1622.31 246.43 1624.14 266.542C1625.77 284.453 1626.01 303.102 1624.86 323.551C1622.69 362.301 1615.7 401.88 1609.53 436.797Z" fill="#426E97"/>
<path d="M1632.79 450.574L1631.96 450.474C1642.72 379.861 1654.93 299.828 1629.94 222.506C1604.24 142.953 1542.07 72.1862 1454.89 23.2357C1326.73 -48.7275 1153.11 -43.9285 1032.68 34.9066C955.67 85.3208 907.402 154.371 868.204 215.138C866.932 217.11 865.646 219.116 864.341 221.15C851.729 240.81 837.436 263.093 819.65 280.887C799.074 301.473 777.527 312.27 753.77 313.888C732.94 315.308 709.776 311.295 682.951 301.616C659.558 293.177 636.338 281.494 615.851 271.186C610.274 268.379 605.007 265.729 599.8 263.169C566.173 246.638 530.217 228.238 495.442 210.444C454.589 189.539 412.345 167.921 372.449 148.578C285.946 106.634 193.64 67.7678 99.8203 92.6372C14.8103 115.171 -34.5031 181.935 -78.0138 240.837C-80.5523 244.273 -83.1764 247.824 -85.7397 251.278L-86.4351 250.87C-83.8717 247.417 -81.2477 243.865 -78.7091 240.432C-56.4061 210.238 -33.3442 179.017 -4.97906 152.212C10.3817 137.7 25.7287 125.938 41.9421 116.257C60.029 105.458 79.4211 97.2717 99.5802 91.9275C142.672 80.5046 189.068 81.6909 241.425 95.5525C288.984 108.144 334.197 129.19 372.846 147.929C412.75 167.277 455 188.898 495.856 209.806C530.626 227.599 566.582 245.997 600.2 262.526C605.41 265.088 610.68 267.738 616.257 270.545C658.901 292 707.232 316.322 753.701 313.154C806.673 309.544 838.244 260.33 863.61 220.786C864.915 218.753 866.204 216.744 867.476 214.772C886.57 185.172 909.894 150.508 938.135 117.816C967.485 83.8423 998.248 56.5267 1032.18 34.3147C1062.17 14.6863 1095.66 -0.695582 1131.71 -11.3988C1166.85 -21.827 1203.71 -27.6182 1241.28 -28.6105C1278.77 -29.6002 1316.05 -25.791 1352.08 -17.2859C1388.93 -8.59162 1423.66 4.83287 1455.33 22.6143C1476.72 34.6217 1496.94 48.1935 1515.44 62.9491C1533.85 77.6434 1550.74 93.6565 1565.63 110.544C1580.58 127.51 1593.67 145.527 1604.52 164.097C1615.52 182.912 1624.34 202.496 1630.74 222.307C1641.76 256.433 1646.52 293.818 1645.26 336.601C1644.11 376.303 1637.83 417.485 1632.79 450.574Z" fill="#426E97"/>
<path d="M1457.9 464.355L1457.21 464.276C1465.3 393.622 1474.47 313.542 1450.18 235.213C1425.07 154.234 1367.44 82.2313 1287.89 32.4728C1238.17 1.36757 1181.67 -15.5272 1124.86 -18.332C1052.16 -21.9177 978.915 -2.4466 918.535 39.8285C847.949 89.2456 803.022 158.682 766.45 219.888C765.374 221.688 764.286 223.517 763.183 225.372C751.497 245.02 738.252 267.288 721.888 284.885C702.94 305.26 683.287 315.539 661.804 316.305C643.91 316.944 624.183 312.491 601.495 302.689C581.67 294.125 562.798 282.989 544.548 272.222C539.191 269.061 534.129 266.075 529.131 263.206C502.864 248.134 474.564 231.394 447.194 215.206C409.161 192.712 369.83 169.449 333.01 148.863C259.782 107.923 174.446 66.5301 88.3337 93.8113C9.92846 118.651 -36.0061 188.267 -76.53 249.689C-79.5681 254.294 -82.7093 259.053 -85.772 263.658L-86.3491 263.273C-83.284 258.67 -80.1453 253.91 -77.1072 249.305C-56.3638 217.866 -34.9156 185.359 -8.58485 157.228C5.67467 141.991 19.8998 129.588 34.8961 119.309C51.6338 107.838 69.5429 99.0377 88.125 93.1507C127.097 80.8043 168.79 81.4405 215.586 95.0934C257.257 107.253 296.811 127.829 333.349 148.258C370.179 168.849 409.512 192.113 447.548 214.61C474.915 230.797 503.213 247.535 529.478 262.605C534.481 265.476 539.542 268.462 544.901 271.623C580.98 292.909 621.872 317.032 661.78 315.61C709.721 313.898 739.033 264.614 762.586 225.013C763.689 223.159 764.777 221.329 765.855 219.526C783.686 189.686 805.404 154.808 831.29 122.377C858.461 88.3369 886.867 61.1466 918.139 39.2562C944.728 20.6422 974.234 6.16904 1005.84 -3.76302C1036.64 -13.4372 1068.87 -18.639 1101.65 -19.2235C1134.33 -19.8056 1166.82 -15.79 1198.24 -7.28983C1230.29 1.3823 1260.58 14.5612 1288.27 31.8809C1307.84 44.1289 1326.4 57.9709 1343.42 73.0238C1360.34 87.9832 1375.91 104.291 1389.71 121.49C1403.54 138.736 1415.72 157.053 1425.92 175.933C1436.23 195.025 1444.62 214.899 1450.85 235.002C1461.47 269.248 1466.58 306.746 1466.48 349.638C1466.38 387.229 1462.36 425.351 1457.9 464.355Z" fill="#426E97"/>
<path d="M1478.6 478.136L1477.95 478.074C1485.68 395.595 1490.09 321.347 1465.69 247.915C1438.3 165.458 1378.36 92.2272 1296.93 41.7098C1247.29 10.9189 1190.66 -5.85798 1133.74 -8.66519C1063.42 -12.1331 992.659 5.70485 934.02 44.7528C861.543 93.0156 814.58 162.913 776.252 224.64C774.208 227.931 772.148 231.308 769.967 234.886C758.008 254.497 744.454 276.724 727.994 293.489C710.185 311.624 692.143 320.026 672.974 319.083C671.582 319.014 670.187 318.896 668.784 318.729C649.129 316.391 627.551 309.549 602.816 297.811C581.299 287.602 560.362 275.103 541.888 264.073L540.52 263.256C518.401 250.052 495.511 236.1 471.28 221.324C430.982 196.757 389.309 171.352 350.642 149.162C294.463 116.927 235.264 88.4302 175.033 85.4585C151.458 84.2943 127.735 87.0401 103.956 95C22.7538 122.181 -25.2413 194.728 -67.5852 258.734C-71.3674 264.452 -75.2798 270.363 -79.0891 276.054L-79.627 275.693C-75.8177 270.005 -71.9077 264.093 -68.1255 258.378C-46.4783 225.657 -24.0944 191.82 3.3342 162.331C18.1905 146.357 32.9855 133.299 48.5614 122.409C65.9474 110.254 84.5172 100.826 103.753 94.386C124.474 87.4503 146.374 84.147 168.846 84.5719C189.256 84.955 210.053 88.2534 232.435 94.6537C275.498 106.971 316.521 128.836 350.968 148.602C389.646 170.795 431.319 196.202 471.622 220.772C495.853 235.544 518.74 249.497 540.856 262.698L542.224 263.516C579.042 285.495 624.864 312.849 668.868 318.083C689.398 320.529 708.589 312.331 727.542 293.032C743.953 276.321 757.485 254.127 769.426 234.547C771.607 230.969 773.668 227.59 775.714 224.296C794.431 194.156 817.141 159.016 843.674 126.933C871.898 92.8044 901.335 65.7466 933.674 44.2124C960.135 26.5906 989.334 13.009 1020.46 3.84075C1050.76 -5.08681 1082.43 -9.69917 1114.56 -9.86864C1146.54 -10.0381 1178.35 -5.81133 1209.12 2.6987C1240.43 11.3561 1270.09 24.2968 1297.27 41.1596C1317.39 53.641 1336.51 67.7532 1354.1 83.1032C1371.53 98.3255 1387.65 114.928 1401.99 132.447C1416.33 149.97 1429.05 168.589 1439.78 187.783C1450.61 207.151 1459.54 227.314 1466.32 247.709C1477.74 282.086 1483.73 319.694 1484.64 362.689C1485.44 401.219 1482.24 439.284 1478.6 478.136Z" fill="#426E97"/>
<path d="M1499.29 491.917L1498.69 491.872C1504.73 409.422 1507.58 335.111 1481.2 260.618C1451.46 176.633 1389.23 102.169 1305.95 50.9447C1255.4 19.8444 1198.64 2.87838 1141.79 0.0736267C1074.48 -3.24688 1007.03 13.2722 949.503 49.6725C875.278 96.6361 828.056 164.206 786.049 229.388C784.055 232.482 782.043 235.655 779.911 239.015C767.467 258.639 753.359 280.883 736.349 297.48C718.661 314.736 700.931 322.75 682.354 321.834C680.18 321.726 677.995 321.497 675.797 321.146C657.212 318.177 636.945 311.084 613.839 299.457C593.675 289.314 573.9 276.997 556.45 266.132C554.92 265.179 553.402 264.233 551.896 263.298C534.446 252.449 516.37 241.064 497.233 229.012C454.035 201.802 409.365 173.668 368.259 149.457C313.151 117.001 254.907 88.379 194.642 85.4073C169.927 84.1891 144.883 87.2788 119.557 96.1842C35.5154 125.742 -14.5649 201.276 -58.7508 267.92C-63.2501 274.706 -67.9018 281.723 -72.4282 288.442L-72.9243 288.108C-68.3979 281.389 -63.955 274.686 -59.2493 267.588C-36.6836 233.555 -13.3516 198.361 15.1871 167.489C30.6476 150.764 46.0197 137.04 62.1801 125.531C80.2243 112.681 99.4622 102.616 119.361 95.6193C140.374 88.2292 162.515 84.5477 185.169 84.6754C205.529 84.7908 227.098 87.9984 249.276 94.2096C293.82 106.684 336.424 130.011 368.566 148.941C409.682 173.158 454.354 201.294 497.557 228.506C516.692 240.558 534.766 251.941 552.216 262.789C553.721 263.725 555.239 264.671 556.769 265.623C593.118 288.258 634.317 313.913 675.892 320.554C696.677 323.875 716.318 316.188 735.932 297.053C752.895 280.504 766.98 258.292 779.408 238.698C781.54 235.339 783.551 232.165 785.548 229.068C806.195 197.03 829.021 163.034 856.02 131.467C885.303 97.2304 915.777 70.3103 949.186 49.1715C975.499 32.5223 1004.38 19.815 1035.03 11.4007C1064.84 3.21732 1095.93 -0.805607 1127.43 -0.557551C1158.7 -0.311952 1189.84 4.13831 1219.98 12.6631C1250.56 21.3131 1279.59 34.0229 1306.27 50.4388C1326.93 63.1486 1346.61 77.5284 1364.76 93.1805C1382.71 108.666 1399.36 125.563 1414.25 143.401C1429.1 161.199 1442.35 180.12 1453.62 199.636C1464.97 219.279 1474.44 239.73 1481.77 260.422C1493.99 294.936 1500.86 332.657 1502.77 375.746C1504.52 415.196 1502.01 454.767 1499.29 491.917Z" fill="#426E97"/>
<path d="M1519.99 505.699L1519.44 505.67C1523.65 426.314 1525.07 348.83 1496.71 273.318C1464.57 187.751 1400.04 112.057 1314.99 60.1788C1264.29 29.2504 1207.18 12.3188 1150.08 9.50418C1085.27 6.30647 1020.47 21.2831 964.995 54.5938C889.186 100.111 839.87 168.248 795.856 234.137C793.923 237.03 791.975 239.987 789.912 243.119C776.979 262.752 762.321 285.003 744.751 301.436C727.154 317.894 709.68 325.544 691.594 324.653C688.686 324.511 685.765 324.145 682.823 323.563C643.758 315.814 605.432 290.817 571.618 268.762C568.806 266.927 566.028 265.115 563.287 263.339C551.088 255.428 538.533 247.235 525.241 238.563C480.653 209.467 430.113 176.487 385.893 149.752C312.365 105.293 225.077 64.3024 135.177 97.3675C48.2621 129.335 -3.92541 207.902 -49.968 277.223C-55.3982 285.399 -60.5288 293.123 -65.7453 300.83L-66.2021 300.52C-60.9856 292.816 -55.8575 285.094 -50.4273 276.918C-26.9332 241.549 -2.64092 204.975 27.0177 172.703C43.0873 155.216 59.0415 140.817 75.7938 128.679C94.5012 115.124 114.417 104.416 134.988 96.8493C225.109 63.7031 312.54 104.753 386.18 149.277C430.408 176.018 480.952 209 525.546 238.099C538.838 246.773 551.393 254.964 563.592 262.875C566.333 264.653 569.11 266.463 571.925 268.298C605.697 290.325 643.977 315.291 682.936 323.017C703.996 327.195 724.094 320.004 744.38 301.029C761.901 284.64 776.542 262.418 789.455 242.812C791.518 239.68 793.466 236.721 795.401 233.828C817.1 201.345 840.96 167.005 868.374 135.961C898.723 101.592 930.238 74.819 964.718 54.1174C1016.5 23.0294 1077.21 7.32326 1140.3 8.69616C1170.87 9.36174 1201.34 14.038 1230.86 22.5946C1260.69 31.2447 1289.1 43.7285 1315.29 59.7048C1357.75 85.6082 1395.18 117.448 1426.52 154.339C1441.88 172.413 1455.66 191.639 1467.48 211.478C1479.34 231.391 1489.36 252.13 1497.24 273.119C1525.63 348.734 1524.2 426.282 1519.99 505.699Z" fill="#426E97"/>
<path d="M1540.18 519.465C1542.81 440.203 1542.65 362.704 1512.22 286.018C1477.62 198.812 1410.78 121.888 1324.02 69.4157C1273.02 38.5684 1215.42 21.6269 1158 18.7927C1095.77 15.7227 1033.75 29.211 980.483 59.5131C903.19 103.483 853.682 169.448 805.655 238.884C804.675 240.302 803.68 241.741 802.678 243.197C789.187 262.762 773.896 284.934 755.437 301.623C735.833 319.345 716.224 327.526 695.68 326.512C693.752 326.416 691.817 326.242 689.869 325.984C674.706 323.982 658.597 318.103 640.617 308.006C624.788 299.118 609.666 288.253 595.041 277.746C587.97 272.667 581.292 267.868 574.668 263.381C568.45 259.169 562.057 254.831 555.526 250.401C506.86 217.382 451.699 179.96 403.515 150.044C352.508 118.374 294.611 88.5356 232.823 85.4877C206.121 84.1713 178.702 87.8529 150.783 98.5487C60.9716 132.957 6.65965 214.597 -41.2593 286.624C-47.3944 295.846 -53.1906 304.558 -59.0776 313.213L-59.4951 312.928C-53.6081 304.275 -47.8144 295.564 -41.6793 286.344C-17.2495 249.622 8.01291 211.647 38.8038 177.956C55.4873 159.701 72.031 144.616 89.3801 131.842C108.758 117.575 129.356 106.214 150.603 98.0747C172.218 89.7931 194.85 85.36 217.873 84.8983C238.715 84.4783 260.639 87.3076 283.033 93.3052C302.964 98.6421 323.321 106.386 345.268 116.979C363.271 125.668 382.41 136.342 403.782 149.611C451.976 179.535 507.14 216.96 555.811 249.981C562.341 254.411 568.734 258.749 574.953 262.961C581.582 267.45 588.262 272.252 595.335 277.333C623.837 297.811 656.141 321.02 689.933 325.48C712.452 328.45 733.768 320.527 755.096 301.245C773.513 284.596 788.785 262.447 802.261 242.907C803.265 241.451 804.257 240.012 805.237 238.595C826.499 207.853 851.619 172.381 880.695 140.433C912.117 105.909 944.674 79.2962 980.23 59.071C1031.52 29.8938 1091.31 15.6637 1153.14 17.9159C1183.01 19.0039 1212.81 23.9159 1241.71 32.5143C1270.8 41.1668 1298.58 53.437 1324.28 68.981C1367.75 95.2724 1406.27 127.674 1438.77 165.286C1454.63 183.632 1468.94 203.162 1481.31 223.331C1493.68 243.512 1504.24 264.537 1512.69 285.828C1526.51 320.65 1535.13 358.602 1539.04 401.855C1542.61 441.266 1541.94 481.68 1540.69 519.48L1540.18 519.465Z" fill="#426E97"/>
<path d="M1560.93 533.261C1561.96 457.272 1560.25 376.57 1527.73 298.718C1490.59 209.815 1421.45 131.661 1333.05 78.6504C1227.01 15.0646 1097.85 9.61721 995.97 64.4326C917.314 106.752 867.684 170.625 815.457 243.632C814.467 245.015 813.467 246.417 812.453 247.837C798.515 267.379 782.716 289.527 763.738 305.97C744.486 322.649 725.383 330.361 705.6 329.386C702.712 329.243 699.809 328.917 696.889 328.403C682.396 325.861 667.154 319.697 650.293 309.556C635.425 300.614 621.241 289.824 607.525 279.391C600.083 273.73 593.054 268.386 586.057 263.425C539.022 230.09 474.606 184.435 421.146 150.339C352.84 106.772 262.155 61.6475 166.395 99.7351C73.6717 136.617 17.2157 221.356 -32.5944 296.122C-39.4172 306.361 -45.8593 316.032 -52.3996 325.606L-52.7778 325.348C-46.24 315.777 -39.7954 306.108 -32.9751 295.869C-7.59729 257.779 18.6426 218.389 50.573 183.266C67.8755 164.232 85.011 148.457 102.962 135.043C123.013 120.056 144.299 108.034 166.228 99.3127C188.153 90.5915 211.038 85.7851 234.247 85.0262C255.337 84.336 277.441 86.9689 299.943 92.851C336.852 102.501 375.443 120.648 421.394 149.958C474.864 184.062 539.285 229.719 586.324 263.057C593.329 268.02 600.361 273.369 607.805 279.033C634.462 299.312 664.678 322.295 696.972 327.959C719.744 331.952 741.49 324.651 763.441 305.631C782.377 289.225 798.159 267.099 812.085 247.579C813.097 246.159 814.099 244.754 815.088 243.372C838.504 210.641 863.808 176.077 893.022 144.886C925.522 110.188 959.128 83.7417 995.757 64.0348C1021.52 50.1731 1049.41 40.0028 1078.66 33.8063C1106.64 27.8776 1135.72 25.6082 1165.09 27.0573C1165.39 27.072 1165.68 27.0867 1165.99 27.1015C1224.7 30.1494 1282.56 47.8399 1333.29 78.2623C1377.75 104.925 1417.37 137.887 1451.04 176.235C1467.38 194.851 1482.22 214.688 1495.14 235.193C1508.03 255.637 1519.13 276.953 1528.15 298.543C1560.71 376.477 1562.42 457.233 1561.39 533.27L1560.93 533.261Z" fill="#426E97"/>
<path d="M1581.67 547.056C1581.24 471.215 1577.93 390.548 1543.24 311.415C1503.49 220.752 1432.05 141.367 1342.08 87.8851C1237.76 25.8712 1111.08 18.7709 1011.46 69.3497C925.227 113.135 869.798 188.124 825.261 248.377C824.254 249.74 823.235 251.123 822.201 252.525C807.811 272.048 791.501 294.177 772.007 310.369C753.121 326.055 734.514 333.32 715.463 332.38C711.632 332.191 707.788 331.67 703.912 330.82C690.065 327.78 675.661 321.352 659.871 311.167C645.931 302.176 632.669 291.458 619.844 281.091C612.092 274.828 604.774 268.912 597.445 263.467C554.111 231.274 490.518 184.551 438.775 150.631C391.981 119.956 334.38 88.6219 270.809 85.4856C242.266 84.0783 212.529 88.3493 182.008 100.917C86.3566 140.299 27.7393 228.164 -23.9767 305.685C-31.4699 316.917 -38.5481 327.527 -45.7245 337.989L-46.0635 337.756C-38.8895 327.296 -31.8113 316.688 -24.3205 305.457C27.4274 227.887 86.0815 139.965 181.848 100.536C204.087 91.38 227.228 86.1978 250.628 85.1393C271.971 84.1716 294.257 86.6056 316.867 92.3722C337.266 97.5765 357.879 105.345 379.88 116.124C398.546 125.268 417.884 136.443 439.001 150.287C490.754 184.212 554.354 230.94 597.69 263.138C605.026 268.588 612.35 274.507 620.104 280.774C646.182 301.852 673.149 323.646 704.003 330.42C727.006 335.469 749.167 328.806 771.747 310.052C791.203 293.892 807.497 271.785 821.874 252.28C822.905 250.88 823.927 249.495 824.934 248.132C851.623 212.024 876.097 179.663 905.334 149.288C938.922 114.395 973.576 88.1258 1011.28 68.9813C1036.83 56.0063 1064.39 46.6538 1093.18 41.1819C1120.92 35.9113 1149.73 34.2461 1178.82 36.2306C1235.86 40.1209 1292.38 57.8606 1342.3 87.529C1387.74 114.543 1428.46 148.067 1463.3 187.166C1480.13 206.051 1495.5 226.197 1508.98 247.044C1522.36 267.748 1534.02 289.348 1543.62 311.248C1559.04 346.418 1569.4 384.604 1575.3 427.987C1580.92 469.334 1581.89 511.378 1582.09 547.051L1581.67 547.056Z" fill="#426E97"/>
<path d="M1602.41 560.849C1600.64 488.497 1595.66 404.569 1558.74 324.113C1516.31 231.62 1442.57 151.006 1351.11 97.1219C1248.34 36.5717 1124.13 27.8161 1026.95 74.2688C939.72 115.967 884.119 188.834 835.063 253.124C834.029 254.48 832.98 255.855 831.922 257.25C817.077 276.761 800.254 298.875 780.24 314.817C761.722 329.567 743.606 336.402 725.25 335.499C720.498 335.265 715.733 334.511 710.939 333.244C681.366 325.422 656.246 303.767 631.952 282.825C623.972 275.946 616.435 269.449 608.833 263.518C566.627 230.583 505.922 184.315 456.404 150.933C413.496 122.009 355.126 88.8943 289.32 85.6499C259.991 84.2033 229.198 88.6831 197.616 102.108C99.0297 144.017 38.2364 235.029 -15.4002 315.325C-23.5516 327.529 -31.2512 339.055 -39.0514 350.384L-39.3511 350.178C-31.5533 338.851 -23.8537 327.327 -15.7047 315.124C37.9588 234.785 98.7841 143.727 197.471 101.774C220.032 92.1829 243.433 86.6299 267.022 85.2668C288.623 84.0191 311.093 86.2492 333.811 91.8931C354.161 96.95 375.492 104.952 397.21 115.675C416.173 125.037 435.6 136.472 456.606 150.631C506.133 184.018 566.846 230.291 609.054 263.231C616.663 269.167 624.203 275.668 632.185 282.55C656.448 303.465 681.538 325.093 711.028 332.893C734.232 339.03 756.795 333.025 780.009 314.534C799.986 298.622 816.798 276.528 831.627 257.034C832.688 255.639 833.734 254.264 834.77 252.908C858.91 221.273 886.27 185.417 917.626 153.669C934.219 136.87 950.544 122.544 967.534 109.873C986.647 95.6213 1006.03 83.8693 1026.79 73.9446C1052.12 61.8341 1079.34 53.2848 1107.69 48.5349C1134.89 43.9766 1163.13 42.9008 1191.65 45.3372C1246.95 50.0601 1302.16 67.8611 1351.3 96.8124C1397.71 124.16 1439.52 158.242 1475.56 198.108C1492.86 217.259 1508.76 237.715 1522.8 258.911C1536.68 279.87 1548.89 301.758 1559.08 323.965C1575.3 359.327 1586.53 397.63 1593.42 441.067C1600.11 483.315 1601.91 525.323 1602.78 560.844L1602.41 560.849Z" fill="#426E97"/>
<path d="M1623.16 574.639C1619.29 485.113 1609.5 410.409 1574.25 336.808C1529.05 242.419 1453.01 160.575 1360.14 106.354C1304.73 74.0036 1244.72 56.1215 1186.15 53.2332C1135.92 50.7551 1086.76 59.2946 1042.44 79.1857C954.942 118.447 900.458 187.456 847.767 254.19L844.864 257.867C843.902 259.095 842.924 260.343 841.937 261.607C815.299 295.66 779.889 340.924 734.887 338.704C729.388 338.433 723.749 337.454 717.961 335.656C689.667 326.876 666.35 305.349 643.799 284.532C635.685 277.041 628.017 269.963 620.214 263.553C594.525 242.448 528.854 189.251 474.026 151.218C376.267 83.4002 293.392 68.1681 213.216 103.282C111.688 147.745 48.7035 241.918 -6.86344 325.004C-15.6608 338.158 -23.9719 350.583 -32.3813 362.758L-32.6416 362.578C-24.2323 350.406 -15.9236 337.982 -7.12623 324.827C48.4677 241.704 111.476 147.492 213.091 102.989C235.978 92.9663 259.644 87.0375 283.431 85.3699C305.294 83.8374 327.953 85.8587 350.779 91.3773C389.564 100.757 429.938 120.245 474.21 150.955C529.048 188.996 594.726 242.198 620.418 263.305C628.228 269.72 635.896 276.8 644.015 284.293C666.539 305.086 689.832 326.588 718.054 335.346C770.991 351.777 811.848 299.543 841.684 261.404C842.671 260.141 843.649 258.894 844.612 257.663L847.517 253.986C873.558 221.005 900.483 186.901 931.691 156.324C948.54 139.817 965.088 125.813 982.285 113.506C1001.66 99.6393 1021.3 88.3171 1042.31 78.8861C1067.41 67.6204 1094.3 59.8619 1122.21 55.8243C1148.85 51.9708 1176.53 51.4845 1204.49 54.3801C1258 59.9233 1311.88 77.7981 1360.3 106.069C1453.22 160.322 1529.31 242.212 1574.54 336.658C1591.57 372.221 1603.67 410.645 1611.53 454.126C1619.38 497.516 1622.03 541.309 1623.47 574.615L1623.16 574.639Z" fill="#426E97"/>
<path d="M1643.9 588.432C1639.16 511.42 1629.33 429.173 1589.76 349.506C1541.27 252.68 1462.93 169.606 1369.18 115.591C1312.69 82.7915 1251.59 64.5975 1192.41 61.6798C1145.27 59.3539 1099.35 66.717 1057.93 84.103C969.323 121.302 914.006 189.48 860.512 255.414C858.56 257.818 856.612 260.22 854.667 262.615C853.618 263.909 852.557 265.226 851.481 266.557C824.49 299.99 788.775 344.23 744.542 342.049C738.199 341.737 731.683 340.47 724.988 338.078C697.869 328.389 676.266 306.946 655.375 286.205C647.226 278.115 639.529 270.474 631.603 263.602C593.282 230.377 536.397 183.483 491.656 151.518C396.105 83.2483 310.133 67.859 228.825 104.471C124.349 151.513 59.1618 248.861 1.6497 334.752C-7.78379 348.842 -16.6966 362.149 -25.7077 375.151L-25.9312 374.996C-16.9201 361.997 -8.00973 348.688 1.42375 334.6C58.958 248.682 124.167 151.299 228.712 104.223C251.931 93.7674 275.867 87.4628 299.85 85.4857C321.983 83.6609 344.836 85.4685 367.77 90.8595C407.329 100.155 447.902 119.926 491.81 151.297C536.559 183.269 593.452 230.166 631.778 263.396C639.708 270.273 647.41 277.918 655.562 286.011C676.433 306.729 698.011 328.153 725.074 337.82C778.261 356.819 820.455 304.549 851.265 266.382C852.341 265.049 853.405 263.732 854.451 262.438C856.396 260.043 858.344 257.641 860.296 255.237C886.715 222.673 914.036 188.999 945.698 158.981C962.792 142.774 979.577 129.087 997.007 117.136C1016.65 103.667 1036.54 92.7776 1057.82 83.8451C1082.7 73.3998 1109.25 66.4125 1136.74 63.0747C1162.84 59.9041 1189.96 59.9974 1217.36 63.3498C1269.08 69.6789 1321.62 87.6617 1369.3 115.351C1417.56 143.153 1461.55 178.335 1500.05 219.917C1518.26 239.578 1535.19 260.679 1550.39 282.631C1565.22 304.062 1578.55 326.52 1590 349.378C1607.8 385.221 1620.75 423.773 1629.59 467.239C1636.65 501.915 1641.14 539.285 1644.16 588.41L1643.9 588.432Z" fill="#426E97"/>
<path d="M1664.64 602.222C1658.52 525.239 1647.09 442.88 1605.27 362.2C1554.26 263.788 1473.62 179.489 1378.21 124.825C1276.01 66.2768 1164.92 53.2256 1073.43 89.0194C983.705 124.12 927.575 191.557 873.293 256.774C870.346 260.315 867.408 263.845 864.473 267.359C863.339 268.72 862.184 270.105 861.013 271.51C845.572 290.058 826.354 313.141 804.753 328.354C792.913 336.692 781.65 341.874 770.323 344.198C757.473 346.833 744.586 345.59 732.021 340.499C705.958 329.941 685.981 308.517 666.665 287.8C658.59 279.138 650.961 270.957 642.999 263.651C608.995 232.447 553.576 184.437 509.292 151.817C452.345 109.868 398.278 87.6956 346.034 85.1192C311.476 83.4148 277.723 90.2768 244.437 105.661C137.014 155.307 69.6093 255.843 10.1397 344.546C0.0774957 359.555 -9.42722 373.731 -19.0277 387.544L-19.2119 387.416C-9.61142 373.603 -0.106704 359.43 9.95552 344.421C69.4422 255.693 136.864 155.13 244.344 105.457C267.902 94.5699 292.11 87.8896 316.297 85.5981C338.71 83.4762 361.758 85.0652 384.805 90.321C405.867 95.125 427.583 103.144 449.348 114.156C468.827 124.012 489.04 136.624 509.424 151.637C553.713 184.26 609.143 232.28 643.149 263.486C651.116 270.798 658.749 278.983 666.827 287.648C686.129 308.347 706.086 329.754 732.105 340.293C755.732 349.864 779.452 345.897 804.626 328.172C826.202 312.979 845.41 289.908 860.841 271.367C862.01 269.963 863.164 268.577 864.301 267.217C867.236 263.702 870.174 260.173 873.121 256.631C899.913 224.443 927.619 191.157 959.729 161.67C977.066 145.748 994.081 132.37 1011.74 120.771C1031.66 107.695 1051.8 97.242 1073.34 88.8155C1097.98 79.1757 1124.2 72.9596 1151.26 70.3415C1176.78 67.8732 1203.33 68.5683 1230.18 72.4094C1255.6 76.0468 1281.42 82.5134 1306.92 91.635C1331.27 100.342 1355.29 111.445 1378.31 124.636C1427.58 152.858 1472.67 188.603 1512.34 230.88C1531.04 250.811 1548.51 272.215 1564.26 294.496C1579.59 316.189 1593.46 338.934 1605.47 362.099C1624.13 398.099 1637.96 436.767 1647.76 480.309C1655.69 515.523 1660.96 553.12 1664.87 602.208L1664.64 602.222Z" fill="#426E97"/>
<path d="M1652.49 558.231C1517.8 409.461 1341.64 310.585 1156.44 279.819C1122.13 274.121 1088.45 271.611 1055.73 272.247C977.543 273.767 904.769 293.231 841.501 329.993C817.95 343.677 795.163 362.124 773.126 379.965C736.87 409.316 699.382 439.665 655.746 451.749C626.39 459.878 593.572 457.982 555.421 445.948C522.142 435.451 488.976 418.548 459.716 403.636C451.066 399.227 442.897 395.064 434.851 391.112L430.816 389.131C335.251 342.194 236.433 293.661 129.914 277.378C63.8431 267.279 -25.2556 267.679 -74.5155 326.94C-112.028 372.069 -108.475 435.18 -105.618 485.892L-106.598 485.946C-107.976 461.467 -109.693 431.003 -105.999 402.53C-101.939 371.234 -91.8868 346.303 -75.2695 326.311C-25.7173 266.697 63.7424 266.267 130.064 276.405C236.731 292.71 335.619 341.278 431.248 388.246L435.283 390.228C443.337 394.183 451.508 398.348 460.16 402.756C521.022 433.776 590.004 468.931 655.483 450.798C698.922 438.769 736.33 408.484 772.507 379.196C794.574 361.333 817.39 342.86 841.007 329.138C887.425 302.166 938.937 284.372 994.114 276.25C1045.79 268.644 1100.45 269.516 1156.6 278.844C1203.53 286.642 1250.65 299.057 1296.64 315.745C1341.46 332.009 1385.71 352.507 1428.16 376.671C1469.87 400.408 1510.2 427.894 1548.06 458.363C1585.6 488.576 1620.98 521.953 1653.22 557.565L1652.49 558.231Z" fill="#426E97"/>
<path d="M1638.08 543.947C1507.6 398.716 1339.28 302.807 1164.1 273.885C1133.3 268.828 1102.87 266.608 1073.08 267.188C994.9 268.708 921.043 289.483 855.851 328.747C832.45 342.84 809.749 361.699 787.795 379.938C751.181 410.355 713.32 441.809 669.082 454.617C639.507 463.108 606.751 461.094 568.946 448.463C536.004 437.457 503.489 419.813 474.803 404.245C467.302 400.175 460.219 396.332 453.215 392.64L451.731 391.857C358.396 342.491 261.885 291.443 156.348 271.579C103.662 261.662 6.38994 254.296 -53.1459 316.379C-99.4734 364.688 -105.945 431.325 -108.605 495.438L-109.538 495.399C-108.249 464.314 -105.974 431.246 -98.1251 400.057C-89.3719 365.275 -74.8815 337.695 -53.8213 315.733C-29.3964 290.262 3.88481 273.996 45.0965 267.387C78.304 262.06 116.834 263.194 156.52 270.663C262.197 290.552 358.772 341.634 452.168 391.034L453.652 391.817C460.659 395.509 467.747 399.355 475.247 403.427C535.051 435.88 602.834 472.664 668.822 453.721C712.87 440.967 750.656 409.577 787.196 379.221C809.177 360.96 831.905 342.079 855.365 327.949C900.918 300.513 951.124 281.966 1004.59 272.817C1056.17 263.99 1109.89 264.042 1164.25 272.967C1209.19 280.386 1254.36 292.421 1298.5 308.736C1341.23 324.533 1383.52 344.525 1424.18 368.161C1463.83 391.206 1502.3 417.927 1538.53 447.578C1574.17 476.751 1607.89 508.964 1638.76 543.325L1638.08 543.947Z" fill="#426E97"/>
<path d="M1623.66 529.66C1497.46 387.984 1336.97 295.041 1171.76 267.949C1066.27 250.831 959.173 271.979 870.202 327.497C846.99 341.983 824.419 361.23 802.59 379.844C765.591 411.397 727.331 444.025 682.418 457.481C671.258 460.826 659.688 462.617 647.615 462.852C627.527 463.243 606.042 459.323 582.695 451.064C550.161 439.552 518.36 421.152 490.303 404.918C483.807 401.158 477.672 397.609 471.583 394.168L471.271 393.989C380.591 342.381 286.826 289.014 182.787 265.776C141.239 256.494 37.159 241.817 -31.7686 305.806C-87.7457 357.772 -103.214 432.236 -111.591 504.963L-112.47 504.862C-108.958 474.364 -103.275 434.606 -90.4006 397.574C-77.0867 359.278 -58.1042 329.05 -32.3703 305.158C-5.8627 280.548 28.6023 265.063 70.0645 259.13C104.768 254.164 143.811 256.163 182.979 264.911C287.148 288.179 380.972 341.578 471.706 393.217L472.018 393.394C478.106 396.835 484.244 400.386 490.743 404.147C546.462 436.386 615.807 476.51 682.163 456.629C726.897 443.226 765.085 410.66 802.016 379.167C823.867 360.531 846.464 341.263 869.733 326.743C914.456 298.836 963.358 279.539 1015.08 269.391C1066.48 259.307 1119.24 258.528 1171.9 267.072C1214.86 274.119 1258.08 285.772 1300.36 301.712C1341.02 317.042 1381.35 336.53 1420.21 359.637C1457.81 381.986 1494.41 407.941 1529.01 436.777C1562.75 464.898 1594.82 495.947 1624.32 529.068L1623.66 529.66Z" fill="#426E97"/>
<path d="M1609.25 515.376C1487.36 377.268 1334.71 287.29 1179.43 262.013C1078.41 245.828 973.69 268.639 884.554 326.247C861.546 341.118 839.116 360.722 817.424 379.68C780.024 412.369 741.35 446.169 695.759 460.342C684.498 463.842 672.867 465.714 660.778 465.949C640.627 466.342 619.191 462.189 596.001 453.463C563.754 441.326 532.607 422.043 505.127 405.031C499.871 401.777 494.905 398.704 489.956 395.688L485.663 393.072C399.202 340.409 309.797 285.952 209.231 259.967C180.135 252.449 151.38 249.04 124.057 249.571C71.4396 250.593 24.1003 266.215 -10.3819 295.223C-78.7594 352.743 -101.423 438.334 -114.575 514.472L-115.398 514.33C-106.947 465.404 -96.5875 427.498 -82.7946 395.035C-74.3705 375.21 -64.436 357.055 -53.2661 341.081C-41.0131 323.558 -26.7659 307.913 -10.9198 294.582C3.67864 282.302 20.4507 272.306 38.932 264.874C56.1068 257.968 74.9198 253.198 94.8526 250.703C130.926 246.187 170.551 249.109 209.442 259.157C233.629 265.407 257.653 273.36 282.884 283.474C305.332 292.47 328.204 302.974 352.814 315.586C398.478 338.986 443.022 366.118 486.1 392.358L490.394 394.973C495.345 397.989 500.311 401.064 505.569 404.318C560.318 438.211 628.453 480.391 695.514 459.542C740.935 445.42 779.543 411.679 816.879 379.046C838.593 360.069 861.048 340.445 884.107 325.542C928.043 297.146 975.645 277.113 1025.59 265.994C1076.69 254.621 1128.5 253.002 1179.57 261.183C1260.21 274.308 1339.84 304.566 1416.25 351.117C1451.79 372.769 1486.52 397.957 1519.5 425.983C1551.33 453.041 1581.74 482.928 1609.88 514.819L1609.25 515.376Z" fill="#426E97"/>
<path d="M1594.83 501.09C1477.32 366.567 1332.51 279.554 1187.09 256.077C1165.96 252.734 1144.53 251.295 1123.04 251.712C1046.32 253.203 968.618 278.345 898.902 324.999C876.125 340.241 854.851 359.28 832.327 379.439C794.503 413.29 755.388 448.293 709.093 463.208C678.872 472.944 646.367 470.562 609.723 455.921C577.91 443.214 547.525 423.117 520.718 405.384C516.43 402.548 512.377 399.868 508.322 397.216L501.932 393.035C419.106 338.864 333.46 282.85 235.67 254.168C151.652 229.527 67.6622 240.921 10.9998 284.642C-70.2397 347.329 -100.382 445.478 -117.564 523.982L-118.333 523.815C-106.635 470.372 -92.9601 428.625 -75.2966 392.434C-64.7603 370.846 -52.6179 351.129 -39.2057 333.829C-24.563 314.942 -7.83275 298.185 10.5209 284.021C25.9299 272.129 43.3527 262.509 62.3007 255.426C80.0772 248.78 99.3274 244.313 119.516 242.149C156.871 238.146 197.115 242.041 235.893 253.414C279.792 266.289 325.115 285.824 374.448 313.13C418.357 337.432 461.062 365.364 502.364 392.377L508.755 396.557C512.812 399.21 516.864 401.889 521.155 404.728C574.693 440.142 641.322 484.214 708.855 462.459C754.993 447.598 794.043 412.649 831.807 378.852C853.36 359.563 875.646 339.618 898.47 324.346C919.648 310.175 941.946 297.78 964.745 287.506C988.006 277.026 1012.01 268.656 1036.1 262.627C1086.82 249.929 1137.67 247.464 1187.22 255.301C1263.67 267.642 1339.39 297.016 1412.27 342.602C1445.76 363.549 1478.63 387.971 1509.97 415.191C1539.88 441.171 1568.63 469.896 1595.43 500.571L1594.83 501.09Z" fill="#426E97"/>
<path d="M-120.556 533.484L-121.271 533.302C-114.305 506.173 -106.991 482.141 -98.9111 459.831C-89.5488 433.979 -79.3982 411.055 -67.882 389.744C-55.2459 366.361 -40.898 345.074 -25.241 326.473C-8.19636 306.223 11.0488 288.388 31.9543 273.458C48.1344 261.904 66.1762 252.621 85.581 245.864C103.952 239.469 123.642 235.301 144.1 233.474C182.672 230.028 223.559 234.938 262.339 247.665C304.884 261.627 348.527 282.12 395.766 310.317C437.823 335.42 478.592 364.057 518.018 391.751C521.052 393.88 524.082 396.009 527.11 398.136C530.345 400.406 533.56 402.68 536.961 405.087C589.201 442.04 654.216 488.028 722.188 465.372C769.078 449.742 808.597 413.555 846.815 378.562C869.162 358.099 890.272 338.77 912.827 323.145C933.465 308.846 955.073 296.234 977.049 285.659C999.863 274.678 1023.27 265.802 1046.62 259.277C1096.88 245.228 1146.76 241.908 1194.87 249.413C1267.17 260.981 1338.97 289.468 1408.28 334.084C1439.72 354.321 1470.73 377.98 1500.43 404.399C1528.42 429.283 1555.51 456.847 1580.97 486.324L1580.41 486.805C1467.35 355.888 1330.38 271.841 1194.75 250.143C1176.07 247.227 1157.05 245.975 1137.88 246.348C1062.43 247.814 984.447 274.425 913.245 323.751C890.731 339.349 869.641 358.661 847.311 379.107C809.037 414.154 769.459 450.393 722.421 466.072C692.018 476.205 659.675 473.683 623.545 458.36C592.212 445.07 562.634 424.148 536.537 405.691C533.133 403.284 529.92 401.01 526.688 398.74C523.657 396.614 520.627 394.484 517.593 392.355C438.579 336.854 356.875 279.465 262.108 248.365C178.985 221.086 93.1062 230.691 32.3816 274.057C-61.3147 340.973 -98.5673 447.851 -120.556 533.484Z" fill="#426E97"/>
<path d="M-123.542 542.984L-124.203 542.792C-106.252 480.535 -85.4224 429.563 -60.5284 386.964C-45.7974 361.753 -29.2488 338.893 -11.3446 319.016C8.11917 297.409 29.8989 278.527 53.393 262.897C70.3149 251.639 88.9633 242.662 108.818 236.215C127.778 230.06 147.907 226.187 168.651 224.699C208.386 221.85 249.929 227.803 288.791 241.915C329.919 256.848 371.833 278.203 416.93 307.196C457.09 333.018 495.871 362.284 533.371 390.584C537.406 393.63 541.442 396.675 545.477 399.716C547.957 401.585 550.47 403.486 553.012 405.411C603.868 443.919 667.162 491.838 735.537 468.285C783.215 451.859 823.233 414.395 861.934 378.167C884.053 357.46 904.946 337.901 927.198 321.944C947.342 307.498 968.265 294.665 989.384 283.8C1011.77 272.284 1034.58 262.885 1057.17 255.863C1106.94 240.393 1155.85 236.239 1202.53 243.526C1270.69 254.163 1338.58 281.725 1404.33 325.441C1461.27 363.301 1515.84 412.634 1566.53 472.072L1566.01 472.519C1489.01 382.231 1363.43 269.334 1202.42 244.207C1185.9 241.628 1169.01 240.52 1151.91 240.854C1078.2 242.286 1000.24 270.412 927.601 322.504C905.386 338.436 884.508 357.978 862.406 378.67C823.653 414.948 783.581 452.463 735.763 468.935C723.88 473.03 712.151 474.98 700.62 475.203C645.465 476.276 594.771 437.889 552.599 405.961C550.057 404.036 547.545 402.135 545.067 400.266C541.031 397.225 536.996 394.182 532.961 391.134C457.844 334.445 380.168 275.825 288.56 242.561C206.181 212.65 118.411 220.465 53.7762 263.467C-53.4969 334.843 -98.7978 457.174 -123.542 542.984Z" fill="#426E97"/>
<path d="M-126.529 552.479L-127.138 552.287C-105.935 485.005 -81.7607 429.991 -53.2318 384.093C-36.4058 357.025 -17.6591 332.586 2.48987 311.454C24.3851 288.491 48.724 268.602 74.8264 252.336C92.4776 241.338 111.72 232.644 132.019 226.492C151.564 220.57 172.14 216.984 193.176 215.84C234.039 213.612 276.245 220.641 315.239 236.166C354.933 251.97 395.111 274.101 438.064 303.824C476.326 330.299 513.102 360.142 548.667 389C553.724 393.104 558.778 397.206 563.835 401.297C565.633 402.751 567.45 404.225 569.285 405.713C610.141 438.857 659.273 478.713 713.936 477.649C725.354 477.428 737.003 475.424 748.88 471.2C797.391 453.946 837.944 415.161 877.162 377.651C899.015 356.748 919.658 337.007 941.565 320.743C982.951 290.023 1025.4 267.077 1067.72 252.545C1116.88 235.665 1164.81 230.65 1210.18 237.637C1243.4 242.753 1276.88 252.454 1309.7 266.475C1340.08 279.455 1370.59 296.426 1400.35 316.914C1452.73 352.961 1503.77 400.369 1552.07 457.82L1551.59 458.23C1477.85 370.521 1358.74 261.163 1210.08 238.266C1194.52 235.869 1179.13 234.93 1164.03 235.223C1075.31 236.947 995.998 281.125 941.943 321.251C920.068 337.49 899.44 357.219 877.601 378.108C838.335 415.662 797.732 454.497 749.094 471.794C737.602 475.881 725.938 478.047 714.015 478.278C694.069 478.666 673.392 473.649 651.527 463.186C621.288 448.715 593.447 426.13 568.882 406.202C567.05 404.714 565.233 403.242 563.435 401.786C558.378 397.694 553.324 393.593 548.267 389.489C477.053 331.704 403.417 271.952 315.003 236.753C233.258 204.206 143.597 210.233 75.1653 252.871C-44.486 327.431 -97.2507 459.571 -126.529 552.479Z" fill="#426E97"/>
<path d="M-129.515 561.971L-130.073 561.782C-105.577 489.34 -78.0695 430.249 -45.9794 381.134C-27.0608 352.18 -6.11608 326.159 16.2703 303.794C40.6093 279.48 67.5221 258.616 96.2573 241.78C114.631 231.016 134.463 222.582 155.204 216.71C175.333 211.012 196.359 207.713 217.697 206.905C259.65 205.314 302.527 213.448 341.685 230.417C379.972 247.007 418.442 269.855 459.296 300.263C495.691 327.355 530.49 357.743 564.142 387.131C570.056 392.296 576.174 397.638 582.196 402.872C583.387 403.906 584.583 404.95 585.789 405.998C633.627 447.627 693.163 499.437 762.223 474.108C811.618 455.99 852.744 415.827 892.516 376.988C914.063 355.947 934.413 336.074 955.93 319.537C996.832 288.108 1038 264.457 1078.28 249.244C1126.77 230.937 1173.72 225.05 1217.83 231.748C1249.13 236.5 1280.66 245.821 1311.56 259.451C1339.92 271.97 1368.46 288.435 1396.37 308.39C1444.15 342.545 1491.67 388.028 1537.62 443.568L1537.17 443.943C1434.76 320.159 1327.29 248.962 1217.74 232.33C1116.04 216.889 1019.43 271.486 956.289 320.004C934.799 336.518 914.461 356.38 892.926 377.408C853.11 416.291 811.938 456.499 762.425 474.661C731.58 485.973 699.937 483.006 665.685 465.591C636.064 450.528 609.148 427.105 585.401 406.44C584.195 405.392 582.997 404.348 581.808 403.314C575.786 398.08 569.668 392.738 563.754 387.573C496.386 328.74 426.724 267.905 341.449 230.954C303.219 214.389 262.678 206.561 222.96 207.333C178.329 208.2 134.733 219.917 96.5545 242.286C-3.81481 301.095 -75.6528 402.675 -129.515 561.971Z" fill="#426E97"/>
<path d="M-132.502 571.461L-133.01 571.279C-105.176 493.555 -74.3487 430.359 -38.7638 378.088C-17.7527 347.224 5.3877 319.616 30.0115 296.036C56.8065 270.378 86.3055 248.571 117.688 231.224C136.784 220.671 157.203 212.478 178.383 206.871C199.1 201.389 220.577 198.371 242.222 197.901C263.673 197.442 285.263 199.473 306.402 203.953C327.649 208.455 348.417 215.425 368.129 224.664C405.057 241.974 441.878 265.495 480.699 296.571C515.285 324.258 548.153 355.186 579.936 385.095C586.688 391.449 593.67 398.019 600.552 404.448L602.519 406.286C648.727 449.472 706.234 503.219 775.567 477.021C825.902 457.999 867.649 416.397 908.024 376.163C929.211 355.049 949.225 335.103 970.3 318.336C1062.01 245.371 1147.87 214.258 1225.49 225.861C1254.89 230.254 1284.47 239.197 1313.42 252.437C1339.78 264.493 1366.35 280.452 1392.4 299.874C1436.14 332.49 1478.92 374.834 1523.18 429.318L1522.76 429.659C1423.96 308.024 1326.7 241.535 1225.41 226.396C1147.94 214.816 1062.22 245.892 970.637 318.759C949.586 335.506 929.582 355.441 908.407 376.546C867.993 416.819 826.204 458.463 775.761 477.527C764.208 481.893 752.598 484.195 740.846 484.423C721.11 484.809 700.966 479.347 679.964 467.992C651.006 452.338 625.053 428.083 602.153 406.681L600.186 404.844C593.302 398.414 586.32 391.844 579.568 385.488C515.943 325.616 450.152 263.707 367.9 225.151C287.218 187.331 193.78 189.777 117.951 231.691C8.4061 292.249 -71.178 400.209 -132.502 571.461Z" fill="#426E97"/>
<path d="M-135.486 580.951L-135.945 580.779C-104.727 497.659 -70.5883 430.335 -31.5747 374.959C-8.46626 342.157 16.8674 312.963 43.7237 288.184C72.982 261.188 105.079 238.472 139.122 220.671C158.939 210.307 179.948 202.34 201.568 196.991C222.876 191.717 244.811 188.974 266.763 188.842C288.682 188.709 310.632 191.175 332.001 196.17C353.622 201.225 374.674 208.878 394.578 218.918C430.219 236.898 465.468 261.067 502.337 292.809C535.184 321.087 566.183 352.563 596.161 383.003C603.61 390.567 611.312 398.387 618.916 406.03L619.481 406.6C663.981 451.329 719.361 506.996 788.918 479.939C840.263 459.967 882.685 416.847 923.71 375.149C944.483 354.034 964.104 334.089 984.673 317.14C1025.44 283.552 1062.98 259.208 1099.46 242.716C1121.73 232.652 1143.71 225.564 1164.8 221.654C1188.19 217.316 1211.19 216.754 1233.15 219.981C1260.65 224.024 1288.29 232.585 1315.28 245.435C1339.65 257.032 1364.26 272.488 1388.42 291.37C1409.65 307.953 1431.31 327.807 1452.82 350.382C1470.97 369.426 1489.26 390.587 1508.73 415.076L1508.35 415.383C1448.63 340.298 1355.13 238.404 1233.08 220.47C1158.66 209.536 1077.51 241.282 984.985 317.524C964.436 334.455 944.822 354.391 924.059 375.497C882.997 417.235 840.54 460.391 789.094 480.403C777.522 484.905 765.957 487.272 754.308 487.498C734.709 487.879 714.874 482.198 694.362 470.409C666.11 454.173 641.153 429.085 619.132 406.951L618.567 406.384C610.963 398.741 603.259 390.919 595.81 383.354C535.8 322.421 473.749 259.412 394.357 219.362C314.149 178.9 218.819 179.555 139.35 221.111C20.7576 283.117 -66.5727 397.461 -135.486 580.951Z" fill="#426E97"/>
<path d="M-138.472 590.439L-138.885 590.277C-104.236 501.664 -66.7939 430.182 -24.4156 371.747C0.790288 336.989 28.3171 306.201 57.401 280.236C89.1325 251.906 123.836 228.314 160.546 210.11C181.09 199.923 202.693 192.167 224.75 187.061C246.653 181.991 269.049 179.521 291.315 179.72C313.707 179.919 336.012 182.819 357.612 188.338C379.596 193.955 400.929 202.307 421.014 213.163C439.466 223.137 457.228 234.542 475.319 248.036C491.427 260.05 507.421 273.45 524.215 289.004C555.401 317.884 584.598 349.928 612.835 380.915C620.827 389.685 629.093 398.758 637.265 407.604C657.148 429.129 681.895 455.919 709.503 472.683C741.08 491.86 771.421 495.183 802.259 482.849C854.697 461.87 897.853 417.143 939.591 373.891C959.88 352.865 979.044 333.003 999.038 315.934C1017.64 300.056 1034.72 286.654 1051.25 274.966C1071.43 260.701 1091.22 248.758 1110.06 239.474C1131.86 228.739 1153.3 221.093 1173.81 216.749C1196.76 211.886 1219.3 210.992 1240.8 214.091C1266.42 217.785 1292.1 225.973 1317.14 238.428C1339.53 249.568 1362.17 264.518 1384.44 282.862C1403.91 298.904 1423.16 317.459 1443.29 339.59C1459.42 357.332 1475.62 376.789 1494.28 400.823L1493.93 401.093C1432.89 322.425 1348.94 230.129 1240.74 214.528C1147 201.016 1058.07 266.122 999.325 316.271C979.348 333.325 960.192 353.179 939.91 374.198C898.141 417.485 854.95 462.245 802.423 483.259C790.838 487.893 779.32 490.33 767.784 490.553C748.48 490.929 729.119 485.116 709.272 473.062C681.61 456.265 656.841 429.45 636.938 407.904C628.764 399.055 620.497 389.985 612.506 381.212C555.976 319.171 497.518 255.018 420.8 213.553C339.856 169.802 245.066 168.692 160.74 210.508C-6.78153 293.582 -90.256 467.128 -138.472 590.439Z" fill="#426E97"/>
<path d="M-141.456 599.926L-141.82 599.779C-123.889 555.473 -105.933 516.398 -86.9283 480.319C-65.1583 438.992 -41.7232 401.359 -17.2713 368.468C10.037 331.734 39.757 299.352 71.0612 272.215C105.273 242.562 142.59 218.115 181.974 199.557C203.255 189.529 225.453 181.975 247.95 177.102C270.449 172.229 293.312 170.024 315.897 170.552C338.76 171.085 361.422 174.422 383.253 180.469C405.593 186.656 427.196 195.721 447.455 207.411C465.308 217.712 482.411 229.444 499.741 243.281C515.17 255.6 530.421 269.312 546.363 285.198C575.963 314.697 603.431 347.337 629.992 378.901C638.372 388.858 647.037 399.156 655.623 409.179C693.681 453.61 745.802 514.46 815.609 485.759C869.234 463.712 913.201 417.269 955.721 372.354C975.446 351.519 994.077 331.839 1013.41 314.729C1041.43 289.933 1078.95 258.607 1120.69 236.25C1142 224.839 1162.9 216.631 1182.83 211.854C1205.33 206.458 1227.41 205.23 1248.46 208.2C1272.21 211.552 1295.95 219.367 1319 231.424C1339.43 242.112 1360.11 256.556 1380.46 274.354C1418.58 307.695 1450.75 347.99 1479.83 386.569L1479.52 386.805C1415.73 302.181 1343.58 222.022 1248.4 208.588C1239.77 207.37 1231.16 206.881 1222.61 207.048C1144.54 208.566 1070.75 264.513 1013.67 315.021C994.349 332.12 975.726 351.795 956.006 372.621C913.459 417.566 869.46 464.041 815.757 486.12C804.162 490.887 792.702 493.388 781.292 493.609C762.393 493.977 743.622 488.097 724.561 475.926C697.449 458.611 674.092 431.342 655.324 409.432C646.735 399.406 638.07 389.108 629.69 379.152C576.501 315.944 521.499 250.583 447.259 207.75C402.955 182.188 353.747 169.827 303.794 170.797C262.993 171.591 221.7 181.27 182.141 199.911C3.05212 284.299 -88.3134 468.621 -141.456 599.926Z" fill="#426E97"/>
<path d="M-144.44 609.414L-144.757 609.281C-125.197 562.379 -105.733 521.116 -85.2554 483.134C-61.6827 439.412 -36.4105 399.706 -10.1436 365.118C19.2694 326.39 51.1802 292.409 84.7021 264.115C102.685 248.937 121.562 235.027 140.812 222.769C160.868 209.997 181.925 198.638 203.4 189.006C225.423 179.128 248.222 171.763 271.161 167.116C294.267 162.435 317.597 160.494 340.504 161.347C363.839 162.216 386.859 165.993 408.918 172.573C431.607 179.339 453.468 189.126 473.892 201.664C491.315 212.36 507.915 224.508 524.638 238.797C539.526 251.519 554.166 265.658 569.391 282.017C597.659 312.393 623.609 345.92 648.707 378.341C656.962 389.005 665.499 400.033 673.97 410.758C690.774 431.865 713.786 460.775 740.046 478.436C769.351 498.145 798.432 501.495 828.948 488.677C883.842 465.375 928.73 417.107 972.14 370.431C991.199 349.938 1009.2 330.58 1027.78 313.533C1059.04 284.834 1093.23 255.232 1131.32 233.116C1152.11 221.04 1172.47 212.272 1191.84 207.053C1213.87 201.114 1235.5 199.52 1256.1 202.32C1297.54 208.111 1336.91 228.918 1376.46 265.933C1409.64 296.979 1437.45 333.974 1465.37 372.324L1465.09 372.526C1416.98 306.442 1351.08 215.939 1256.06 202.659C1248.2 201.591 1240.37 201.158 1232.62 201.311C1159.59 202.73 1091.33 255.667 1028.01 313.783C1009.44 330.823 991.444 350.174 972.391 370.664C928.956 417.37 884.043 465.664 829.078 488.994C817.508 493.854 806.139 496.399 794.891 496.617C776.363 496.978 758.149 491.028 739.849 478.721C728.414 471.031 716.802 460.777 704.345 447.377C693.598 435.814 683.713 423.559 673.695 410.974C665.221 400.249 656.684 389.219 648.43 378.555C598.155 313.604 546.167 246.442 473.705 201.959C393.662 152.822 295.188 148.217 203.533 189.325C13.0312 274.765 -86.2992 469.994 -144.44 609.414Z" fill="#426E97"/>
<path d="M-147.424 618.899L-147.694 618.784C-126.489 569.254 -105.52 525.795 -83.5879 485.924C-58.2076 439.783 -31.1032 397.989 -3.02867 361.705C28.4891 320.967 62.5907 285.384 98.3279 255.942C117.524 240.128 137.656 225.696 158.163 213.05C179.545 199.864 201.973 188.225 224.824 178.453C247.599 168.715 271.004 161.528 294.388 157.095C318.105 152.598 341.911 150.916 365.143 152.092C388.949 153.298 412.325 157.518 434.615 164.633C457.645 171.984 479.754 182.508 500.331 195.907C517.186 206.886 533.155 219.318 549.146 233.912C563.381 246.904 577.302 261.321 591.701 277.982C618.435 308.915 642.7 342.982 666.167 375.927C674.704 387.91 683.528 400.303 692.321 412.325C712.016 439.142 731.651 464.601 755.31 481.368C783.505 501.353 811.957 504.693 842.296 491.583C898.654 467.094 944.535 416.795 988.902 368.154C1007.18 348.118 1024.44 329.192 1042.15 312.322C1066.3 289.319 1102.79 254.557 1141.98 229.896C1162.55 216.953 1181.81 207.876 1200.87 202.151C1222.44 195.674 1243.6 193.749 1263.77 196.428C1300.37 201.377 1334.87 220.266 1369.25 254.174C1399.01 283.528 1424.05 319.476 1446.13 351.193C1447.75 353.509 1449.34 355.803 1450.93 358.07L1450.69 358.239C1449.1 355.972 1447.51 353.678 1445.89 351.362C1401.36 287.418 1345.94 207.839 1263.73 196.723C1176.15 185.091 1095.64 261.785 1042.35 312.538C1024.65 329.403 1007.39 348.324 989.121 368.355C967.218 392.37 944.569 417.2 920.444 438.985C893.194 463.589 867.672 480.884 842.417 491.858C811.975 505.012 783.426 501.66 755.143 481.614C731.45 464.82 711.797 439.341 692.088 412.504C683.295 400.48 674.468 388.087 665.931 376.104C618.909 310.087 570.282 241.822 500.171 196.158C453.694 165.888 400.128 151.125 344.635 152.203C305.103 152.972 264.599 161.772 224.942 178.728C23.1449 265.007 -84.2215 471.262 -147.424 618.899Z" fill="#426E97"/>
<path d="M-150.408 628.384L-150.634 628.286C-127.771 576.103 -105.297 530.441 -81.9253 488.692C-54.3469 439.424 -26.2134 396.751 4.07886 358.232C20.4776 337.378 37.6081 317.72 54.9941 299.798C73.3012 280.929 92.4629 263.401 111.946 247.699C132.358 231.252 153.742 216.307 175.507 203.283C198.216 189.694 222.017 177.789 246.248 167.899C269.783 158.291 293.801 151.279 317.629 147.053C334.917 143.987 352.182 142.376 369.178 142.239C329.255 142.573 287.874 151.171 246.338 168.125C33.3814 255.055 -82.0849 472.435 -150.408 628.384ZM821.929 502.772C804.226 503.116 787.186 497.045 770.426 484.507C747.411 467.293 728.188 440.255 710.47 414.034C701.499 400.757 692.529 387.038 683.857 373.768C639.966 306.621 594.579 237.188 526.629 190.354C482.637 160.032 432.869 143.956 380.335 142.359C383.506 142.455 386.667 142.602 389.813 142.801C414.093 144.341 437.823 149.008 460.344 156.663C483.706 164.606 506.055 175.874 526.767 190.15C543.102 201.409 558.481 214.128 573.782 229.034C587.403 242.301 600.641 257.005 614.252 273.981C639.522 305.496 662.164 340.136 684.061 373.633C692.733 386.9 701.7 400.62 710.672 413.894C728.377 440.095 747.586 467.116 770.571 484.308C797.656 504.567 825.482 507.9 855.645 494.495C913.638 468.722 960.621 416.191 1006.06 365.391C1023.41 345.988 1039.81 327.662 1056.53 311.116L1060.06 307.611C1086.42 281.511 1119.21 249.031 1155.03 225.089C1174.65 211.967 1193.03 202.723 1211.21 196.831C1231.83 190.145 1252.09 188.028 1271.42 190.538C1342.56 199.773 1388.97 270.987 1426.25 328.207C1429.79 333.642 1433.14 338.778 1436.48 343.815L1436.27 343.95C1432.93 338.91 1429.59 333.775 1426.05 328.34C1388.79 271.162 1342.42 199.999 1271.39 190.779C1189.15 180.105 1114.64 253.901 1060.24 307.783L1056.7 311.288C1039.98 327.826 1023.6 346.151 1006.25 365.55C983.853 390.589 960.695 416.483 935.939 439.275C907.957 465.036 881.727 483.173 855.75 494.716C844.16 499.871 832.917 502.558 821.929 502.772Z" fill="#426E97"/>
</g>
</svg>
