<svg width="52" height="53" viewBox="0 0 52 53" fill="none" xmlns="http://www.w3.org/2000/svg">
<path d="M5.0529 10.7017H26.584C26.8846 10.7017 27.1728 10.8211 27.3853 11.0336C27.5979 11.2461 27.7173 11.5343 27.7173 11.8349V51.4975H3.91968V11.8349C3.91968 11.5343 4.03907 11.2461 4.25159 11.0336C4.46411 10.8211 4.75235 10.7017 5.0529 10.7017Z" stroke="#214F7A" stroke-width="1.5"/>
<path d="M20.9179 3.90234H10.7185L10.7189 10.7017H20.9179V3.90234Z" stroke="#214F7A" stroke-width="1.5"/>
<path d="M10.719 17.501H20.918" stroke="#214F7A" stroke-width="1.5"/>
<path d="M10.719 24.3003H20.918" stroke="#214F7A" stroke-width="1.5"/>
<path d="M10.719 31.0996H20.918" stroke="#214F7A" stroke-width="1.5"/>
<path d="M10.719 37.8989H20.918" stroke="#214F7A" stroke-width="1.5"/>
<path d="M10.719 44.6982H20.918" stroke="#214F7A" stroke-width="1.5"/>
<path d="M17.5183 0.502686V3.90234" stroke="#214F7A" stroke-width="1.5"/>
<path d="M48.1151 51.4975H34.5165L34.5164 20.9006H48.1151V51.4975Z" stroke="#13273A" stroke-width="1.5"/>
<path d="M44.7156 17.501V20.9006" stroke="#13273A" stroke-width="1.5"/>
<path d="M0.52002 51.4976H51.5148" stroke="#13273A" stroke-width="1.5"/>
</svg>
