<svg width="50" height="51" viewBox="0 0 50 51" fill="none" xmlns="http://www.w3.org/2000/svg">
<path d="M32.228 36.6765C32.3863 36.6765 32.5411 36.7235 32.6728 36.8115C32.8045 36.8994 32.9071 37.0245 32.9677 37.1708C33.0283 37.3171 33.0442 37.4781 33.0133 37.6334C32.9824 37.7888 32.9061 37.9314 32.7942 38.0434C32.6822 38.1554 32.5395 38.2317 32.3842 38.2626C32.2289 38.2935 32.0679 38.2776 31.9215 38.217C31.7752 38.1564 31.6502 38.0538 31.5622 37.9221C31.4742 37.7904 31.4272 37.6356 31.4272 37.4772C31.4272 37.2649 31.5116 37.0612 31.6618 36.911C31.8119 36.7609 32.0156 36.6765 32.228 36.6765" stroke="#13273A" stroke-width="1.5"/>
<path d="M40.2353 36.6765C40.3937 36.6765 40.5485 36.7235 40.6801 36.8115C40.8118 36.8994 40.9144 37.0245 40.9751 37.1708C41.0357 37.3171 41.0515 37.4781 41.0206 37.6334C40.9897 37.7888 40.9135 37.9314 40.8015 38.0434C40.6895 38.1554 40.5468 38.2317 40.3915 38.2626C40.2362 38.2935 40.0752 38.2776 39.9289 38.217C39.7826 38.1564 39.6575 38.0538 39.5695 37.9221C39.4815 37.7904 39.4346 37.6356 39.4346 37.4772C39.4346 37.2649 39.5189 37.0612 39.6691 36.911C39.8193 36.7609 40.0229 36.6765 40.2353 36.6765Z" stroke="#13273A" stroke-width="1.5"/>
<path d="M32.228 43.0823C32.3863 43.0823 32.5411 43.1292 32.6728 43.2172C32.8045 43.3052 32.9071 43.4303 32.9677 43.5766C33.0283 43.7229 33.0442 43.8839 33.0133 44.0392C32.9824 44.1945 32.9061 44.3372 32.7942 44.4492C32.6822 44.5612 32.5395 44.6374 32.3842 44.6683C32.2289 44.6992 32.0679 44.6834 31.9215 44.6228C31.7752 44.5622 31.6502 44.4595 31.5622 44.3278C31.4742 44.1962 31.4272 44.0414 31.4272 43.883C31.4272 43.6706 31.5116 43.467 31.6618 43.3168C31.8119 43.1666 32.0156 43.0823 32.228 43.0823" stroke="#13273A" stroke-width="1.5"/>
<path d="M40.2353 43.0823C40.3937 43.0823 40.5485 43.1292 40.6801 43.2172C40.8118 43.3052 40.9144 43.4303 40.9751 43.5766C41.0357 43.7229 41.0515 43.8839 41.0206 44.0392C40.9897 44.1945 40.9135 44.3372 40.8015 44.4492C40.6895 44.5612 40.5468 44.6374 40.3915 44.6683C40.2362 44.6992 40.0752 44.6834 39.9289 44.6228C39.7826 44.5622 39.6575 44.4595 39.5695 44.3278C39.4815 44.1962 39.4346 44.0414 39.4346 43.883C39.4346 43.6706 39.5189 43.467 39.6691 43.3168C39.8193 43.1666 40.0229 43.0823 40.2353 43.0823Z" stroke="#13273A" stroke-width="1.5"/>
<path d="M42.637 29.2034C42.637 29.9571 42.6391 30.271 42.6391 30.271H29.8276C29.8276 30.271 29.8277 29.9208 29.8277 29.1649L29.8278 23.8652L42.637 23.8652V29.2034Z" stroke="#13273A" stroke-width="1.5"/>
<path d="M49.0429 17.4595H23.4201L23.42 19.9364V47.0113L23.4199 49.4882H49.0429V47.0113V19.9364V17.4595Z" stroke="#13273A" stroke-width="1.5"/>
<path d="M8.20648 7.85083C8.36485 7.85083 8.51966 7.89779 8.65133 7.98578C8.78301 8.07376 8.88564 8.19881 8.94624 8.34513C9.00685 8.49144 9.02271 8.65243 8.99181 8.80776C8.96091 8.96308 8.88465 9.10576 8.77267 9.21774C8.66069 9.32972 8.51801 9.40598 8.36269 9.43688C8.20737 9.46777 8.04637 9.45192 7.90006 9.39131C7.75375 9.33071 7.62869 9.22808 7.54071 9.0964C7.45272 8.96472 7.40576 8.80991 7.40576 8.65155C7.40576 8.43918 7.49012 8.23552 7.64029 8.08535C7.79045 7.93519 7.99412 7.85083 8.20648 7.85083Z" stroke="#214F7A" stroke-width="1.5"/>
<path d="M17.0143 27.068H1V1.44507H42.6373V11.0537" stroke="#214F7A" stroke-width="1.5"/>
<path d="M16.277 17.4723C15.8498 16.7322 15.5749 15.9142 15.4687 15.0664C15.3624 14.2185 15.4268 13.358 15.6582 12.5354C15.8895 11.7128 16.2831 10.9449 16.8158 10.2767C17.3484 9.60857 18.0094 9.05373 18.7597 8.64488C19.51 8.23603 20.3345 7.98142 21.1847 7.89606C22.035 7.8107 22.8936 7.8963 23.7103 8.14782C24.5269 8.39935 25.2849 8.81171 25.9398 9.36064C26.5946 9.90957 27.133 10.584 27.5233 11.3441" stroke="#214F7A" stroke-width="1.5"/>
</svg>
