<svg width="56" height="55" viewBox="0 0 56 55" fill="none" xmlns="http://www.w3.org/2000/svg">
<path d="M14.3105 53.9334H41.5362L39.1141 49.1106C38.8449 48.438 38.3766 47.8638 37.772 47.4648C37.1674 47.0658 36.4553 46.861 35.7311 46.8779H20.312C19.5878 46.861 18.8757 47.0658 18.2711 47.4648C17.6665 47.8638 17.1982 48.438 16.929 49.1106L14.3105 53.9334Z" stroke="#214F7A" stroke-width="1.5"/>
<path d="M22.729 46.8755V44.4452C22.8232 43.1319 23.4322 41.9088 24.4235 41.0422C25.4148 40.1756 26.7082 39.7355 28.0224 39.8176C29.3365 39.7355 30.63 40.1756 31.6213 41.0422C32.6126 41.9088 33.2216 43.1319 33.3158 44.4452V46.8755" stroke="#214F7A" stroke-width="1.5"/>
<path d="M28.022 39.7917V13.3506" stroke="#13273A" stroke-width="1.5"/>
<path d="M32.3575 9.1795C32.3313 10.2993 31.868 11.3643 31.0668 12.147C30.2656 12.9297 29.1899 13.3679 28.0699 13.3679C26.9498 13.3679 25.8742 12.9297 25.0729 12.147C24.2717 11.3643 23.8085 10.2993 23.7822 9.1795C24.3914 6.56041 25.4101 4.05384 26.8006 1.75228C26.9253 1.52456 27.1088 1.33456 27.3322 1.2022C27.5555 1.06984 27.8103 1 28.0699 1C28.3295 1 28.5843 1.06984 28.8076 1.2022C29.0309 1.33456 29.2145 1.52456 29.3391 1.75228C30.7287 4.05434 31.7473 6.56074 32.3575 9.1795Z" stroke="#214F7A" stroke-width="1.5"/>
<path d="M5.08398 16.8796H50.96" stroke="#13273A" stroke-width="1.5"/>
<path d="M10.3774 16.8796V27.4664" stroke="#13273A" stroke-width="1.5"/>
<path d="M18.0868 27.4663C18.2459 27.4663 18.4031 27.5002 18.548 27.566C18.6928 27.6317 18.822 27.7277 18.9267 27.8474C19.0314 27.9659 19.109 28.1058 19.1541 28.2574C19.1992 28.4089 19.2107 28.5685 19.1878 28.725C18.8642 30.8297 17.7979 32.749 16.1818 34.1356C14.5657 35.5222 12.5067 36.2845 10.3772 36.2845C8.24783 36.2845 6.18875 35.5222 4.57267 34.1356C2.95658 32.749 1.89027 30.8297 1.56669 28.725C1.54373 28.5681 1.5552 28.4082 1.60029 28.2562C1.64539 28.1043 1.72303 27.964 1.82783 27.8451C1.93331 27.7258 2.06297 27.6303 2.20818 27.565C2.35339 27.4997 2.51084 27.4661 2.67007 27.4663H18.0868Z" stroke="#214F7A" stroke-width="1.5"/>
<path d="M45.6665 16.8796V27.4664" stroke="#13273A" stroke-width="1.5"/>
<path d="M53.3758 27.4663C53.5349 27.4663 53.6922 27.5002 53.837 27.566C53.9819 27.6317 54.111 27.7277 54.2157 27.8474C54.3205 27.9659 54.3981 28.1058 54.4432 28.2574C54.4883 28.4089 54.4998 28.5685 54.4769 28.725C54.1533 30.8297 53.087 32.749 51.4709 34.1356C49.8548 35.5222 47.7957 36.2845 45.6663 36.2845C43.5369 36.2845 41.4778 35.5222 39.8617 34.1356C38.2456 32.749 37.1793 30.8297 36.8558 28.725C36.8328 28.5681 36.8443 28.4082 36.8894 28.2562C36.9345 28.1043 37.0121 27.964 37.1169 27.8451C37.2224 27.7258 37.352 27.6303 37.4972 27.565C37.6425 27.4997 37.7999 27.4661 37.9591 27.4663H53.3758Z" stroke="#214F7A" stroke-width="1.5"/>
</svg>
