<svg width="55" height="56" viewBox="0 0 55 56" fill="none" xmlns="http://www.w3.org/2000/svg">
<path d="M34.7362 42.4554V48.2448C34.7362 49.2684 34.3296 50.2501 33.6057 50.974C32.8819 51.6978 31.9002 52.1044 30.8766 52.1044H23.1574C22.1338 52.1044 21.1521 51.6978 20.4283 50.974C19.7045 50.2501 19.2979 49.2684 19.2979 48.2448V42.4554" stroke="#13273A" stroke-width="1.5"/>
<path d="M27.0173 0V3.85958" stroke="#214F7A" stroke-width="1.5"/>
<path d="M0 27.0171H3.85958" stroke="#214F7A" stroke-width="1.5"/>
<path d="M5.78955 7.71912L8.61991 10.4388" stroke="#214F7A" stroke-width="1.5"/>
<path d="M54.0341 27.0171H50.1746" stroke="#214F7A" stroke-width="1.5"/>
<path d="M48.2444 7.71912L45.4141 10.4388" stroke="#214F7A" stroke-width="1.5"/>
<path d="M19.0793 42.4554H34.9551C37.8221 41.0323 40.2286 38.828 41.8971 36.0965C43.5656 33.365 44.4281 30.2175 44.3854 27.0171C44.3041 22.4361 42.4481 18.0656 39.2084 14.8258C35.9687 11.5861 31.5981 9.7302 27.0172 9.64893C22.4346 9.73028 18.0625 11.5876 14.8225 14.8295C11.5825 18.0715 9.72772 22.4446 9.64909 27.0273C9.60826 30.2261 10.4718 33.3713 12.1401 36.1008C13.8085 38.8303 16.2139 41.0331 19.0793 42.4554V42.4554Z" stroke="#13273A" stroke-width="1.5"/>
<path d="M27.0173 32.8065V42.4555" stroke="#214F7A" stroke-width="1.5"/>
<path d="M21.2278 27.0171L27.0172 32.8065L32.8065 27.0171" stroke="#214F7A" stroke-width="1.5"/>
<path d="M27.0173 52.1044V56" stroke="#214F7A" stroke-width="1.5"/>
</svg>
