<svg width="808" height="586" viewBox="0 0 808 586" fill="none" xmlns="http://www.w3.org/2000/svg">
<mask id="mask0" mask-type="alpha" maskUnits="userSpaceOnUse" x="0" y="0" width="808" height="586">
<rect width="808" height="585.058" fill="#214F7A"/>
</mask>
<g mask="url(#mask0)">
<path d="M1051.33 424.002L1050.14 423.663C1050.96 421.374 1051.78 419.082 1052.6 416.788C1077.26 348.015 1102.77 276.902 1095.13 204.453C1087.8 134.886 1046.31 73.9874 978.301 32.9723C829.348 -56.8583 618.43 -36.589 498.129 79.118C444.015 131.166 413.608 194.719 384.727 260.722C382.831 265.052 380.96 269.47 378.979 274.146C370.69 293.718 361.292 315.901 348.346 334.839C333.454 356.619 316.137 370.775 295.404 378.116C280.002 383.571 262.732 385.867 243.207 385.01C230.829 384.467 217.546 382.657 203.253 379.58C171.588 372.765 140.61 361.032 113.279 350.68C109.397 349.209 105.73 347.821 102.099 346.461C49.6759 326.818 -2.47684 304.581 -52.9133 283.076C-94.8015 265.216 -138.116 246.747 -181.357 229.862C-186.74 227.76 -192.074 225.663 -197.719 223.44C-271.844 194.275 -355.855 161.22 -436.008 166.807C-490.277 170.592 -518.598 202.193 -541.119 235.781L-542.198 235.209C-527.48 213.26 -514.231 198.622 -499.231 187.747C-481.106 174.605 -460.458 167.391 -436.108 165.692C-400.218 163.189 -360.25 168.244 -313.928 181.148C-273.441 192.423 -234.69 207.672 -197.211 222.416C-191.566 224.636 -186.232 226.736 -180.852 228.838C-137.589 245.73 -94.2663 264.204 -52.3697 282.067C-1.94707 303.567 50.1919 325.796 102.587 345.432C106.221 346.792 109.888 348.182 113.773 349.654C166.508 369.628 238.735 396.986 294.943 377.08C340.943 360.789 361.384 312.531 377.809 273.753C379.79 269.075 381.664 264.654 383.562 260.317C397.317 228.882 412.559 195.51 430.773 164.447C450.847 130.213 472.579 102.055 497.213 78.3591C526.834 49.8695 562.401 26.6702 602.929 9.40696C641.997 -7.23488 684.178 -17.7637 728.298 -21.8849C749.989 -23.9111 772.008 -24.3311 793.742 -23.1326C815.634 -21.9267 837.446 -19.0679 858.571 -14.6348C902.355 -5.44937 942.875 10.2567 979.007 32.0463C995.494 41.9882 1010.7 53.3399 1024.2 65.782C1037.74 78.2609 1049.68 91.9408 1059.69 106.443C1069.82 121.125 1078.06 136.782 1084.18 152.982C1090.43 169.521 1094.54 186.801 1096.39 204.347C1104.05 277.022 1078.5 348.246 1053.8 417.127C1052.97 419.424 1052.15 421.715 1051.33 424.002Z" fill="#426E97"/>
<path d="M1074.59 437.772L1073.44 437.47C1074.15 435.321 1074.86 433.172 1075.57 431.018C1098.56 361.636 1122.32 289.892 1112.55 217.167C1103.04 146.292 1058.96 84.1576 988.446 42.2091C932.5 8.66021 867.13 -9.18752 801.063 -12.0905C696.128 -16.698 589.392 16.3647 515.515 84.0471C458.556 136.232 425.106 202.291 395.728 265.479C393.937 269.359 392.163 273.299 390.284 277.469C381.438 297.11 371.413 319.369 357.852 338.248C342.24 359.978 324.384 373.816 303.262 380.543C278.404 388.461 248.924 388.294 213.137 380.032C182.338 372.922 152.226 361.121 125.657 350.712C121.916 349.246 118.384 347.863 114.877 346.502C63.5603 326.737 12.1277 304.355 -37.6106 282.708C-78.1137 265.081 -119.999 246.855 -161.565 230.152C-166.231 228.278 -171.054 226.328 -175.72 224.442C-251.034 194.002 -336.397 159.5 -418.451 167.986C-472.312 173.558 -503.45 204.069 -533.631 248.172L-534.657 247.614C-523.3 231.021 -507.677 209.959 -487.496 194.245C-467.37 178.576 -444.833 169.639 -418.589 166.922C-381.844 163.12 -341.049 167.639 -293.868 180.732C-252.642 192.172 -213.284 208.082 -175.22 223.467C-170.557 225.353 -165.734 227.301 -161.068 229.177C-119.486 245.885 -77.5922 264.116 -37.0808 281.745C12.6465 303.385 64.068 325.761 115.36 345.52C118.87 346.881 122.404 348.266 126.146 349.732C177.294 369.773 247.343 397.224 302.862 379.536C349.753 364.598 371.609 316.068 389.172 277.071C391.051 272.899 392.825 268.957 394.621 265.071C424.043 201.785 457.549 135.623 514.657 83.3029C573.476 29.4134 654.654 -4.49902 743.234 -12.1912C786.367 -15.9366 829.337 -13.3553 870.946 -4.51621C913.825 4.59063 953.583 20.0118 989.12 41.3225C1006.23 51.5002 1022.07 63.1171 1036.21 75.8465C1050.37 88.598 1062.94 102.57 1073.56 117.377C1084.29 132.349 1093.14 148.308 1099.84 164.813C1106.67 181.644 1111.36 199.214 1113.75 217.042C1123.55 289.983 1099.74 361.835 1076.73 431.323C1076.01 433.474 1075.3 435.626 1074.59 437.772Z" fill="#426E97"/>
<path d="M1097.85 451.546L1096.74 451.278L1098.49 445.536C1119.82 375.447 1141.87 302.97 1129.98 229.882C1118.29 158.029 1071.64 94.6621 998.598 51.4463C854.965 -33.5386 654.761 -17.4027 532.91 88.9789C472.496 141.724 436.107 210.197 406.74 270.239C404.969 273.864 403.211 277.533 401.348 281.419C391.953 301.032 381.305 323.264 367.17 341.961C350.89 363.496 332.56 376.91 311.135 382.974C298.155 386.646 283.97 388.144 268.336 387.456C254.644 386.855 239.844 384.58 223.76 380.629C194.054 373.327 164.927 361.57 139.233 351.196C135.218 349.575 131.43 348.045 127.672 346.547C78.2699 326.83 28.297 304.66 -20.0314 283.219C-59.8943 265.533 -101.112 247.246 -141.759 230.449C-145.423 228.934 -149.12 227.401 -152.848 225.854C-229.611 194.017 -316.613 157.934 -400.883 169.172C-463.554 177.53 -497.118 218.906 -526.126 260.567L-527.103 260.029C-513.411 240.367 -496.605 217.948 -475.756 200.783C-453.66 182.589 -429.224 171.918 -401.052 168.16C-363.321 163.128 -321.541 167.18 -273.326 180.548C-231.211 192.224 -189.32 209.598 -152.363 224.928C-148.635 226.475 -144.937 228.008 -141.273 229.521C-100.613 246.322 -59.3866 264.615 -19.5154 282.303C28.8019 303.739 78.7638 325.907 128.146 345.614C131.907 347.114 135.698 348.644 139.713 350.265C191.714 371.257 256.432 397.384 310.792 381.999C358.381 368.533 381.622 320.007 400.3 281.018C402.162 277.13 403.92 273.461 405.694 269.834C420.073 240.438 437.633 206.032 458.873 173.735C481.265 139.69 505.223 111.726 532.112 88.2519C562.072 62.0955 597.245 40.9445 636.652 25.3882C674.796 10.3305 715.62 0.992773 757.991 -2.36212C844.286 -9.19716 929.967 9.61087 999.243 50.599C1016.96 61.0788 1033.42 72.9928 1048.17 86.0071C1062.95 99.0534 1076.14 113.315 1087.37 128.398C1098.73 143.659 1108.19 159.901 1115.48 176.675C1122.92 193.789 1128.19 211.644 1131.13 229.74C1143.05 303.039 1120.97 375.618 1099.61 445.808L1097.85 451.546Z" fill="#426E97"/>
<path d="M1121.1 465.319L1120.04 465.085L1121.35 460.353C1141.05 389.455 1161.42 316.146 1147.41 242.594C1133.49 169.553 1084.24 104.948 1008.74 60.6833C953.277 28.1634 888.831 10.77 823.696 7.90877C724.449 3.55183 623.582 32.9207 550.301 93.9055C486.836 146.722 448.603 215.072 417.749 274.994C416.055 278.282 414.375 281.6 412.598 285.112C402.653 304.746 391.385 326.997 376.645 345.572C359.656 366.978 340.802 380.005 319.004 385.396C295.136 391.3 267.378 389.934 234.146 381.216C205.441 373.685 177.255 361.921 152.386 351.542C148.244 349.813 144.332 348.18 140.455 346.581C92.869 326.96 44.3005 304.952 -2.66751 283.666C-41.8158 265.926 -82.2969 247.58 -121.961 230.732C-124.406 229.693 -126.862 228.649 -129.334 227.598C-192.728 200.628 -262.976 170.744 -333.403 167.649C-350.069 166.917 -366.729 167.684 -383.329 170.346C-448.74 180.831 -484.654 224.862 -518.632 272.95L-519.559 272.43C-504.477 251.087 -486.506 226.694 -464.029 207.338C-439.976 186.627 -413.642 174.212 -383.522 169.383C-344.691 163.16 -301.807 166.802 -252.419 180.516C-209.303 192.489 -166.565 210.674 -128.859 226.714C-126.387 227.765 -123.931 228.811 -121.487 229.847C-81.8085 246.701 -41.3219 265.049 -2.16807 282.791C44.7917 304.073 93.3518 326.078 140.919 345.692C144.798 347.291 148.711 348.924 152.855 350.653C203.005 371.583 265.416 397.634 318.711 384.448C367.156 372.465 391.798 323.802 411.602 284.702C413.381 281.188 415.062 277.87 416.756 274.579C431.824 245.313 450.278 210.998 472.893 178.362C496.441 144.381 521.517 116.52 549.556 93.1835C579.618 68.1642 614.559 48.0152 653.403 33.2964C691.07 19.0222 731.223 10.2788 772.747 7.3095C814.21 4.34266 855.491 7.24074 895.443 15.9251C936.539 24.8576 974.865 39.6403 1009.35 59.858C1027.68 70.603 1044.76 82.7946 1060.13 96.0963C1075.53 109.423 1089.35 123.974 1101.18 139.351C1113.16 154.9 1123.22 171.436 1131.1 188.501C1139.14 205.901 1144.99 224.041 1148.49 242.42C1162.54 316.173 1142.15 389.583 1122.42 460.576L1121.1 465.319Z" fill="#426E97"/>
<path d="M1144.36 479.092L1143.34 478.888L1144.21 475.457C1162.29 403.658 1180.99 329.414 1164.83 255.301C1148.65 181.034 1096.82 115.196 1018.89 69.9152C962.987 37.4273 898.765 20.0044 834.008 17.1604C738.082 12.9483 640.954 40.7036 567.693 98.8297C507.952 146.23 468.945 205.435 428.756 279.746C427.147 282.718 425.553 285.704 423.867 288.87C413.379 308.518 401.492 330.789 386.142 349.231C368.439 370.5 349.049 383.124 326.868 387.82C274.376 398.935 214.105 372.897 165.678 351.974C161.359 350.108 157.281 348.347 153.239 346.623C107.728 327.22 60.8452 305.499 15.5079 284.496C-23.1935 266.567 -63.2109 248.024 -102.166 231.026L-105.273 229.671C-169.031 201.839 -239.569 171.051 -310.766 167.924C-329.098 167.119 -347.461 168.145 -365.78 171.53C-433.889 184.109 -471.906 230.518 -511.14 285.343L-512.02 284.844C-493.66 259.189 -475.278 234.46 -452.305 213.937C-426.31 190.716 -398.077 176.547 -365.992 170.621C-325.958 163.226 -281.865 166.502 -231.197 180.637C-186.986 192.968 -143.331 212.024 -104.815 228.838L-101.708 230.194C-62.7419 247.199 -22.7189 265.742 15.988 283.673C61.3198 304.674 108.194 326.39 153.689 345.788C157.734 347.512 161.815 349.275 166.133 351.142C214.412 371.998 274.497 397.958 326.625 386.918C375.952 376.473 401.994 327.68 422.92 288.474C424.609 285.309 426.204 282.32 427.812 279.348C443.606 250.141 462.979 215.856 486.888 183.007C511.589 149.07 537.794 121.309 566.995 98.142C597.118 74.2427 631.801 55.0785 670.086 41.185C707.267 27.6917 746.755 19.5402 787.451 16.9565C828.109 14.3753 868.568 17.4428 907.705 26.0683C947.932 34.9369 985.532 49.4297 1019.46 69.144C1038.4 80.1494 1056.11 92.6209 1072.11 106.21C1088.12 119.814 1102.55 134.658 1115 150.332C1127.58 166.168 1138.25 182.997 1146.72 200.356C1155.35 218.041 1161.79 236.471 1165.86 255.129C1182.05 329.431 1163.33 403.771 1145.22 475.666L1144.36 479.092Z" fill="#426E97"/>
<path d="M1167.62 492.868L1166.65 492.693L1167.06 490.876C1183.53 418.068 1200.57 342.784 1182.26 268.014C1163.77 192.487 1109.35 125.413 1029.04 79.1546C893.702 1.19635 706.992 11.5435 585.088 103.759C522.792 150.885 481.938 210.096 439.766 284.503C438.248 287.18 436.742 289.865 435.147 292.709C413.004 332.186 385.447 381.319 334.738 390.246C283.545 399.257 225.648 373.337 179.129 352.507C174.579 350.471 170.283 348.546 166.026 346.669C122.896 327.643 78.0413 306.376 34.6658 285.81C-3.91132 267.52 -43.8019 248.606 -82.3653 231.321C-159.649 196.682 -255.829 153.574 -348.228 172.713C-424.634 188.54 -466.608 246.551 -503.643 297.736L-504.476 297.257C-486.34 272.191 -465.783 243.78 -440.569 220.561C-427.231 208.279 -413.796 198.487 -399.5 190.627C-383.61 181.894 -366.436 175.577 -348.454 171.854C-307.349 163.341 -262.258 166.203 -210.599 180.605C-164.895 193.346 -120.813 213.102 -81.921 230.535C-43.3466 247.823 -3.45054 266.739 35.1294 285.031C78.4994 305.595 123.346 326.857 166.464 345.879C170.725 347.757 175.021 349.683 179.571 351.719C225.957 372.487 283.683 398.334 334.542 389.382C384.774 380.54 412.209 331.621 434.256 292.316C435.851 289.472 437.357 286.787 438.875 284.108C455.433 254.894 475.747 220.586 500.872 187.631C526.729 153.719 554.065 126.064 584.439 103.088C614.581 80.2869 648.992 62.0928 686.717 49.0122C723.401 36.2926 762.227 28.7306 802.114 26.5398C841.972 24.3491 881.62 27.591 919.959 36.1722C959.328 44.9844 996.209 59.1972 1029.57 78.4154C1049.13 89.6786 1067.47 102.425 1084.09 116.304C1100.7 130.183 1115.75 145.319 1128.81 161.291C1141.99 177.409 1153.27 194.537 1162.33 212.194C1171.55 230.164 1178.58 248.881 1183.22 267.824C1201.58 342.774 1184.52 418.154 1168.02 491.05L1167.62 492.868Z" fill="#426E97"/>
<path d="M1190.87 506.643L1189.95 506.496C1204.81 432.632 1220.19 356.253 1199.69 280.721C1178.84 203.892 1121.84 135.589 1039.19 88.3917C983.369 56.5128 919.68 39.3282 855.514 36.5087C765.371 32.5496 674.266 56.9205 602.482 108.686C537.738 155.372 495.011 214.637 450.775 289.258C449.346 291.67 447.897 294.131 446.426 296.633C423.169 336.194 394.224 385.432 342.609 392.67C335.112 393.721 327.279 394.07 319.059 393.709C302.964 393.002 285.382 389.578 265.888 383.382C240.307 375.252 215.035 363.508 192.74 353.148C187.903 350.901 183.337 348.779 178.814 346.711C138.424 328.257 96.0146 307.658 55.0038 287.738C16.1562 268.868 -24.013 249.358 -62.5626 231.616C-135.435 198.081 -235.237 152.152 -330.68 173.897C-409.823 191.929 -454.656 253.317 -494.21 307.476L-496.144 310.124L-496.93 309.67L-494.996 307.022C-474.638 279.147 -453.588 250.321 -427.587 226.05C-413.518 212.916 -399.393 202.387 -384.408 193.862C-367.709 184.362 -349.71 177.372 -330.911 173.089C-289.161 163.577 -243.639 165.873 -191.737 180.111C-147.622 192.212 -105.259 211.029 -62.1322 230.874C-23.5716 248.619 16.6032 268.131 55.4535 287.003C96.4616 306.921 138.863 327.517 179.245 345.967C183.77 348.035 188.339 350.157 193.176 352.407C237.639 373.069 292.976 398.783 342.466 391.845C393.614 384.673 422.437 335.644 445.596 296.248C447.066 293.745 448.515 291.282 449.944 288.87C467.306 259.585 488.591 225.205 514.848 192.248C541.863 158.336 570.336 130.792 601.891 108.037C632.014 86.3139 666.135 69.0752 703.299 56.7977C739.476 44.8468 777.645 37.8767 816.743 36.0814C855.806 34.286 894.656 37.7097 932.213 46.2541C970.732 55.0171 1006.9 68.9598 1039.7 87.6917C1059.86 99.2079 1078.83 112.232 1096.07 126.401C1113.29 140.555 1128.96 155.981 1142.62 172.254C1156.4 188.658 1168.28 206.081 1177.94 224.036C1187.75 242.289 1195.38 261.296 1200.59 280.527C1221.14 356.231 1205.75 432.696 1190.87 506.643Z" fill="#426E97"/>
<path d="M1214.12 520.422L1213.25 520.299C1226.32 446.317 1239.83 369.815 1217.11 293.426C1193.86 215.259 1134.28 145.722 1049.34 97.624C993.971 66.2732 930.483 49.3292 866.454 46.5171C778.843 42.671 690.207 65.2711 619.876 113.605C552.807 159.697 508.17 219.058 461.785 294.008C460.438 296.184 459.075 298.399 457.693 300.649C433.328 340.284 403.004 389.61 350.484 395.087C328.962 397.332 304.819 393.79 276.672 384.261C252.175 375.967 227.918 364.247 206.518 353.907C201.336 351.405 196.443 349.04 191.604 346.748C154.365 329.107 114.894 309.444 76.7221 290.425C37.1406 270.706 -3.78473 250.316 -42.762 231.903C-129.709 190.829 -222.207 152.606 -313.133 175.074C-395.152 195.338 -442.208 259.347 -483.727 315.82C-485.372 318.06 -487.013 320.29 -488.647 322.507L-489.386 322.075C-487.75 319.855 -486.111 317.625 -484.466 315.387C-463.146 286.387 -441.102 256.399 -413.929 230.886C-399.219 217.076 -384.49 205.941 -368.901 196.844C-351.517 186.703 -332.834 179.121 -313.368 174.313C-270.955 163.833 -224.997 165.572 -172.864 179.63C-126.991 191.998 -83.232 211.892 -42.3453 231.208C-3.35981 249.623 37.571 270.018 77.1553 289.74C115.321 308.754 154.79 328.417 192.02 346.053C196.863 348.347 201.758 350.712 206.94 353.215C249.452 373.752 302.36 399.314 350.382 394.304C402.45 388.873 432.65 339.746 456.917 300.268C458.3 298.019 459.665 295.801 461.009 293.625C479.212 264.212 501.504 229.712 528.799 196.844C556.979 162.912 586.594 135.481 619.335 112.979C649.406 92.3141 683.218 76.0112 719.828 64.527C755.488 53.3399 793.003 46.9592 831.326 45.5617C869.603 44.1667 907.661 47.7795 944.45 56.2994C982.128 65.0255 1017.58 78.703 1049.81 96.956C1070.59 108.72 1090.18 122.019 1108.05 136.48C1125.87 150.904 1142.15 166.625 1156.43 183.203C1170.79 199.889 1183.28 217.607 1193.53 235.87C1203.94 254.405 1212.16 273.702 1217.97 293.22C1223.38 311.426 1226.9 330.055 1228.73 350.167C1230.36 368.078 1230.6 386.727 1229.45 407.176C1227.29 445.926 1220.29 485.505 1214.12 520.422Z" fill="#426E97"/>
<path d="M1237.38 534.199L1236.55 534.099C1247.32 463.486 1259.52 383.453 1234.54 306.131C1208.83 226.578 1146.67 155.811 1059.49 106.861C931.319 34.8975 757.698 39.6965 637.273 118.532C560.262 168.946 511.995 237.996 472.797 298.763C471.525 300.735 470.239 302.741 468.934 304.775C456.321 324.435 442.028 346.718 424.242 364.512C403.666 385.098 382.119 395.895 358.362 397.513C337.533 398.933 314.369 394.92 287.543 385.241C264.15 376.802 240.931 365.119 220.444 354.811C214.867 352.004 209.6 349.354 204.393 346.794C170.766 330.263 134.81 311.863 100.035 294.069C59.1815 273.164 16.9373 251.546 -22.9588 232.203C-109.462 190.259 -201.767 151.393 -295.587 176.262C-380.597 198.796 -429.911 265.56 -473.421 324.462C-475.96 327.898 -478.584 331.449 -481.147 334.903L-481.842 334.495C-479.279 331.042 -476.655 327.49 -474.117 324.057C-451.813 293.863 -428.752 262.642 -400.386 235.837C-385.026 221.325 -369.679 209.563 -353.465 199.882C-335.378 189.083 -315.986 180.897 -295.827 175.552C-252.736 164.13 -206.339 165.316 -153.982 179.178C-106.424 191.769 -61.2104 212.815 -22.5615 231.554C17.3429 250.902 59.5926 272.523 100.449 293.431C135.218 311.224 171.174 329.622 204.793 346.151C210.002 348.713 215.273 351.363 220.849 354.17C263.493 375.625 311.825 399.947 358.293 396.779C411.265 393.169 442.837 343.955 468.203 304.411C469.508 302.378 470.796 300.369 472.068 298.397C491.162 268.797 514.486 234.133 542.727 201.441C572.078 167.467 602.841 140.152 636.774 117.94C666.759 98.3113 700.248 82.9294 736.306 72.2262C771.439 61.798 808.303 56.0068 845.87 55.0145C883.36 54.0248 920.641 57.834 956.676 66.3391C993.518 75.0334 1028.26 88.4579 1059.93 106.239C1081.31 118.247 1101.53 131.819 1120.03 146.574C1138.45 161.268 1155.33 177.281 1170.22 194.169C1185.17 211.135 1198.26 229.152 1209.11 247.722C1220.11 266.537 1228.93 286.121 1235.33 305.932C1246.36 340.058 1251.11 377.443 1249.86 420.226C1248.7 459.928 1242.42 501.11 1237.38 534.199Z" fill="#426E97"/>
<path d="M1062.49 547.98L1061.8 547.901C1069.89 477.247 1079.06 397.167 1054.78 318.838C1029.66 237.859 972.03 165.856 892.485 116.098C842.761 84.9926 786.266 68.0978 729.451 65.293C656.749 61.7073 583.508 81.1784 523.128 123.453C452.542 172.871 407.615 242.307 371.042 303.513C369.967 305.313 368.879 307.142 367.776 308.997C356.09 328.645 342.845 350.913 326.481 368.51C307.533 388.885 287.88 399.164 266.397 399.93C248.503 400.569 228.776 396.116 206.088 386.314C186.263 377.75 167.391 366.614 149.141 355.847C143.784 352.686 138.722 349.7 133.724 346.831C107.457 331.759 79.1568 315.019 51.7872 298.831C13.7536 276.337 -25.5768 253.074 -62.3971 232.488C-135.625 191.548 -220.961 150.155 -307.073 177.436C-385.479 202.276 -431.413 271.892 -471.937 333.314C-474.975 337.919 -478.116 342.678 -481.179 347.283L-481.756 346.898C-478.691 342.295 -475.552 337.535 -472.514 332.93C-451.771 301.491 -430.323 268.984 -403.992 240.853C-389.732 225.616 -375.507 213.213 -360.511 202.934C-343.773 191.463 -325.864 182.663 -307.282 176.776C-268.31 164.429 -226.617 165.065 -179.821 178.718C-138.15 190.878 -98.596 211.454 -62.0581 231.883C-25.228 252.474 14.1048 275.738 52.1409 298.235C79.5081 314.422 107.806 331.16 134.07 346.23C139.073 349.101 144.135 352.087 149.494 355.248C185.573 376.534 226.465 400.657 266.373 399.235C314.314 397.523 343.626 348.239 367.179 308.638C368.282 306.784 369.37 304.954 370.448 303.151C388.279 273.311 409.997 238.433 435.883 206.002C463.054 171.962 491.46 144.772 522.732 122.881C549.321 104.267 578.827 89.794 610.436 79.862C641.229 70.1878 673.464 64.986 706.247 64.4015C738.919 63.8194 771.414 67.835 802.831 76.3352C834.885 85.0073 865.172 98.1862 892.859 115.506C912.438 127.754 930.995 141.596 948.018 156.649C964.935 171.608 980.506 187.916 994.301 205.115C1008.13 222.361 1020.31 240.678 1030.51 259.558C1040.82 278.65 1049.21 298.524 1055.44 318.627C1066.06 352.873 1071.17 390.371 1071.07 433.263C1070.97 470.854 1066.96 508.976 1062.49 547.98Z" fill="#426E97"/>
<path d="M1083.19 561.761L1082.54 561.699C1090.27 479.22 1094.68 404.972 1070.28 331.54C1042.89 249.083 982.954 175.852 901.518 125.335C851.88 94.5439 795.25 77.767 738.334 74.9598C668.014 71.4919 597.252 89.3299 538.613 128.378C466.136 176.641 419.173 246.538 380.844 308.265C378.801 311.556 376.74 314.933 374.559 318.511C362.601 338.122 349.046 360.349 332.586 377.114C314.778 395.249 296.736 403.651 277.567 402.708C276.174 402.639 274.779 402.521 273.377 402.354C253.722 400.016 232.143 393.174 207.409 381.436C185.892 371.227 164.955 358.728 146.481 347.698L145.113 346.881C122.994 333.677 100.104 319.725 75.8731 304.949C35.5751 280.382 -6.09824 254.977 -44.7655 232.787C-100.944 200.552 -160.143 172.055 -220.374 169.083C-243.949 167.919 -267.672 170.665 -291.451 178.625C-372.654 205.806 -420.649 278.353 -462.992 342.359C-466.775 348.077 -470.687 353.988 -474.496 359.679L-475.034 359.318C-471.225 353.63 -467.315 347.718 -463.533 342.003C-441.886 309.282 -419.502 275.445 -392.073 245.956C-377.217 229.982 -362.422 216.924 -346.846 206.034C-329.46 193.879 -310.89 184.451 -291.655 178.011C-270.933 171.075 -249.033 167.772 -226.561 168.197C-206.152 168.58 -185.354 171.878 -162.973 178.279C-119.909 190.596 -78.8867 212.461 -44.4388 232.227C-5.76178 254.42 35.9116 279.827 76.2145 304.397C100.445 319.169 123.333 333.122 145.449 346.323L146.817 347.141C183.635 369.12 229.457 396.474 273.461 401.708C293.99 404.154 313.182 395.956 332.134 376.657C348.545 359.946 362.078 337.752 374.019 318.172C376.2 314.594 378.261 311.215 380.306 307.921C399.024 277.781 421.734 242.641 448.266 210.558C476.491 176.429 505.928 149.372 538.266 127.837C564.727 110.216 593.927 96.634 625.051 87.4657C655.356 78.5382 687.019 73.9258 719.153 73.7564C751.128 73.5869 782.94 77.8137 813.711 86.3237C845.025 94.9811 874.684 107.922 901.867 124.785C921.987 137.266 941.104 151.378 958.689 166.728C976.127 181.95 992.238 198.553 1006.58 216.072C1020.92 233.595 1033.64 252.214 1044.37 271.408C1055.2 290.776 1064.13 310.939 1070.91 331.334C1082.33 365.711 1088.32 403.319 1089.23 446.314C1090.03 484.844 1086.83 522.909 1083.19 561.761Z" fill="#426E97"/>
<path d="M1103.89 575.542L1103.29 575.497C1109.32 493.047 1112.17 418.736 1085.79 344.243C1056.05 260.258 993.82 185.794 910.547 134.57C859.992 103.469 803.234 86.5034 746.383 83.6986C679.074 80.3781 611.627 96.8972 554.095 133.298C479.87 180.261 432.649 247.831 390.641 313.013C388.647 316.107 386.636 319.28 384.504 322.64C372.059 342.264 357.952 364.508 340.942 381.105C323.254 398.361 305.524 406.375 286.947 405.459C284.773 405.351 282.587 405.122 280.389 404.771C261.805 401.802 241.538 394.709 218.432 383.082C198.268 372.939 178.492 360.622 161.042 349.757C159.512 348.804 157.994 347.858 156.489 346.923C139.039 336.074 120.963 324.689 101.826 312.637C58.6272 285.427 13.9575 257.293 -27.1486 233.082C-82.2563 200.626 -140.5 172.004 -200.766 169.032C-225.48 167.814 -250.524 170.904 -275.85 179.809C-359.892 209.367 -409.972 284.901 -454.158 351.545C-458.658 358.331 -463.309 365.348 -467.836 372.067L-468.332 371.733C-463.805 365.014 -459.362 358.311 -454.657 351.213C-432.091 317.18 -408.759 281.986 -380.22 251.114C-364.76 234.389 -349.388 220.665 -333.227 209.156C-315.183 196.306 -295.945 186.241 -276.047 179.244C-255.033 171.854 -232.892 168.173 -210.238 168.3C-189.878 168.416 -168.31 171.623 -146.132 177.835C-101.587 190.309 -58.9832 213.636 -26.8416 232.566C14.2743 256.783 58.9465 284.919 102.15 312.131C121.285 324.183 139.358 335.566 156.808 346.414C158.314 347.35 159.832 348.296 161.362 349.248C197.71 371.883 238.91 397.538 280.485 404.179C301.27 407.5 320.911 399.813 340.524 380.678C357.488 364.129 371.573 341.917 384 322.323C386.132 318.964 388.144 315.79 390.14 312.693C410.788 280.655 433.614 246.659 460.613 215.092C489.895 180.855 520.37 153.935 553.778 132.796C580.092 116.147 608.975 103.44 639.621 95.0257C669.429 86.8423 700.519 82.8194 732.023 83.0674C763.297 83.313 794.434 87.7633 824.574 96.2881C855.149 104.938 884.181 117.648 910.866 134.064C931.526 146.774 951.203 161.153 969.348 176.805C987.301 192.291 1003.95 209.188 1018.84 227.026C1033.69 244.824 1046.94 263.745 1058.22 283.261C1069.57 302.904 1079.03 323.355 1086.36 344.047C1098.58 378.561 1105.45 416.282 1107.36 459.371C1109.11 498.821 1106.6 538.392 1103.89 575.542Z" fill="#426E97"/>
<path d="M1124.58 589.324L1124.03 589.295C1128.24 509.939 1129.67 432.455 1101.3 356.943C1069.16 271.376 1004.63 195.682 919.582 143.804C868.878 112.875 811.769 95.9438 754.677 93.1292C689.863 89.9315 625.064 104.908 569.588 138.219C493.778 183.736 444.462 251.873 400.448 317.762C398.515 320.655 396.568 323.612 394.504 326.744C381.571 346.377 366.914 368.628 349.344 385.061C331.746 401.519 314.272 409.169 296.186 408.278C293.278 408.136 290.358 407.77 287.416 407.188C248.35 399.439 210.025 374.442 176.21 352.387C173.398 350.552 170.621 348.74 167.88 346.964C155.681 339.053 143.126 330.86 129.834 322.188C85.2452 293.092 34.7057 260.112 -9.51455 233.377C-83.0422 188.918 -170.331 147.927 -260.23 180.993C-347.146 212.96 -399.333 291.527 -445.376 360.848C-450.806 369.024 -455.936 376.748 -461.153 384.455L-461.61 384.145C-456.393 376.441 -451.265 368.719 -445.835 360.543C-422.341 325.174 -398.049 288.6 -368.39 256.328C-352.32 238.841 -336.366 224.442 -319.614 212.304C-300.906 198.749 -280.991 188.041 -260.419 180.474C-170.299 147.328 -82.8679 188.378 -9.22722 232.902C35.0004 259.643 85.5448 292.625 130.138 321.724C143.43 330.398 155.985 338.589 168.184 346.5C170.925 348.278 173.703 350.088 176.517 351.923C210.29 373.95 248.569 398.916 287.529 406.642C308.589 410.82 328.686 403.629 348.973 384.654C366.494 368.265 381.134 346.043 394.048 326.437C396.111 323.305 398.058 320.346 399.994 317.453C421.692 284.97 445.552 250.63 472.966 219.586C503.315 185.217 534.83 158.444 569.31 137.742C621.087 106.654 681.805 90.9483 744.894 92.3212C775.467 92.9867 805.933 97.663 835.45 106.22C865.283 114.87 893.689 127.354 919.879 143.33C962.344 169.233 999.77 201.073 1031.11 237.964C1046.47 256.038 1060.25 275.264 1072.07 295.103C1083.93 315.016 1093.95 335.755 1101.83 356.744C1130.22 432.359 1128.79 509.907 1124.58 589.324Z" fill="#426E97"/>
<path d="M1144.78 603.09C1147.41 523.828 1147.24 446.329 1116.81 369.643C1082.21 282.437 1015.37 205.513 928.613 153.041C877.609 122.193 820.011 105.252 762.59 102.418C700.362 99.3477 638.338 112.836 585.075 143.138C507.783 187.108 458.274 253.073 410.247 322.509C409.267 323.927 408.273 325.366 407.271 326.822C393.78 346.387 378.489 368.559 360.03 385.248C340.426 402.97 320.817 411.151 300.273 410.137C298.345 410.041 296.409 409.867 294.462 409.609C279.299 407.607 263.19 401.728 245.209 391.631C229.38 382.743 214.259 371.878 199.633 361.371C192.562 356.292 185.885 351.493 179.261 347.006C173.042 342.794 166.649 338.456 160.119 334.026C111.453 301.007 56.2915 263.585 8.10728 233.669C-42.8989 201.999 -100.797 172.161 -162.585 169.113C-189.286 167.796 -216.705 171.478 -244.625 182.174C-334.436 216.582 -388.748 298.222 -436.667 370.249C-442.802 379.471 -448.598 388.183 -454.485 396.838L-454.902 396.553C-449.015 387.9 -443.222 379.189 -437.087 369.969C-412.657 333.247 -387.394 295.272 -356.604 261.581C-339.92 243.326 -323.376 228.241 -306.027 215.467C-286.649 201.2 -266.051 189.839 -244.804 181.7C-223.189 173.418 -200.557 168.985 -177.534 168.523C-156.693 168.103 -134.768 170.933 -112.374 176.93C-92.4437 182.267 -72.086 190.011 -50.1392 200.604C-32.1367 209.293 -12.9971 219.967 8.37495 233.236C56.569 263.16 111.733 300.585 160.404 333.606C166.934 338.036 173.327 342.374 179.546 346.586C186.174 351.075 192.855 355.877 199.928 360.958C228.43 381.436 260.734 404.645 294.526 409.105C317.045 412.075 338.36 404.152 359.688 384.87C378.106 368.221 393.377 346.072 406.853 326.532C407.858 325.076 408.85 323.637 409.83 322.22C431.092 291.478 456.211 256.006 485.288 224.058C516.71 189.534 549.267 162.921 584.822 142.696C636.111 113.519 695.902 99.2887 757.734 101.541C787.599 102.629 817.398 107.541 846.305 116.139C875.394 124.792 903.174 137.062 928.873 152.606C972.344 178.897 1010.86 211.299 1043.37 248.911C1059.22 267.257 1073.53 286.787 1085.9 306.956C1098.28 327.137 1108.83 348.162 1117.28 369.453C1131.1 404.275 1139.72 442.227 1143.64 485.48C1147.2 524.891 1146.53 565.305 1145.28 603.105L1144.78 603.09Z" fill="#426E97"/>
<path d="M1165.52 616.886C1166.55 540.897 1164.85 460.195 1132.32 382.343C1095.18 293.44 1026.04 215.286 937.644 162.275C831.606 98.6896 702.445 93.2422 600.563 148.058C521.907 190.377 472.276 254.25 420.049 327.257C419.06 328.64 418.06 330.042 417.046 331.462C403.108 351.004 387.308 373.152 368.331 389.595C349.078 406.274 329.976 413.986 310.193 413.011C307.304 412.868 304.401 412.542 301.481 412.028C286.988 409.486 271.746 403.322 254.886 393.181C240.017 384.239 225.834 373.449 212.117 363.016C204.676 357.355 197.646 352.011 190.649 347.05C143.615 313.715 79.1986 268.06 25.7389 233.964C-42.5673 190.397 -133.253 145.273 -229.012 183.36C-321.736 220.242 -378.192 304.981 -428.002 379.747C-434.825 389.986 -441.267 399.657 -447.807 409.231L-448.185 408.973C-441.647 399.402 -435.203 389.733 -428.383 379.494C-403.005 341.404 -376.765 302.014 -344.834 266.891C-327.532 247.857 -310.396 232.082 -292.445 218.668C-272.395 203.681 -251.109 191.659 -229.179 182.938C-207.254 174.216 -184.369 169.41 -161.16 168.651C-140.07 167.961 -117.967 170.594 -95.4646 176.476C-58.5559 186.126 -19.9647 204.273 25.987 233.583C79.4565 267.687 143.877 313.344 190.917 346.682C197.922 351.645 204.953 356.994 212.397 362.658C239.055 382.937 269.271 405.92 301.565 411.584C324.337 415.577 346.082 408.276 368.034 389.256C386.97 372.85 402.752 350.724 416.677 331.204C417.689 329.784 418.691 328.379 419.681 326.997C443.096 294.266 468.401 259.702 497.615 228.511C530.115 193.813 563.72 167.367 600.349 147.66C626.113 133.798 654.005 123.628 683.254 117.431C711.232 111.503 740.309 109.233 769.68 110.682C769.98 110.697 770.277 110.712 770.579 110.726C829.297 113.774 887.148 131.465 937.882 161.887C982.345 188.55 1021.96 221.512 1055.63 259.86C1071.97 278.476 1086.82 298.313 1099.74 318.818C1112.62 339.262 1123.72 360.578 1132.75 382.168C1165.3 460.102 1167.01 540.858 1165.98 616.895L1165.52 616.886Z" fill="#426E97"/>
<path d="M1186.26 630.681C1185.84 554.84 1182.52 474.173 1147.83 395.04C1108.08 304.377 1036.64 224.992 946.677 171.51C842.353 109.496 715.668 102.396 616.053 152.975C529.82 196.76 474.391 271.749 429.853 332.002C428.847 333.365 427.827 334.748 426.793 336.15C412.404 355.673 396.093 377.802 376.6 393.994C357.713 409.68 339.107 416.945 320.056 416.005C316.224 415.816 312.381 415.295 308.505 414.445C294.658 411.405 280.254 404.977 264.464 394.792C250.524 385.801 237.261 375.083 224.436 364.716C216.685 358.453 209.366 352.537 202.038 347.092C158.704 314.899 95.1107 268.176 43.3678 234.256C-3.42635 203.581 -61.0269 172.247 -124.598 169.111C-153.142 167.703 -182.879 171.974 -213.399 184.542C-309.051 223.924 -367.668 311.789 -419.384 389.31C-426.877 400.542 -433.955 411.152 -441.132 421.614L-441.471 421.381C-434.297 410.921 -427.219 400.313 -419.728 389.082C-367.98 311.512 -309.326 223.59 -213.559 184.161C-191.32 175.005 -168.18 169.823 -144.779 168.764C-123.436 167.797 -101.15 170.231 -78.5406 175.997C-58.141 181.201 -37.5278 188.97 -15.527 199.749C3.13858 208.893 22.4771 220.068 43.5938 233.912C95.3466 267.837 158.947 314.565 202.283 346.763C209.619 352.213 216.943 358.132 224.697 364.399C250.774 385.477 277.741 407.271 308.596 414.045C331.599 419.094 353.759 412.431 376.34 393.677C395.796 377.517 412.089 355.41 426.467 335.905C427.498 334.505 428.52 333.12 429.527 331.757C456.216 295.649 480.69 263.288 509.926 232.913C543.515 198.02 578.169 171.751 615.871 152.606C641.423 139.631 668.979 130.279 697.776 124.807C725.509 119.536 754.325 117.871 783.417 119.856C840.45 123.746 896.977 141.486 946.89 171.154C992.336 198.168 1033.05 231.692 1067.89 270.791C1084.73 289.676 1100.09 309.822 1113.57 330.669C1126.96 351.373 1138.61 372.973 1148.21 394.873C1163.63 430.043 1173.99 468.229 1179.9 511.612C1185.52 552.959 1186.48 595.003 1186.68 630.676L1186.26 630.681Z" fill="#426E97"/>
<path d="M1207 644.474C1205.23 572.122 1200.25 488.194 1163.34 407.738C1120.9 315.245 1047.17 234.631 955.707 180.747C852.936 120.197 728.724 111.441 631.542 157.894C544.313 199.592 488.711 272.459 439.655 336.749C438.621 338.105 437.573 339.48 436.514 340.875C421.67 360.386 404.846 382.5 384.833 398.442C366.314 413.192 348.199 420.027 329.843 419.124C325.09 418.89 320.326 418.136 315.532 416.869C285.959 409.047 260.839 387.392 236.544 366.45C228.565 359.571 221.027 353.074 213.426 347.143C171.22 314.208 110.515 267.94 60.9969 234.558C18.0882 205.634 -40.2811 172.519 -106.087 169.275C-135.417 167.828 -166.21 172.308 -197.792 185.733C-296.378 227.642 -357.171 318.654 -410.808 398.95C-418.959 411.154 -426.659 422.68 -434.459 434.009L-434.759 433.803C-426.961 422.476 -419.261 410.952 -411.112 398.749C-357.449 318.41 -296.623 227.352 -197.936 185.399C-175.376 175.808 -151.975 170.255 -128.385 168.892C-106.785 167.644 -84.3147 169.874 -61.5967 175.518C-41.2463 180.575 -19.916 188.577 1.80243 199.3C20.7652 208.662 40.1922 220.097 61.1983 234.256C110.726 267.643 171.438 313.916 213.647 346.856C221.256 352.792 228.796 359.293 236.778 366.175C261.04 387.09 286.131 408.718 315.62 416.518C338.824 422.655 361.388 416.65 384.602 398.159C404.579 382.247 421.39 360.153 436.219 340.659C437.28 339.264 438.327 337.889 439.363 336.533C463.503 304.898 490.863 269.042 522.219 237.294C538.811 220.495 555.136 206.169 572.127 193.498C591.24 179.246 610.622 167.494 631.383 157.57C656.714 145.459 683.934 136.91 712.286 132.16C739.479 127.602 767.725 126.526 796.244 128.962C851.546 133.685 906.749 151.486 955.889 180.437C1002.31 207.785 1044.11 241.867 1080.15 281.733C1097.46 300.884 1113.35 321.34 1127.39 342.536C1141.28 363.495 1153.48 385.383 1163.67 407.59C1179.89 442.952 1191.12 481.255 1198.01 524.692C1204.71 566.94 1206.5 608.948 1207.37 644.469L1207 644.474Z" fill="#426E97"/>
<path d="M1227.75 658.264C1223.89 568.738 1214.09 494.034 1178.84 420.433C1133.64 326.044 1057.6 244.2 964.736 189.979C909.326 157.629 849.311 139.746 790.743 136.858C740.515 134.38 691.356 142.92 647.032 162.811C559.535 202.072 505.051 271.081 452.36 337.815L449.457 341.492C448.495 342.72 447.517 343.968 446.53 345.232C419.892 379.285 384.481 424.549 339.48 422.329C333.981 422.058 328.342 421.079 322.553 419.281C294.26 410.501 270.943 388.974 248.392 368.157C240.278 360.666 232.61 353.588 224.807 347.178C199.117 326.073 133.447 272.876 78.6188 234.843C-19.1397 167.025 -102.015 151.793 -182.191 186.907C-283.72 231.37 -346.704 325.543 -402.271 408.629C-411.068 421.783 -419.379 434.208 -427.788 446.383L-428.049 446.203C-419.639 434.031 -411.331 421.607 -402.533 408.452C-346.939 325.329 -283.931 231.117 -182.316 186.614C-159.429 176.591 -135.763 170.663 -111.976 168.995C-90.1132 167.462 -67.4542 169.484 -44.6281 175.002C-5.84299 184.382 34.5312 203.87 78.803 234.58C133.641 272.621 199.319 325.823 225.011 346.93C232.821 353.345 240.489 360.425 248.608 367.918C271.132 388.711 294.425 410.213 322.647 418.971C375.583 435.402 416.441 383.168 446.277 345.029C447.264 343.766 448.242 342.519 449.204 341.288L452.11 337.611C478.151 304.63 505.076 270.526 536.284 239.949C553.132 223.442 569.681 209.438 586.878 197.131C606.253 183.264 625.889 171.942 646.902 162.511C672.008 151.245 698.889 143.487 726.803 139.449C753.446 135.596 781.128 135.11 809.082 138.005C862.591 143.548 916.47 161.423 964.895 189.694C1057.82 243.947 1133.9 325.837 1179.13 420.283C1196.16 455.846 1208.26 494.27 1216.12 537.751C1223.97 581.141 1226.63 624.934 1228.06 658.24L1227.75 658.264Z" fill="#426E97"/>
<path d="M1248.49 672.057C1243.76 595.045 1233.92 512.798 1194.35 433.131C1145.86 336.305 1067.52 253.231 973.769 199.216C917.286 166.416 856.183 148.222 797.006 145.305C749.86 142.979 703.945 150.342 662.525 167.728C573.915 204.927 518.599 273.105 465.105 339.039C463.152 341.443 461.204 343.845 459.259 346.24C458.211 347.534 457.15 348.851 456.074 350.182C429.082 383.615 393.367 427.855 349.135 425.674C342.791 425.362 336.275 424.095 329.58 421.703C302.461 412.014 280.858 390.571 259.967 369.83C251.818 361.74 244.121 354.099 236.196 347.227C197.875 314.002 140.989 267.108 96.2481 235.143C0.697469 166.873 -85.2747 151.484 -166.583 188.096C-271.059 235.138 -336.246 332.486 -393.758 418.377C-403.191 432.467 -412.104 445.774 -421.115 458.776L-421.339 458.621C-412.328 445.622 -403.417 432.313 -393.984 418.225C-336.45 332.307 -271.24 234.924 -166.696 187.848C-143.477 177.392 -119.541 171.088 -95.558 169.111C-73.4245 167.286 -50.5715 169.094 -27.6374 174.484C11.9214 183.78 52.4945 203.551 96.4028 234.922C141.151 266.894 198.044 313.791 236.37 347.021C244.301 353.898 252.003 361.543 260.154 369.636C281.025 390.354 302.604 411.778 329.666 421.445C382.853 440.444 425.047 388.174 455.858 350.007C456.933 348.674 457.997 347.357 459.043 346.063C460.988 343.668 462.936 341.266 464.888 338.862C491.308 306.298 518.628 272.624 550.291 242.606C567.385 226.399 584.169 212.712 601.599 200.761C621.242 187.292 641.136 176.403 662.415 167.47C687.294 157.025 713.846 150.037 741.331 146.7C767.433 143.529 794.557 143.622 821.951 146.975C873.675 153.304 926.216 171.287 973.897 198.976C1022.15 226.778 1066.14 261.96 1104.64 303.542C1122.85 323.203 1139.78 344.304 1154.98 366.256C1169.81 387.687 1183.14 410.145 1194.59 433.003C1212.39 468.846 1225.34 507.398 1234.19 550.864C1241.24 585.54 1245.74 622.91 1248.76 672.035L1248.49 672.057Z" fill="#426E97"/>
<path d="M1269.24 685.847C1263.11 608.864 1251.68 526.505 1209.86 445.825C1158.85 347.413 1078.22 263.114 982.8 208.45C880.598 149.902 769.511 136.851 678.02 172.644C588.298 207.745 532.168 275.182 477.886 340.399C474.938 343.94 472.001 347.47 469.066 350.984C467.932 352.345 466.777 353.73 465.606 355.135C450.165 373.683 430.947 396.766 409.346 411.979C397.506 420.317 386.243 425.499 374.915 427.823C362.066 430.458 349.179 429.215 336.614 424.124C310.551 413.566 290.574 392.142 271.258 371.425C263.182 362.763 255.554 354.582 247.592 347.276C213.588 316.072 158.169 268.062 113.885 235.442C56.9374 193.493 2.87104 171.321 -49.3729 168.744C-83.9313 167.04 -117.684 173.902 -150.97 189.286C-258.393 238.932 -325.798 339.468 -385.268 428.171C-395.33 443.18 -404.834 457.356 -414.435 471.169L-414.619 471.041C-405.019 457.228 -395.514 443.055 -385.452 428.046C-325.965 339.318 -258.543 238.755 -151.064 189.082C-127.506 178.195 -103.297 171.515 -79.1102 169.223C-56.6968 167.101 -33.6497 168.69 -10.6026 173.946C10.46 178.75 32.176 186.769 53.941 197.781C73.4196 207.637 93.6325 220.249 114.017 235.262C158.306 267.885 213.736 315.905 247.741 347.111C255.709 354.423 263.342 362.608 271.42 371.273C290.721 391.972 310.679 413.379 336.698 423.918C360.324 433.489 384.044 429.522 409.218 411.797C430.794 396.604 450.003 373.533 465.434 354.992C466.603 353.588 467.757 352.202 468.894 350.842C471.829 347.327 474.767 343.798 477.714 340.256C504.506 308.068 532.212 274.782 564.322 245.295C581.659 229.373 598.674 215.995 616.338 204.396C636.248 191.32 656.397 180.867 677.936 172.441C702.575 162.801 728.79 156.585 755.853 153.966C781.371 151.498 807.923 152.193 834.772 156.034C860.191 159.672 886.011 166.138 911.514 175.26C935.863 183.967 959.883 195.07 982.908 208.261C1032.17 236.483 1077.26 272.228 1116.93 314.505C1135.63 334.436 1153.1 355.84 1168.85 378.121C1184.19 399.814 1198.05 422.559 1210.06 445.724C1228.72 481.724 1242.55 520.392 1252.35 563.934C1260.28 599.148 1265.55 636.745 1269.46 685.833L1269.24 685.847Z" fill="#426E97"/>
<path d="M1257.09 641.856C1122.4 493.086 946.228 394.21 761.028 363.444C726.725 357.746 693.044 355.236 660.327 355.872C582.136 357.392 509.362 376.856 446.093 413.618C422.543 427.302 399.756 445.749 377.718 463.59C341.463 492.941 303.974 523.29 260.339 535.374C230.982 543.503 198.165 541.607 160.014 529.573C126.735 519.076 93.569 502.173 64.3083 487.261C55.6582 482.852 47.4896 478.689 39.4438 474.737L35.4086 472.756C-60.1568 425.819 -158.974 377.286 -265.493 361.003C-331.564 350.904 -420.663 351.304 -469.923 410.565C-507.436 455.694 -503.882 518.805 -501.026 569.517L-502.006 569.571C-503.383 545.092 -505.1 514.628 -501.406 486.155C-497.347 454.859 -487.294 429.928 -470.677 409.936C-421.125 350.322 -331.665 349.892 -265.343 360.03C-158.677 376.335 -59.7884 424.903 35.8408 471.871L39.876 473.853C47.9292 477.808 56.1003 481.973 64.7528 486.381C125.615 517.401 194.597 552.556 260.076 534.423C303.515 522.394 340.922 492.109 377.099 462.821C399.166 444.958 421.983 426.485 445.6 412.763C492.018 385.791 543.53 367.997 598.706 359.875C650.381 352.269 705.046 353.141 761.188 362.469C808.122 370.267 855.24 382.682 901.234 399.37C946.056 415.634 990.305 436.132 1032.76 460.296C1074.46 484.033 1114.8 511.519 1152.65 541.988C1190.19 572.201 1225.57 605.578 1257.81 641.19L1257.09 641.856Z" fill="#426E97"/>
<path d="M1242.67 627.572C1112.2 482.341 943.87 386.432 768.691 357.51C737.895 352.453 707.463 350.233 677.676 350.813C599.492 352.333 525.635 373.108 460.443 412.372C437.043 426.465 414.342 445.324 392.388 463.562C355.774 493.98 317.912 525.434 273.675 538.242C244.099 546.732 211.344 544.718 173.539 532.087C140.596 521.082 108.081 503.438 79.3953 487.87C71.8947 483.8 64.8116 479.956 57.8071 476.265L56.3236 475.481C-37.0117 426.116 -133.522 375.068 -239.059 355.204C-291.745 345.287 -389.018 337.921 -448.553 400.004C-494.881 448.313 -501.352 514.949 -504.012 579.063L-504.946 579.024C-503.656 547.938 -501.382 514.871 -493.533 483.682C-484.779 448.9 -470.289 421.319 -449.229 399.358C-424.804 373.887 -391.523 357.621 -350.311 351.011C-317.103 345.684 -278.574 346.819 -238.887 354.288C-133.211 374.176 -36.6359 425.259 56.7608 474.659L58.2442 475.442C65.2512 479.134 72.3392 482.98 79.8398 487.052C139.643 519.505 207.427 556.289 273.414 537.346C317.463 524.592 355.248 493.201 391.788 462.845C413.77 444.585 436.497 425.703 459.957 411.574C505.511 384.138 555.716 365.59 609.179 356.442C660.767 347.615 714.484 347.666 768.838 356.591C813.78 364.011 858.951 376.045 903.09 392.361C945.827 408.158 988.115 428.149 1028.78 451.786C1068.42 474.831 1106.89 501.552 1143.12 531.203C1178.76 560.376 1212.49 592.588 1243.36 626.95L1242.67 627.572Z" fill="#426E97"/>
<path d="M1228.25 613.285C1102.05 471.609 941.561 378.666 776.356 351.574C670.861 334.456 563.765 355.604 474.794 411.122C451.582 425.608 429.012 444.855 407.183 463.469C370.183 495.022 331.924 527.65 287.011 541.106C275.851 544.451 264.281 546.242 252.207 546.477C232.119 546.868 210.634 542.948 187.287 534.689C154.753 523.177 122.953 504.777 94.8952 488.543C88.3991 484.783 82.264 481.234 76.1756 477.793L75.8637 477.614C-14.8167 426.006 -108.582 372.639 -212.62 349.401C-254.168 340.119 -358.249 325.442 -427.176 389.431C-483.153 441.397 -498.621 515.861 -506.999 588.588L-507.878 588.487C-504.366 557.989 -498.683 518.231 -485.808 481.199C-472.494 442.903 -453.512 412.675 -427.778 388.783C-401.27 364.173 -366.805 348.688 -325.343 342.755C-290.64 337.789 -251.597 339.788 -212.429 348.536C-108.26 371.804 -14.436 425.203 76.2984 476.842L76.6103 477.019C82.6988 480.46 88.8363 484.011 95.3349 487.772C151.054 520.011 220.399 560.135 286.755 540.254C331.489 526.851 369.677 494.285 406.608 462.792C428.459 444.156 451.057 424.888 474.325 410.368C519.049 382.461 567.95 363.164 619.671 353.016C671.067 342.932 723.83 342.153 776.496 350.697C819.456 357.744 862.677 369.397 904.957 385.337C945.616 400.667 985.939 420.155 1024.8 443.262C1062.4 465.611 1099 491.566 1133.6 520.402C1167.34 548.523 1199.41 579.572 1228.91 612.693L1228.25 613.285Z" fill="#426E97"/>
<path d="M1213.84 599.001C1091.95 460.893 939.304 370.915 784.021 345.638C683.006 329.453 578.282 352.264 489.147 409.872C466.139 424.743 443.708 444.347 422.017 463.305C384.617 495.994 345.942 529.793 300.352 543.967C289.091 547.467 277.459 549.338 265.371 549.574C245.219 549.967 223.783 545.814 200.594 537.088C168.347 524.95 137.2 505.668 109.72 488.656C104.464 485.401 99.4976 482.329 94.5488 479.313L90.2557 476.697C3.79477 424.033 -85.6109 369.576 -186.177 343.592C-215.273 336.074 -244.028 332.665 -271.351 333.196C-323.968 334.217 -371.307 349.84 -405.79 378.848C-474.167 436.367 -496.831 521.959 -509.983 598.097L-510.806 597.955C-502.354 549.029 -491.995 511.123 -478.202 478.66C-469.778 458.835 -459.844 440.68 -448.674 424.706C-436.421 407.183 -422.173 391.538 -406.327 378.207C-391.729 365.927 -374.957 355.931 -356.476 348.499C-339.301 341.593 -320.488 336.823 -300.555 334.328C-264.481 329.811 -224.856 332.734 -185.965 342.782C-161.779 349.032 -137.754 356.985 -112.524 367.098C-90.0759 376.095 -67.2032 386.599 -42.5941 399.21C3.07027 422.611 47.6147 449.743 90.6929 475.983L94.986 478.598C99.9373 481.614 104.903 484.689 110.162 487.943C164.911 521.836 233.045 564.015 300.106 543.166C345.527 529.044 384.135 495.304 421.472 462.671C443.185 443.694 465.64 424.07 488.7 409.167C532.635 380.771 580.237 360.737 630.182 349.619C681.287 338.245 733.093 336.627 784.161 344.808C864.799 357.933 944.43 388.19 1020.84 434.741C1056.38 456.394 1091.12 481.582 1124.09 509.608C1155.92 536.665 1186.33 566.552 1214.47 598.444L1213.84 599.001Z" fill="#426E97"/>
<path d="M1199.42 584.715C1081.91 450.192 937.106 363.179 791.684 339.702C770.548 336.359 749.119 334.92 727.631 335.337C650.911 336.828 573.21 361.97 503.495 408.624C480.718 423.866 459.444 442.905 436.92 463.064C399.095 496.915 359.981 531.918 313.685 546.833C283.464 556.569 250.959 554.187 214.316 539.546C182.503 526.839 152.117 506.742 125.31 489.009C121.022 486.173 116.97 483.493 112.915 480.841L106.524 476.66C23.6982 422.489 -61.9474 366.475 -159.738 337.793C-243.755 313.152 -327.745 324.546 -384.408 368.267C-465.647 430.954 -495.79 529.103 -512.972 607.607L-513.741 607.44C-502.043 553.997 -488.368 512.25 -470.704 476.059C-460.168 454.471 -448.025 434.754 -434.613 417.454C-419.971 398.567 -403.24 381.81 -384.887 367.646C-369.478 355.754 -352.055 346.134 -333.107 339.051C-315.33 332.405 -296.08 327.938 -275.892 325.774C-238.536 321.771 -198.292 325.666 -159.514 337.039C-115.616 349.914 -70.2929 369.449 -20.9593 396.755C22.9491 421.057 65.654 448.989 106.956 476.002L113.347 480.182C117.404 482.835 121.457 485.514 125.747 488.353C179.286 523.767 245.914 567.839 313.447 546.084C359.585 531.223 398.636 496.274 436.399 462.477C457.953 443.188 480.239 423.243 503.062 407.971C524.24 393.8 546.538 381.405 569.337 371.131C592.598 360.651 616.606 352.281 640.692 346.252C691.415 333.554 742.259 331.089 791.814 338.926C868.264 351.267 943.98 380.641 1016.86 426.227C1050.35 447.174 1083.22 471.596 1114.56 498.816C1144.47 524.796 1173.23 553.521 1200.02 584.196L1199.42 584.715Z" fill="#426E97"/>
<path d="M-515.963 617.109L-516.678 616.927C-509.713 589.798 -502.399 565.766 -494.319 543.456C-484.956 517.604 -474.806 494.68 -463.29 473.369C-450.653 449.986 -436.306 428.7 -420.649 410.098C-403.604 389.848 -384.359 372.013 -363.453 357.083C-347.273 345.53 -329.231 336.246 -309.827 329.49C-291.456 323.094 -271.766 318.926 -251.307 317.099C-212.736 313.653 -171.849 318.563 -133.068 331.29C-90.5231 345.252 -46.88 365.745 0.358629 393.942C42.4151 419.045 83.1847 447.682 122.611 475.376C125.644 477.505 128.675 479.635 131.703 481.761C134.938 484.031 138.152 486.305 141.554 488.712C193.793 525.665 258.808 571.653 326.78 548.997C373.67 533.367 413.19 497.18 451.408 462.187C473.755 441.724 494.864 422.395 517.42 406.77C538.058 392.471 559.665 379.86 581.642 369.284C604.455 358.303 627.861 349.427 651.208 342.902C701.47 328.854 751.349 325.533 799.459 333.039C871.764 344.606 943.565 373.093 1012.88 417.709C1044.31 437.946 1075.32 461.605 1105.03 488.024C1133.01 512.908 1160.1 540.472 1185.56 569.949L1185.01 570.43C1071.94 439.513 934.971 355.467 799.344 333.768C780.659 330.853 761.639 329.6 742.47 329.973C667.02 331.44 589.039 358.05 517.837 407.377C495.323 422.975 474.234 442.286 451.904 462.732C413.629 497.78 374.051 534.018 327.014 549.697C296.611 559.83 264.268 557.308 228.138 541.985C196.804 528.696 167.226 507.773 141.129 489.316C137.725 486.909 134.513 484.635 131.281 482.366C128.25 480.239 125.219 478.109 122.186 475.98C43.1716 420.479 -38.5321 363.09 -133.299 331.99C-216.422 304.711 -302.301 314.316 -363.026 357.682C-456.722 424.598 -493.975 531.476 -515.963 617.109Z" fill="#426E97"/>
<path d="M-518.95 626.609L-519.61 626.417C-501.659 564.16 -480.83 513.188 -455.936 470.589C-441.205 445.378 -424.656 422.518 -406.752 402.641C-387.288 381.034 -365.509 362.152 -342.015 346.522C-325.093 335.264 -306.444 326.287 -286.59 319.84C-267.63 313.685 -247.5 309.812 -226.757 308.324C-187.021 305.475 -145.478 311.428 -106.617 325.54C-65.4888 340.473 -23.5748 361.828 21.5223 390.821C61.6827 416.643 100.463 445.909 137.964 474.209C141.999 477.255 146.034 480.3 150.069 483.341C152.55 485.21 155.062 487.111 157.604 489.036C208.461 527.544 271.754 575.463 340.129 551.91C387.807 535.484 427.825 498.02 466.527 461.792C488.646 441.085 509.539 421.526 531.79 405.569C551.934 391.123 572.857 378.29 593.976 367.425C616.363 355.909 639.169 346.51 661.762 339.488C711.535 324.018 760.439 319.864 807.12 327.151C875.281 337.788 943.177 365.35 1008.92 409.066C1065.86 446.926 1120.43 496.259 1171.12 555.697L1170.6 556.144C1093.6 465.856 968.022 352.959 807.014 327.832C790.49 325.253 773.603 324.145 756.499 324.479C682.797 325.911 604.834 354.037 532.193 406.129C509.979 422.061 489.1 441.603 466.998 462.295C428.245 498.573 388.173 536.088 340.355 552.56C328.473 556.655 316.743 558.605 305.212 558.828C250.058 559.901 199.364 521.514 157.192 489.586C154.65 487.661 152.137 485.76 149.659 483.891C145.624 480.85 141.589 477.807 137.553 474.759C62.4368 418.07 -15.2391 359.45 -106.848 326.186C-189.227 296.275 -276.997 304.09 -341.631 347.092C-448.904 418.468 -494.205 540.799 -518.95 626.609Z" fill="#426E97"/>
<path d="M-521.936 636.104L-522.545 635.912C-501.343 568.63 -477.168 513.616 -448.639 467.718C-431.813 440.651 -413.067 416.211 -392.918 395.08C-371.022 372.116 -346.683 352.227 -320.581 335.961C-302.93 324.963 -283.687 316.269 -263.388 310.117C-243.844 304.195 -223.267 300.61 -202.232 299.465C-161.369 297.238 -119.162 304.267 -80.1684 319.791C-40.4746 335.595 -0.296904 357.726 42.656 387.449C80.918 413.924 117.694 443.767 153.259 472.625C158.316 476.729 163.371 480.831 168.428 484.923C170.226 486.376 172.043 487.85 173.878 489.338C214.733 522.482 263.865 562.338 318.528 561.275C329.946 561.054 341.595 559.049 353.472 554.825C401.983 537.572 442.537 498.787 481.754 461.276C503.608 440.373 524.25 420.632 546.158 404.368C587.544 373.649 629.988 350.702 672.313 336.17C721.474 319.29 769.405 314.275 814.773 321.262C847.988 326.378 881.47 336.079 914.29 350.1C944.675 363.08 975.179 380.051 1004.95 400.539C1057.32 436.586 1108.37 483.994 1156.67 541.445L1156.18 541.855C1082.44 454.146 963.333 344.788 814.674 321.891C799.108 319.494 783.719 318.556 768.62 318.848C679.904 320.572 600.59 364.75 546.536 404.877C524.66 421.116 504.032 440.845 482.194 461.733C442.927 499.288 402.325 538.122 353.686 555.419C342.194 559.506 330.531 561.672 318.607 561.903C298.662 562.291 277.985 557.274 256.119 546.811C225.881 532.34 198.04 509.755 173.475 489.827C171.643 488.339 169.825 486.868 168.027 485.411C162.97 481.32 157.916 477.218 152.859 473.114C81.645 415.329 8.00926 355.577 -80.4042 320.378C-162.15 287.831 -251.811 293.858 -320.242 336.497C-439.894 411.056 -492.658 543.196 -521.936 636.104Z" fill="#426E97"/>
<path d="M-524.923 645.596L-525.48 645.407C-500.984 572.965 -473.477 513.874 -441.387 464.759C-422.468 435.805 -401.524 409.784 -379.137 387.419C-354.798 363.105 -327.885 342.241 -299.15 325.405C-280.777 314.641 -260.945 306.207 -240.204 300.335C-220.074 294.637 -199.049 291.338 -177.711 290.53C-135.758 288.939 -92.8807 297.073 -53.7223 314.042C-15.4357 330.632 23.035 353.48 63.8881 383.888C100.284 410.98 135.083 441.368 168.735 470.756C174.649 475.921 180.767 481.263 186.789 486.497C187.98 487.531 189.176 488.575 190.382 489.623C238.22 531.252 297.756 583.062 366.816 557.733C416.211 539.615 457.336 499.452 497.109 460.613C518.655 439.572 539.006 419.699 560.523 403.162C601.425 371.733 642.59 348.082 682.876 332.869C731.36 314.562 778.311 308.675 822.425 315.373C853.725 320.125 885.257 329.446 916.149 343.076C944.516 355.595 973.052 372.06 1000.97 392.015C1048.74 426.17 1096.27 471.653 1142.22 527.193L1141.76 527.568C1039.35 403.784 931.884 332.587 822.337 315.955C720.634 300.514 624.023 355.111 560.881 403.629C539.391 420.143 519.053 440.005 497.519 461.033C457.702 499.916 416.53 540.124 367.017 558.286C336.172 569.598 304.529 566.631 270.278 549.216C240.656 534.153 213.741 510.73 189.994 490.065C188.788 489.017 187.589 487.973 186.401 486.939C180.379 481.705 174.261 476.363 168.347 471.198C100.979 412.365 31.3166 351.53 -53.9581 314.579C-92.1881 298.014 -132.729 290.186 -172.448 290.958C-217.078 291.825 -260.675 303.542 -298.853 325.911C-399.222 384.72 -471.06 486.3 -524.923 645.596Z" fill="#426E97"/>
<path d="M-527.909 655.086L-528.418 654.905C-500.584 577.18 -469.756 513.984 -434.171 461.713C-413.16 430.849 -390.02 403.241 -365.396 379.661C-338.601 354.003 -309.102 332.196 -277.719 314.85C-258.624 304.296 -238.205 296.103 -217.024 290.496C-196.308 285.014 -174.83 281.996 -153.185 281.527C-131.735 281.067 -110.144 283.099 -89.0053 287.578C-67.7584 292.08 -46.9905 299.05 -27.2787 308.29C9.64969 325.6 46.47 349.121 85.292 380.196C119.877 407.883 152.746 438.811 184.529 468.72C191.281 475.074 198.263 481.644 205.145 488.074L207.112 489.911C253.319 533.097 310.826 586.844 380.159 560.646C430.495 541.624 472.242 500.022 512.616 459.788C533.804 438.674 553.818 418.729 574.893 401.961C666.6 328.996 752.459 297.884 830.083 309.486C859.479 313.88 889.064 322.822 918.013 336.062C944.373 348.119 970.947 364.078 996.993 383.5C1040.74 416.115 1083.52 458.459 1127.77 512.943L1127.35 513.285C1028.55 391.649 931.288 325.16 830.002 310.021C752.533 298.441 666.813 329.517 575.229 402.384C554.179 419.131 534.175 439.067 512.999 460.171C472.586 500.445 430.797 542.088 380.353 561.152C368.8 565.519 357.191 567.82 345.439 568.048C325.702 568.434 305.558 562.972 284.557 551.618C255.598 535.963 229.646 511.708 206.746 490.306L204.779 488.469C197.895 482.039 190.912 475.47 184.161 469.113C120.536 409.241 54.7443 347.333 -27.5071 308.776C-108.189 270.956 -201.628 273.402 -277.456 315.316C-387.001 375.874 -466.586 483.835 -527.909 655.086Z" fill="#426E97"/>
<path d="M-530.893 664.576L-531.353 664.404C-500.134 581.284 -465.996 513.96 -426.982 458.584C-403.874 425.782 -378.54 396.588 -351.684 371.809C-322.426 344.813 -290.328 322.097 -256.286 304.296C-236.468 293.932 -215.46 285.965 -193.839 280.616C-172.531 275.342 -150.597 272.599 -128.645 272.467C-106.725 272.334 -84.776 274.8 -63.4064 279.795C-41.7862 284.85 -20.7334 292.503 -0.830007 302.543C34.8114 320.523 70.0599 344.692 106.929 376.434C139.776 404.712 170.775 436.188 200.753 466.628C208.202 474.192 215.904 482.012 223.508 489.655L224.073 490.225C268.573 534.954 323.954 590.621 393.51 563.564C444.855 543.592 487.278 500.472 528.303 458.774C549.075 437.659 568.696 417.714 589.265 400.765C630.027 367.177 667.575 342.833 704.054 326.341C726.317 316.277 748.301 309.189 769.391 305.279C792.784 300.941 815.779 300.379 837.741 303.606C865.243 307.649 892.878 316.21 919.875 329.06C944.243 340.657 968.852 356.113 993.017 374.995C1014.24 391.578 1035.91 411.432 1057.42 434.007C1075.56 453.051 1093.85 474.212 1113.32 498.701L1112.94 499.008C1053.23 423.923 959.725 322.029 837.67 304.095C763.253 293.161 682.102 324.907 589.577 401.149C569.028 418.08 549.414 438.016 528.651 459.122C487.589 500.86 445.133 544.016 393.687 564.028C382.114 568.53 370.549 570.897 358.9 571.123C339.301 571.504 319.467 565.823 298.954 554.034C270.703 537.798 245.745 512.71 223.724 490.576L223.159 490.009C215.556 482.366 207.851 474.544 200.402 466.979C140.392 406.046 78.3416 343.037 -1.05102 302.987C-81.259 262.525 -176.589 263.18 -256.057 304.736C-374.65 366.742 -461.98 481.086 -530.893 664.576Z" fill="#426E97"/>
<path d="M-533.88 674.064L-534.292 673.902C-499.643 585.289 -462.202 513.807 -419.823 455.372C-394.617 420.614 -367.091 389.826 -338.007 363.861C-306.275 335.531 -271.572 311.939 -234.862 293.735C-214.318 283.548 -192.715 275.792 -170.657 270.686C-148.755 265.616 -126.359 263.146 -104.093 263.345C-81.7012 263.544 -59.3958 266.444 -37.7953 271.963C-15.8117 277.58 5.52112 285.932 25.6063 296.788C44.0582 306.762 61.8199 318.167 79.9108 331.661C96.0197 343.675 112.013 357.075 128.807 372.629C159.994 401.509 189.19 433.553 217.427 464.54C225.419 473.31 233.686 482.383 241.857 491.229C261.741 512.754 286.487 539.544 314.095 556.308C345.672 575.485 376.013 578.808 406.851 566.474C459.289 545.495 502.446 500.768 544.183 457.516C564.472 436.49 583.636 416.628 603.63 399.559C622.23 383.681 639.309 370.279 655.842 358.591C676.021 344.326 695.809 332.383 714.656 323.099C736.448 312.364 757.894 304.718 778.399 300.374C801.353 295.511 823.892 294.617 845.391 297.716C871.015 301.41 896.697 309.598 921.729 322.053C944.12 333.193 966.764 348.143 989.03 366.487C1008.5 382.529 1027.75 401.084 1047.88 423.215C1064.01 440.957 1080.22 460.414 1098.87 484.448L1098.52 484.718C1037.48 406.05 953.534 313.754 845.328 298.153C751.594 284.641 662.658 349.747 603.918 399.896C583.941 416.95 564.784 436.804 544.502 457.823C502.733 501.11 459.542 545.87 407.015 566.884C395.43 571.518 383.912 573.955 372.376 574.178C353.072 574.554 333.711 568.741 313.864 556.687C286.202 539.89 261.434 513.075 241.53 491.529C233.357 482.68 225.09 473.61 217.098 464.837C160.568 402.796 102.111 338.643 25.3926 297.178C-55.5522 253.427 -150.341 252.317 -234.668 294.133C-402.189 377.207 -485.664 550.753 -533.88 674.064Z" fill="#426E97"/>
<path d="M-536.864 683.551L-537.227 683.404C-519.296 639.098 -501.34 600.023 -482.336 563.944C-460.566 522.617 -437.131 484.984 -412.679 452.093C-385.37 415.359 -355.65 382.977 -324.346 355.84C-290.134 326.187 -252.818 301.74 -213.433 283.182C-192.152 273.154 -169.955 265.6 -147.458 260.727C-124.959 255.854 -102.096 253.649 -79.5103 254.177C-56.6474 254.71 -33.9859 258.047 -12.1545 264.094C10.1852 270.281 31.7882 279.346 52.0477 291.036C69.9004 301.337 87.004 313.069 104.333 326.906C119.762 339.225 135.014 352.937 150.956 368.823C180.555 398.322 208.023 430.962 234.585 462.526C242.965 472.483 251.629 482.781 260.216 492.804C298.274 537.235 350.395 598.085 420.202 569.384C473.826 547.337 517.793 500.894 560.314 455.979C580.038 435.144 598.669 415.464 618.005 398.354C646.026 373.558 683.541 342.232 725.286 319.875C746.589 308.464 767.495 300.256 787.423 295.479C809.924 290.083 832.004 288.855 853.052 291.825C876.804 295.177 900.539 302.992 923.591 315.049C944.022 325.737 964.701 340.181 985.054 357.979C1023.18 391.32 1055.34 431.615 1084.42 470.194L1084.11 470.43C1020.32 385.806 948.173 305.647 852.995 292.213C844.36 290.995 835.749 290.506 827.2 290.673C749.131 292.191 675.343 348.138 618.266 398.646C598.942 415.745 580.318 435.42 560.599 456.246C518.051 501.191 474.052 547.666 420.349 569.745C408.754 574.512 397.295 577.013 385.884 577.234C366.985 577.602 348.214 571.722 329.153 559.551C302.041 542.236 278.685 514.967 259.916 493.057C251.327 483.031 242.663 472.733 234.283 462.777C181.093 399.569 126.091 334.208 51.8512 291.375C7.54747 265.813 -41.6609 253.452 -91.6135 254.422C-132.415 255.216 -173.708 264.895 -213.266 283.536C-392.355 367.924 -483.721 552.246 -536.864 683.551Z" fill="#426E97"/>
<path d="M-539.848 693.039L-540.165 692.906C-520.605 646.004 -501.141 604.741 -480.663 566.759C-457.09 523.037 -431.818 483.331 -405.551 448.743C-376.138 410.015 -344.227 376.034 -310.706 347.74C-292.723 332.562 -273.846 318.652 -254.596 306.394C-234.54 293.622 -213.482 282.263 -192.007 272.631C-169.984 262.753 -147.185 255.388 -124.246 250.741C-101.14 246.06 -77.8107 244.119 -54.9036 244.972C-31.5692 245.841 -8.54907 249.618 13.5107 256.198C36.1992 262.964 58.0601 272.751 78.4841 285.289C95.907 295.985 112.507 308.133 129.23 322.422C144.118 335.144 158.758 349.283 173.983 365.642C202.252 396.018 228.202 429.545 253.3 461.966C261.554 472.63 270.091 483.658 278.562 494.383C295.366 515.49 318.379 544.4 344.638 562.061C373.943 581.77 403.025 585.12 433.54 572.302C488.434 549 533.323 500.732 576.732 454.056C595.791 433.563 613.793 414.205 632.368 397.158C663.635 368.459 697.82 338.857 735.908 316.741C756.703 304.665 777.066 295.897 796.429 290.678C818.466 284.739 840.089 283.145 860.697 285.945C902.13 291.736 941.5 312.543 981.053 349.558C1014.23 380.604 1042.04 417.599 1069.96 455.949L1069.69 456.151C1021.57 390.067 955.673 299.564 860.651 286.284C852.789 285.216 844.967 284.783 837.211 284.936C764.186 286.355 695.922 339.292 632.599 397.408C614.034 414.448 596.036 433.799 576.983 454.289C533.549 500.995 488.636 549.289 433.671 572.619C422.1 577.479 410.732 580.024 399.483 580.242C380.955 580.603 362.741 574.653 344.442 562.346C333.007 554.656 321.395 544.402 308.938 531.002C298.19 519.439 288.305 507.184 278.287 494.599C269.814 483.874 261.277 472.844 253.022 462.18C202.748 397.229 150.759 330.067 78.2975 285.584C-1.74594 236.447 -100.219 231.842 -191.875 272.95C-382.377 358.39 -481.707 553.619 -539.848 693.039Z" fill="#426E97"/>
<path d="M-542.832 702.524L-543.102 702.409C-521.897 652.879 -500.928 609.42 -478.996 569.549C-453.615 523.408 -426.511 481.614 -398.436 445.33C-366.919 404.592 -332.817 369.009 -297.08 339.567C-277.884 323.753 -257.752 309.321 -237.244 296.675C-215.862 283.489 -193.434 271.85 -170.584 262.078C-147.809 252.34 -124.403 245.153 -101.02 240.72C-77.3023 236.223 -53.4963 234.541 -30.265 235.717C-6.45902 236.923 16.9171 241.143 39.2078 248.258C62.2377 255.609 84.3466 266.133 104.923 279.532C121.778 290.511 137.747 302.943 153.738 317.537C167.973 330.529 181.894 344.946 196.293 361.607C223.027 392.54 247.292 426.607 270.759 459.552C279.296 471.535 288.121 483.928 296.913 495.95C316.608 522.767 336.244 548.226 359.902 564.993C388.097 584.978 416.55 588.318 446.889 575.208C503.246 550.719 549.127 500.42 593.495 451.779C611.77 431.743 629.033 412.817 646.743 395.947C670.89 372.944 707.382 338.182 746.57 313.521C767.139 300.578 786.403 291.501 805.467 285.776C827.028 279.299 848.189 277.374 868.358 280.053C904.962 285.002 939.466 303.891 973.843 337.799C1003.6 367.153 1028.64 403.101 1050.73 434.818C1052.34 437.134 1053.94 439.428 1055.52 441.695L1055.28 441.864C1053.7 439.597 1052.1 437.303 1050.48 434.987C1005.95 371.043 950.535 291.464 868.318 280.348C780.747 268.716 700.227 345.41 646.947 396.163C629.244 413.028 611.983 431.949 593.713 451.98C571.811 475.995 549.161 500.825 525.036 522.61C497.787 547.214 472.264 564.509 447.009 575.483C416.567 588.637 388.018 585.285 359.735 565.239C336.042 548.445 316.389 522.966 296.68 496.129C287.887 484.105 279.061 471.712 270.524 459.729C223.501 393.712 174.875 325.447 104.763 279.783C58.286 249.513 4.72065 234.75 -50.7726 235.828C-90.3044 236.597 -130.809 245.397 -170.466 262.353C-372.263 348.632 -479.629 554.887 -542.832 702.524Z" fill="#426E97"/>
<path d="M-545.816 712.009L-546.042 711.911C-523.179 659.728 -500.704 614.066 -477.333 572.317C-449.754 523.049 -421.621 480.376 -391.329 441.857C-374.93 421.003 -357.799 401.345 -340.413 383.423C-322.106 364.554 -302.945 347.026 -283.461 331.324C-263.049 314.877 -241.665 299.932 -219.9 286.908C-197.192 273.319 -173.391 261.414 -149.16 251.524C-125.624 241.916 -101.607 234.904 -77.7787 230.678C-60.491 227.612 -43.2253 226.001 -26.2298 225.864C-66.152 226.198 -107.533 234.796 -149.069 251.75C-362.026 338.68 -477.492 556.06 -545.816 712.009ZM426.521 586.397C408.818 586.741 391.779 580.67 375.019 568.132C352.004 550.918 332.781 523.88 315.063 497.659C306.091 484.382 297.122 470.663 288.45 457.393C244.559 390.246 199.172 320.813 131.222 273.979C87.23 243.657 37.4616 227.581 -15.0722 225.984C-11.9015 226.08 -8.74062 226.227 -5.59449 226.426C18.6855 227.966 42.4153 232.633 64.9368 240.288C88.2983 248.231 110.648 259.499 131.359 273.775C147.694 285.034 163.074 297.753 178.375 312.659C191.995 325.926 205.233 340.63 218.844 357.606C244.114 389.121 266.756 423.761 288.654 457.258C297.326 470.525 306.293 484.245 315.264 497.519C332.97 523.72 352.178 550.741 375.164 567.933C402.249 588.192 430.075 591.525 460.237 578.12C518.231 552.347 565.214 499.816 610.652 449.016C628.006 429.613 644.398 411.287 661.118 394.741L664.657 391.236C691.01 365.136 723.807 332.656 759.618 308.714C779.247 295.592 797.625 286.348 815.799 280.456C836.42 273.77 856.679 271.653 876.013 274.163C947.156 283.398 993.559 354.612 1030.84 411.832C1034.39 417.267 1037.73 422.403 1041.07 427.44L1040.86 427.575C1037.53 422.535 1034.18 417.4 1030.64 411.965C993.383 354.787 947.013 283.624 875.983 274.404C793.747 263.73 719.237 337.526 664.832 391.408L661.292 394.913C644.577 411.451 628.188 429.776 610.839 449.175C588.445 474.214 565.288 500.108 540.531 522.9C512.55 548.661 486.32 566.798 460.343 578.341C448.753 583.496 437.509 586.183 426.521 586.397Z" fill="#426E97"/>
</g>
</svg>
