<svg width="50" height="46" viewBox="0 0 50 46" fill="none" xmlns="http://www.w3.org/2000/svg">
<path d="M48.7441 10.3458H1.29053C1.29053 10.3458 1.29079 11.7621 1.29079 13.5093V41.9813L1.29082 45.1449H48.7441V41.9813V13.5093V10.3458Z" stroke="#13273A" stroke-width="1.5"/>
<path d="M10.7815 21.4182H39.2535" stroke="#214F7A" stroke-width="1.5"/>
<path d="M10.7815 34.0724H39.2535" stroke="#214F7A" stroke-width="1.5"/>
<path d="M32.0662 3.01687C31.856 2.38723 31.453 1.83967 30.9144 1.4517C30.3758 1.06373 29.7288 0.855016 29.065 0.855103H20.9705C20.3067 0.855016 19.6597 1.06373 19.1211 1.4517C18.5825 1.83967 18.1796 2.38723 17.9694 3.01687L15.5271 10.3458H34.5084L32.0662 3.01687Z" stroke="#13273A" stroke-width="1.5"/>
<path d="M7.61792 10.3458V7.18225" stroke="#214F7A" stroke-width="1.5"/>
<path d="M42.4172 10.3458V7.18225" stroke="#214F7A" stroke-width="1.5"/>
</svg>
