<svg width="56" height="58" viewBox="0 0 56 58" fill="none" xmlns="http://www.w3.org/2000/svg">
<path d="M40.6602 12.8511H51.5113V38.1703H40.6602V12.8511Z" stroke="#214F7A" stroke-width="1.5"/>
<path d="M40.6602 12.8511L46.0857 2L51.5113 12.8511" stroke="#214F7A" stroke-width="1.5"/>
<path d="M40.6602 23.7021H51.5113" stroke="#214F7A" stroke-width="1.5"/>
<path d="M51.5098 38.1704H53.3183C53.7979 38.1704 54.2579 38.361 54.5971 38.7001C54.9363 39.0393 55.1268 39.4993 55.1268 39.9789V49.0215" stroke="#214F7A" stroke-width="1.5"/>
<path d="M40.6602 38.1704V47.213" stroke="#214F7A" stroke-width="1.5"/>
<path d="M40.6578 38.1703L31.6152 29.1277" stroke="#214F7A" stroke-width="1.5"/>
<path d="M15.3394 38.1703H4.48828V12.8511H15.3394V38.1703Z" stroke="#214F7A" stroke-width="1.5"/>
<path d="M15.3394 12.8511L9.91384 2L4.48828 12.8511" stroke="#214F7A" stroke-width="1.5"/>
<path d="M15.3394 23.7021H4.48828" stroke="#214F7A" stroke-width="1.5"/>
<path d="M4.48813 38.1704H2.67961C2.19996 38.1704 1.73996 38.361 1.4008 38.7001C1.06163 39.0393 0.871094 39.4993 0.871094 39.9789V49.0215" stroke="#214F7A" stroke-width="1.5"/>
<path d="M15.3398 38.1704V47.213" stroke="#214F7A" stroke-width="1.5"/>
<path d="M15.3398 38.1703L24.3824 29.1277" stroke="#214F7A" stroke-width="1.5"/>
<path d="M15.3398 18.2766H40.6591" stroke="#214F7A" stroke-width="1.5"/>
<path d="M55.1246 56.2556C50.1379 56.2556 46.0941 53.8274 46.0941 50.8301C46.0941 53.8274 42.0502 56.2556 37.0635 56.2556C32.0769 56.2556 28.033 53.8274 28.033 50.8301C28.033 53.8274 23.9892 56.2556 19.0025 56.2556C14.0158 56.2556 9.97194 53.8274 9.97194 50.8301C9.97194 53.8274 5.92809 56.2556 0.941406 56.2556" stroke="#214F7A" stroke-width="1.5"/>
</svg>
