<svg width="52" height="52" viewBox="0 0 52 52" fill="none" xmlns="http://www.w3.org/2000/svg">
<path d="M29.3164 41.7474C30.619 42.3809 32.0499 42.7063 33.4984 42.6984C34.9102 42.6861 36.3043 42.3839 37.5944 41.8105C38.8845 41.2372 40.043 40.4049 40.9981 39.3652C42.3116 40.6303 43.8909 41.5861 45.6209 42.1627C47.351 42.7394 49.1879 42.9224 50.9977 42.6984" stroke="#214F7A" stroke-width="1.5"/>
<path d="M24.0774 18.2041L22.373 51.0049" stroke="#214F7A" stroke-width="1.5"/>
<path d="M8.86133 51.0314L19.852 16.8218" stroke="#214F7A" stroke-width="1.5"/>
<path d="M19.8535 16.8217L38.2438 22.8415C38.5215 22.9347 38.8189 22.9531 39.106 22.895C39.3931 22.8368 39.6598 22.7042 39.8794 22.5103C40.099 22.3164 40.2636 22.0681 40.3569 21.7904C40.4501 21.5127 40.4685 21.2153 40.4104 20.9282C40.1453 18.803 39.237 16.8096 37.8073 15.215C36.3775 13.6204 34.4946 12.5009 32.4108 12.0064C24.0778 10.3398 20.7446 15.3396 20.7446 15.3396L19.8557 16.8217" stroke="#214F7A" stroke-width="1.5"/>
<path d="M19.8524 16.8218L3.11086 21.366C2.83596 21.4412 2.54639 21.4447 2.26975 21.3762C1.99311 21.3077 1.73862 21.1696 1.53053 20.9748C1.32244 20.7801 1.16768 20.5353 1.081 20.2638C0.99433 19.9924 0.978627 19.7032 1.03539 19.4239C1.27964 17.2678 2.18192 15.2392 3.61955 13.6139C5.05719 11.9887 6.96045 10.8455 9.0706 10.3399C13.9193 9.36879 18.5657 10.3399 21.3545 14.6175" stroke="#214F7A" stroke-width="1.5"/>
<path d="M30.6197 11.7399L37.5083 4.81349C37.7001 4.62559 37.8434 4.39399 37.926 4.13855C38.0086 3.8831 38.028 3.61143 37.9826 3.34684C37.9371 3.08224 37.8282 2.83262 37.6651 2.61937C37.502 2.40613 37.2896 2.23563 37.0461 2.12249C35.2418 1.24437 33.2289 0.885314 31.2323 1.08545C29.2357 1.28558 27.334 2.03702 25.7399 3.25577C21.9623 6.08454 22.4067 12.0065 22.4067 12.0065V13.7153" stroke="#214F7A" stroke-width="1.5"/>
<path d="M11.9533 9.99985L7.62019 5.29561C7.41939 5.08021 7.27942 4.81534 7.2146 4.52809C7.14978 4.24084 7.16243 3.94152 7.25127 3.66077C7.34011 3.38001 7.50194 3.1279 7.7202 2.93022C7.93847 2.73255 8.20533 2.59641 8.49348 2.53573C10.3315 2.18145 12.1992 2.00435 14.071 2.00686C15.894 2.17301 17.6493 2.7801 19.1854 3.77579C20.7215 4.77148 21.9924 6.12587 22.8884 7.72217" stroke="#214F7A" stroke-width="1.5"/>
<path d="M1.00195 51.0315H50.9998" stroke="#214F7A" stroke-width="1.5"/>
</svg>
