<svg width="1126" height="1007" viewBox="0 0 1126 1007" fill="none" xmlns="http://www.w3.org/2000/svg">
<mask id="mask0" mask-type="alpha" maskUnits="userSpaceOnUse" x="0" y="0" width="1126" height="1007">
<rect width="1126" height="1007" fill="#214F7A"/>
</mask>
<g mask="url(#mask0)">
<path d="M1087.1 681.831L1085.79 681.458C1086.69 678.942 1087.6 676.423 1088.5 673.901C1115.61 598.299 1143.65 520.123 1135.25 440.479C1127.2 364.005 1081.58 297.058 1006.82 251.97C843.076 153.219 611.213 175.501 478.966 302.699C419.477 359.915 386.051 429.78 354.302 502.337C352.218 507.096 350.161 511.954 347.983 517.094C338.871 538.61 328.54 562.995 314.308 583.814C297.937 607.756 278.901 623.319 256.109 631.389C239.177 637.385 220.192 639.909 198.728 638.967C185.121 638.371 170.519 636.381 154.807 632.998C119.997 625.506 85.9426 612.608 55.8981 601.228C51.6303 599.611 47.5991 598.085 43.6073 596.59C-14.0216 574.996 -71.3534 550.551 -126.798 526.911C-172.846 507.277 -220.463 486.974 -267.997 468.412C-273.915 466.101 -279.778 463.796 -285.984 461.352C-367.47 429.291 -459.823 392.953 -547.937 399.095C-607.595 403.256 -638.728 437.995 -663.486 474.919L-664.672 474.29C-648.492 450.161 -633.927 434.07 -617.438 422.115C-597.512 407.668 -574.814 399.738 -548.046 397.87C-508.592 395.118 -464.655 400.675 -413.733 414.86C-369.226 427.255 -326.627 444.019 -285.426 460.226C-279.22 462.667 -273.357 464.975 -267.442 467.287C-219.883 485.856 -172.258 506.165 -126.201 525.801C-70.771 549.436 -13.4544 573.873 44.1442 595.458C48.139 596.954 52.1703 598.482 56.4411 600.1C114.413 622.058 193.812 652.132 255.602 630.249C306.17 612.341 328.64 559.291 346.697 516.662C348.875 511.519 350.935 506.659 353.021 501.891C368.142 467.335 384.898 430.649 404.921 396.501C426.988 358.867 450.878 327.913 477.959 301.864C510.521 270.546 549.619 245.042 594.172 226.065C637.12 207.77 683.49 196.196 731.991 191.666C755.836 189.438 780.041 188.976 803.934 190.294C828 191.62 851.978 194.762 875.201 199.636C923.333 209.733 967.876 226.999 1007.6 250.952C1025.72 261.882 1042.44 274.36 1057.28 288.038C1072.17 301.756 1085.29 316.795 1096.29 332.738C1107.43 348.877 1116.49 366.089 1123.22 383.898C1130.09 402.079 1134.6 421.075 1136.63 440.363C1145.05 520.256 1116.97 598.553 1089.82 674.274C1088.91 676.798 1088.01 679.317 1087.1 681.831Z" fill="#426E97"/>
<path d="M1112.67 696.969L1111.4 696.637C1112.19 694.274 1112.97 691.912 1113.75 689.544C1139.02 613.272 1165.14 534.403 1154.41 454.456C1143.94 376.543 1095.49 308.238 1017.97 262.124C956.47 225.244 884.609 205.624 811.981 202.432C696.626 197.367 579.29 233.713 498.077 308.117C435.462 365.484 398.689 438.103 366.394 507.566C364.426 511.832 362.475 516.162 360.41 520.747C350.685 542.338 339.665 566.807 324.757 587.561C307.594 611.45 287.966 626.661 264.746 634.056C237.42 642.76 205.012 642.577 165.671 633.494C131.814 625.678 98.7117 612.705 69.5044 601.263C65.3913 599.651 61.5087 598.131 57.6535 596.635C1.24083 574.907 -55.2992 550.303 -109.977 526.506C-154.502 507.129 -200.547 487.093 -246.24 468.731C-251.369 466.671 -256.672 464.527 -261.801 462.454C-344.594 428.991 -438.434 391.063 -528.637 400.391C-587.846 406.517 -622.077 440.058 -655.254 488.54L-656.383 487.927C-643.898 469.687 -626.724 446.532 -604.538 429.258C-582.414 412.033 -557.638 402.208 -528.789 399.222C-488.395 395.043 -443.548 400.01 -391.682 414.404C-346.362 426.98 -303.096 444.47 -261.252 461.382C-256.125 463.455 -250.823 465.596 -245.694 467.659C-199.983 486.026 -153.929 506.068 -109.394 525.447C-54.7289 549.236 1.79895 573.835 58.1843 595.555C62.0426 597.051 65.9282 598.574 70.0413 600.186C126.269 622.217 203.274 652.394 264.307 632.949C315.854 616.528 339.88 563.178 359.187 520.309C361.253 515.722 363.203 511.389 365.178 507.118C397.522 437.547 434.354 364.815 497.134 307.299C561.794 248.058 651.033 210.778 748.409 202.322C795.825 198.204 843.062 201.042 888.804 210.759C935.941 220.77 979.647 237.723 1018.71 261.15C1037.52 272.338 1054.94 285.109 1070.48 299.102C1086.05 313.12 1099.86 328.48 1111.53 344.757C1123.34 361.216 1133.06 378.76 1140.43 396.903C1147.94 415.405 1153.09 434.72 1155.72 454.319C1166.49 534.503 1140.32 613.491 1115.02 689.879C1114.24 692.244 1113.45 694.609 1112.67 696.969Z" fill="#426E97"/>
<path d="M1138.24 712.11L1137.02 711.816L1138.94 705.503C1162.39 628.454 1186.63 548.78 1173.56 468.434C1160.71 389.446 1109.42 319.786 1029.13 272.279C871.235 178.855 651.151 196.593 517.199 313.539C450.785 371.521 410.783 446.794 378.5 512.799C376.552 516.784 374.62 520.817 372.573 525.088C362.244 546.65 350.539 571.089 335 591.643C317.103 615.316 296.953 630.063 273.4 636.729C259.132 640.765 243.538 642.412 226.351 641.656C211.3 640.995 195.03 638.495 177.349 634.151C144.693 626.124 112.673 613.199 84.4277 601.795C80.0143 600.013 75.8497 598.331 71.7184 596.684C17.4108 575.009 -37.5246 550.638 -90.6522 527.068C-134.474 507.626 -179.785 487.522 -224.468 469.058C-228.496 467.392 -232.56 465.707 -236.658 464.006C-321.044 429.007 -416.686 389.341 -509.325 401.695C-578.219 410.883 -615.116 456.368 -647.004 502.166L-648.078 501.575C-633.027 479.96 -614.551 455.315 -591.632 436.446C-567.342 416.445 -540.479 404.714 -509.51 400.583C-468.033 395.051 -422.103 399.506 -369.1 414.201C-322.803 427.037 -276.752 446.136 -236.125 462.988C-232.027 464.689 -227.962 466.374 -223.934 468.037C-179.236 486.507 -133.916 506.616 -90.085 526.06C-36.9695 549.625 17.9538 573.994 72.2401 595.658C76.3744 597.308 80.5421 598.99 84.9555 600.772C142.12 623.848 213.266 652.569 273.024 635.657C325.339 620.854 350.888 567.509 371.42 524.648C373.467 520.374 375.4 516.341 377.35 512.353C393.156 480.038 412.46 442.215 435.81 406.712C460.425 369.286 486.763 338.545 516.322 312.739C549.257 283.986 587.922 260.734 631.243 243.633C673.175 227.08 718.052 216.815 764.631 213.127C859.496 205.613 953.685 226.289 1029.84 271.347C1049.31 282.868 1067.41 295.965 1083.62 310.272C1099.87 324.614 1114.37 340.292 1126.72 356.872C1139.21 373.649 1149.61 391.503 1157.62 409.944C1165.8 428.756 1171.59 448.385 1174.83 468.277C1187.93 548.856 1163.65 628.643 1140.17 705.803L1138.24 712.11Z" fill="#426E97"/>
<path d="M1163.8 727.251L1162.63 726.994L1164.08 721.791C1185.73 643.854 1208.12 563.265 1192.72 482.408C1177.42 402.114 1123.28 331.093 1040.28 282.433C979.31 246.684 908.465 227.563 836.862 224.418C727.759 219.628 616.875 251.913 536.317 318.954C466.549 377.015 424.52 452.153 390.602 518.025C388.74 521.64 386.893 525.288 384.939 529.149C374.007 550.732 361.619 575.193 345.416 595.612C326.74 619.144 306.014 633.464 282.051 639.391C255.813 645.881 225.299 644.38 188.766 634.796C157.211 626.518 126.226 613.585 98.8873 602.175C94.3343 600.275 90.0332 598.479 85.7714 596.722C33.4598 575.152 -19.9317 550.959 -71.5639 527.559C-114.6 508.057 -159.101 487.889 -202.704 469.368C-205.391 468.226 -208.091 467.078 -210.809 465.923C-280.498 436.275 -357.722 403.423 -435.143 400.021C-453.464 399.217 -471.779 400.059 -490.027 402.986C-561.933 414.511 -601.414 462.915 -638.766 515.779L-639.785 515.207C-623.205 491.745 -603.45 464.929 -578.741 443.651C-552.3 420.883 -523.35 407.235 -490.239 401.927C-447.552 395.086 -400.409 399.09 -346.117 414.166C-298.719 427.328 -251.737 447.318 -210.287 464.951C-207.569 466.106 -204.87 467.257 -202.182 468.396C-158.564 486.923 -114.057 507.093 -71.0149 526.597C-19.3918 549.992 33.9906 574.183 86.281 595.744C90.5458 597.502 94.847 599.297 99.4029 601.198C154.532 624.207 223.142 652.844 281.729 638.349C334.984 625.176 362.074 571.68 383.844 528.698C385.801 524.834 387.648 521.187 389.51 517.569C406.075 485.397 426.361 447.674 451.222 411.798C477.108 374.442 504.674 343.815 535.498 318.16C568.546 290.657 606.956 268.507 649.658 252.326C691.065 236.635 735.205 227.023 780.853 223.759C826.434 220.497 871.814 223.683 915.733 233.23C960.91 243.05 1003.04 259.3 1040.95 281.526C1061.1 293.338 1079.88 306.74 1096.78 321.363C1113.71 336.012 1128.89 352.009 1141.91 368.913C1155.07 386.006 1166.13 404.184 1174.79 422.943C1183.63 442.072 1190.06 462.013 1193.91 482.217C1209.36 563.294 1186.93 643.994 1165.25 722.037L1163.8 727.251Z" fill="#426E97"/>
<path d="M1189.37 742.392L1188.25 742.168L1189.2 738.396C1209.08 659.467 1229.63 577.85 1211.88 496.378C1194.08 414.736 1137.11 342.36 1051.44 292.582C989.984 256.868 919.385 237.715 848.197 234.588C742.746 229.958 635.972 260.47 555.436 324.368C489.763 376.476 446.882 441.559 402.702 523.25C400.934 526.517 399.181 529.8 397.327 533.28C385.798 554.879 372.73 579.362 355.856 599.635C336.395 623.016 315.08 636.894 290.696 642.056C232.991 654.276 166.735 625.651 113.499 602.651C108.752 600.599 104.268 598.663 99.8247 596.768C49.7941 575.439 -1.74411 551.561 -51.5837 528.471C-94.1282 508.762 -138.12 488.378 -180.943 469.692L-184.359 468.202C-254.448 437.607 -331.991 403.761 -410.258 400.324C-430.411 399.438 -450.597 400.567 -470.735 404.287C-545.608 418.116 -587.4 469.133 -630.53 529.403L-631.498 528.855C-611.315 500.652 -591.107 473.467 -565.852 450.906C-537.276 425.379 -506.239 409.803 -470.969 403.288C-426.959 395.159 -378.488 398.761 -322.788 414.299C-274.186 427.855 -226.196 448.803 -183.855 467.287L-180.44 468.777C-137.604 487.471 -93.6065 507.855 -51.0559 527.567C-1.22239 550.654 50.3067 574.526 100.319 595.85C104.766 597.745 109.252 599.684 113.999 601.736C167.072 624.663 233.124 653.201 290.429 641.065C344.655 629.582 373.282 575.944 396.287 532.845C398.143 529.365 399.896 526.079 401.665 522.812C419.027 490.705 440.324 453.015 466.607 416.904C493.761 379.597 522.568 349.08 554.669 323.612C587.783 297.339 625.911 276.272 667.997 260.999C708.871 246.166 752.28 237.205 797.017 234.364C841.712 231.527 886.189 234.899 929.213 244.381C973.435 254.13 1014.77 270.062 1052.07 291.734C1072.89 303.833 1092.36 317.543 1109.94 332.481C1127.55 347.436 1143.41 363.754 1157.09 380.985C1170.92 398.393 1182.65 416.893 1191.96 435.976C1201.45 455.418 1208.53 475.678 1213 496.189C1230.8 577.869 1210.22 659.592 1190.31 738.626L1189.37 742.392Z" fill="#426E97"/>
<path d="M1214.94 757.535L1213.87 757.344L1214.32 755.346C1232.44 675.308 1251.16 592.548 1231.04 510.352C1210.7 427.325 1150.89 353.591 1062.6 302.739C913.821 217.039 708.569 228.414 574.56 329.786C506.078 381.592 461.167 446.684 414.807 528.479C413.139 531.422 411.482 534.373 409.729 537.5C385.387 580.898 355.094 634.909 299.349 644.723C243.073 654.629 179.426 626.134 128.288 603.237C123.286 600.998 118.563 598.882 113.883 596.819C66.47 575.903 17.1613 552.525 -30.5216 529.916C-72.9297 509.81 -116.782 489.018 -159.174 470.016C-244.133 431.937 -349.864 384.548 -451.439 405.589C-535.433 422.987 -581.575 486.758 -622.287 543.026L-623.203 542.5C-603.265 514.945 -580.668 483.713 -552.95 458.188C-538.287 444.686 -523.518 433.921 -507.803 425.282C-490.334 415.681 -471.455 408.737 -451.687 404.644C-406.501 395.286 -356.931 398.431 -300.142 414.263C-249.899 428.27 -201.44 449.988 -158.686 469.152C-116.281 488.157 -72.4232 508.951 -30.0121 529.06C17.6648 551.666 66.9643 575.039 114.365 595.95C119.049 598.015 123.771 600.132 128.773 602.37C179.765 625.2 243.224 653.614 299.133 643.773C354.354 634.053 384.514 580.277 408.749 537.068C410.503 533.941 412.159 530.99 413.827 528.045C432.03 495.93 454.361 458.215 481.981 421.988C510.406 384.708 540.457 354.307 573.847 329.049C606.982 303.984 644.81 283.983 686.281 269.603C726.608 255.62 769.289 247.307 813.138 244.899C856.954 242.491 900.539 246.055 942.686 255.488C985.964 265.175 1026.51 280.8 1063.19 301.926C1084.68 314.308 1104.84 328.32 1123.11 343.577C1141.38 358.835 1157.92 375.474 1172.28 393.031C1186.76 410.751 1199.16 429.58 1209.12 448.989C1219.26 468.744 1226.99 489.32 1232.09 510.144C1252.27 592.537 1233.52 675.402 1215.38 755.538L1214.94 757.535Z" fill="#426E97"/>
<path d="M1240.5 772.679L1239.48 772.517C1255.82 691.318 1272.72 607.354 1250.19 524.322C1227.27 439.864 1164.61 364.777 1073.76 312.893C1012.39 277.849 942.376 258.957 871.838 255.858C772.744 251.506 672.592 278.297 593.679 335.202C522.506 386.525 475.536 451.676 426.907 533.706C425.335 536.358 423.743 539.063 422.126 541.814C396.559 585.304 364.74 639.431 308 647.388C299.758 648.543 291.147 648.927 282.111 648.53C264.418 647.752 245.09 643.989 223.66 637.177C195.538 628.24 167.757 615.329 143.248 603.941C137.931 601.471 132.911 599.138 127.939 596.865C83.5382 576.578 36.9169 553.934 -8.16647 532.035C-50.8718 511.292 -95.03 489.844 -137.408 470.34C-217.516 433.476 -327.229 382.985 -432.15 406.89C-519.153 426.712 -568.438 494.196 -611.919 553.734L-614.046 556.645L-614.91 556.145L-612.784 553.235C-590.404 522.591 -567.264 490.902 -538.681 464.222C-523.215 449.783 -507.687 438.209 -491.214 428.837C-472.856 418.394 -453.07 410.71 -432.405 406.002C-386.508 395.545 -336.466 398.069 -279.41 413.721C-230.914 427.023 -184.344 447.709 -136.935 469.525C-94.5447 489.031 -50.3804 510.482 -7.67208 531.228C37.4083 553.124 84.0205 575.765 128.412 596.047C133.387 598.32 138.41 600.653 143.727 603.126C192.605 625.84 253.437 654.108 307.842 646.481C364.07 638.597 395.755 584.699 421.213 541.39C422.83 538.639 424.422 535.931 425.994 533.28C445.079 501.086 468.478 463.293 497.342 427.063C527.041 389.783 558.341 359.504 593.029 334.49C626.144 310.609 663.653 291.658 704.508 278.162C744.277 265.024 786.236 257.362 829.218 255.388C872.159 253.415 914.868 257.178 956.154 266.571C998.498 276.204 1038.25 291.532 1074.31 312.124C1096.48 324.783 1117.33 339.101 1136.28 354.677C1155.22 370.236 1172.43 387.194 1187.46 405.084C1202.6 423.116 1215.66 442.269 1226.28 462.008C1237.07 482.074 1245.45 502.968 1251.19 524.108C1273.78 607.33 1256.86 691.388 1240.5 772.679Z" fill="#426E97"/>
<path d="M1266.06 787.825L1265.1 787.69C1279.47 706.361 1294.32 622.262 1269.35 538.288C1243.79 452.358 1178.29 375.916 1084.91 323.042C1024.05 288.578 954.254 269.951 883.867 266.86C787.555 262.632 690.117 287.476 612.802 340.61C539.073 391.279 490.004 456.535 439.011 538.928C437.531 541.32 436.033 543.755 434.513 546.228C407.729 589.799 374.394 644.024 316.659 650.044C292.999 652.512 266.458 648.619 235.516 638.143C208.587 629.026 181.921 616.142 158.395 604.775C152.699 602.024 147.321 599.424 142 596.905C101.063 577.512 57.6725 555.896 15.7104 534.988C-27.8018 513.311 -72.7912 490.897 -115.639 470.656C-211.22 425.503 -312.904 383.484 -412.859 408.183C-503.023 430.46 -554.752 500.824 -600.394 562.905C-602.202 565.368 -604.007 567.819 -605.802 570.257L-606.615 569.782C-604.817 567.341 -603.015 564.89 -601.207 562.43C-577.769 530.55 -553.536 497.584 -523.665 469.538C-507.494 454.356 -491.303 442.115 -474.165 432.115C-455.055 420.967 -434.517 412.632 -413.117 407.346C-366.493 395.825 -315.971 397.737 -258.66 413.191C-208.232 426.788 -160.128 448.657 -115.181 469.891C-72.3241 490.135 -27.3286 512.555 16.1866 534.235C58.1427 555.138 101.531 576.753 142.458 596.141C147.782 598.663 153.163 601.263 158.859 604.014C205.593 626.59 263.756 654.691 316.546 649.183C373.784 643.214 406.983 589.208 433.661 545.81C435.18 543.337 436.682 540.899 438.159 538.506C458.169 506.173 482.675 468.247 512.68 432.115C543.659 394.813 576.215 364.658 612.208 339.921C645.264 317.205 682.434 299.283 722.679 286.658C761.881 274.36 803.121 267.346 845.25 265.809C887.328 264.276 929.166 268.247 969.608 277.613C1011.03 287.206 1050 302.242 1085.43 322.307C1108.27 335.24 1129.81 349.86 1149.46 365.757C1169.05 381.613 1186.94 398.895 1202.64 417.119C1218.43 435.462 1232.16 454.939 1243.43 475.016C1254.87 495.392 1263.9 516.605 1270.29 538.061C1276.24 558.075 1280.11 578.554 1282.12 600.663C1283.91 620.354 1284.17 640.854 1282.91 663.333C1280.53 705.932 1272.84 749.441 1266.06 787.825Z" fill="#426E97"/>
<path d="M1291.62 802.972L1290.72 802.861C1302.55 725.237 1315.96 637.255 1288.5 552.255C1260.24 464.802 1191.9 387.008 1096.07 333.196C955.171 254.087 764.309 259.362 631.925 346.026C547.267 401.447 494.206 477.354 451.115 544.155C449.717 546.323 448.303 548.529 446.869 550.764C433.004 572.377 417.291 596.873 397.739 616.434C375.12 639.064 351.433 650.933 325.317 652.712C302.419 654.273 276.954 649.861 247.465 639.221C221.749 629.944 196.224 617.101 173.702 605.769C167.572 602.683 161.781 599.77 156.058 596.957C119.091 578.784 79.5647 558.556 41.3365 538.995C-3.57399 516.014 -50.0133 492.25 -93.8713 470.985C-188.964 424.877 -290.436 382.151 -393.573 409.49C-487.025 434.261 -541.235 507.655 -589.067 572.407C-591.857 576.184 -594.742 580.088 -597.56 583.884L-598.324 583.436C-595.506 579.64 -592.622 575.736 -589.831 571.961C-565.313 538.769 -539.961 504.448 -508.779 474.981C-491.893 459.027 -475.022 446.098 -457.199 435.455C-437.316 423.583 -415.998 414.585 -393.837 408.71C-346.466 396.152 -295.462 397.456 -237.906 412.695C-185.624 426.537 -135.921 449.672 -93.4344 470.272C-49.5674 491.542 -3.12203 515.309 41.7915 538.294C80.0137 557.854 119.54 578.079 156.497 596.249C162.224 599.065 168.018 601.979 174.148 605.064C221.027 628.651 274.158 655.388 325.241 651.905C383.473 647.936 418.18 593.836 446.065 550.365C447.5 548.129 448.916 545.921 450.315 543.753C471.305 511.214 496.945 473.107 527.99 437.169C560.255 399.822 594.073 369.793 631.376 345.376C664.339 323.798 701.153 306.889 740.792 295.122C779.414 283.659 819.939 277.292 861.237 276.202C902.45 275.114 943.432 279.301 983.046 288.651C1023.55 298.208 1061.74 312.966 1096.55 332.513C1120.06 345.713 1142.29 360.633 1162.62 376.854C1182.87 393.007 1201.43 410.61 1217.79 429.175C1234.23 447.826 1248.62 467.632 1260.55 488.046C1272.64 508.73 1282.34 530.259 1289.37 552.036C1301.49 589.551 1306.72 630.649 1305.34 677.681C1304.07 721.324 1297.17 766.596 1291.62 802.972Z" fill="#426E97"/>
<path d="M1099.37 818.121L1098.61 818.035C1107.51 740.364 1117.59 652.332 1090.89 566.224C1063.28 477.203 999.926 398.051 912.482 343.351C857.82 309.157 795.714 290.584 733.258 287.501C653.335 283.559 572.822 304.964 506.445 351.437C428.85 405.761 379.461 482.093 339.257 549.377C338.075 551.356 336.879 553.367 335.666 555.406C322.82 577.005 308.26 601.485 290.27 620.829C269.441 643.228 247.836 654.527 224.22 655.369C204.549 656.071 182.863 651.176 157.922 640.401C136.128 630.986 115.382 618.745 95.3194 606.909C89.4309 603.434 83.8664 600.151 78.3721 596.997C49.4968 580.428 18.3859 562.026 -11.7016 544.231C-53.5121 519.502 -96.7482 493.929 -137.225 471.299C-217.725 426.294 -311.535 380.79 -406.199 410.78C-492.39 438.087 -542.886 514.616 -587.434 582.137C-590.774 587.199 -594.227 592.432 -597.594 597.494L-598.229 597.07C-594.859 592.011 -591.409 586.778 -588.069 581.716C-565.266 547.155 -541.687 511.419 -512.742 480.494C-497.066 463.744 -481.429 450.11 -464.943 438.811C-446.543 426.2 -426.856 416.526 -406.428 410.054C-363.586 396.482 -317.753 397.181 -266.309 412.19C-220.5 425.557 -177.019 448.177 -136.852 470.634C-96.3648 493.27 -53.126 518.844 -11.3128 543.575C18.7721 561.37 49.8802 579.769 78.7528 596.336C84.2525 599.492 89.817 602.775 95.7081 606.25C135.37 629.65 180.323 656.168 224.193 654.605C276.895 652.723 309.118 598.544 335.01 555.011C336.222 552.973 337.418 550.961 338.604 548.98C358.205 516.176 382.08 477.835 410.537 442.183C440.406 404.762 471.633 374.872 506.01 350.808C535.239 330.345 567.676 314.435 602.424 303.517C636.275 292.882 671.711 287.163 707.749 286.521C743.666 285.881 779.388 290.295 813.925 299.64C849.161 309.173 882.456 323.66 912.892 342.7C934.416 356.164 954.816 371.381 973.529 387.929C992.126 404.374 1009.24 422.301 1024.41 441.208C1039.61 460.167 1053.01 480.303 1064.21 501.057C1075.55 522.046 1084.77 543.893 1091.62 565.992C1103.3 603.639 1108.91 644.861 1108.8 692.012C1108.7 733.336 1104.28 775.244 1099.37 818.121Z" fill="#426E97"/>
<path d="M1122.12 833.27L1121.42 833.203C1129.91 742.532 1134.76 660.912 1107.94 580.188C1077.82 489.542 1011.94 409.039 922.413 353.505C867.845 319.657 805.591 301.214 743.024 298.128C665.721 294.315 587.932 313.925 523.469 356.85C443.795 409.906 392.168 486.745 350.033 554.601C347.787 558.219 345.522 561.931 343.124 565.865C329.979 587.424 315.078 611.858 296.983 630.287C277.406 650.223 257.573 659.459 236.5 658.423C234.969 658.347 233.436 658.217 231.894 658.034C210.287 655.464 186.566 647.942 159.375 635.039C135.722 623.815 112.705 610.076 92.3964 597.95L90.8925 597.051C66.5773 582.537 41.4143 567.199 14.7772 550.956C-29.5226 523.949 -75.3343 496.022 -117.841 471.628C-179.599 436.192 -244.677 404.865 -310.889 401.598C-336.805 400.319 -362.883 403.337 -389.024 412.087C-478.29 441.967 -531.052 521.719 -577.6 592.081C-581.758 598.366 -586.059 604.865 -590.247 611.121L-590.838 610.724C-586.65 604.471 -582.352 597.972 -578.194 591.689C-554.397 555.719 -529.791 518.522 -499.638 486.105C-483.307 468.545 -467.043 454.189 -449.92 442.218C-430.807 428.856 -410.393 418.491 -389.248 411.412C-366.469 403.788 -342.394 400.157 -317.69 400.624C-295.254 401.045 -272.391 404.671 -247.787 411.707C-200.447 425.247 -155.351 449.284 -117.482 471.012C-74.9644 495.409 -29.1527 523.339 15.1525 550.349C41.7896 566.589 66.9499 581.927 91.2624 596.439L92.7663 597.338C133.24 621.499 183.612 651.57 231.986 657.324C254.555 660.013 275.651 651.001 296.487 629.785C314.527 611.415 329.404 587.016 342.53 565.492C344.928 561.559 347.193 557.844 349.442 554.223C370.018 521.09 394.984 482.46 424.151 447.191C455.178 409.674 487.539 379.929 523.088 356.256C552.177 336.885 584.276 321.954 618.492 311.875C651.805 302.061 686.613 296.991 721.938 296.805C757.088 296.618 792.059 301.265 825.886 310.62C860.31 320.137 892.914 334.363 922.796 352.9C944.914 366.621 965.93 382.135 985.261 399.009C1004.43 415.743 1022.14 433.994 1037.91 453.253C1053.68 472.516 1067.65 492.984 1079.45 514.084C1091.36 535.375 1101.18 557.541 1108.62 579.961C1121.18 617.751 1127.77 659.095 1128.76 706.359C1129.64 748.715 1126.13 790.561 1122.12 833.27Z" fill="#426E97"/>
<path d="M1144.87 848.419L1144.22 848.37C1150.85 757.732 1153.98 676.042 1124.98 594.151C1092.29 501.826 1023.88 419.968 932.337 363.656C876.762 329.468 814.368 310.817 751.871 307.734C677.878 304.083 603.733 322.243 540.488 362.258C458.892 413.885 406.981 488.165 360.803 559.82C358.61 563.221 356.399 566.71 354.056 570.403C340.375 591.975 324.867 616.428 306.168 634.674C286.723 653.643 267.232 662.453 246.81 661.446C244.421 661.327 242.018 661.076 239.602 660.69C219.172 657.426 196.892 649.629 171.492 636.847C149.325 625.697 127.586 612.157 108.403 600.213C106.721 599.165 105.053 598.126 103.398 597.097C84.2149 585.172 64.3437 572.655 43.3062 559.407C-4.18221 529.494 -53.2878 498.567 -98.4759 471.952C-159.056 436.273 -223.084 404.808 -289.334 401.541C-316.503 400.202 -344.034 403.599 -371.875 413.388C-464.262 445.882 -519.316 528.917 -567.89 602.178C-572.836 609.638 -577.949 617.352 -582.925 624.738L-583.471 624.371C-578.495 616.984 -573.611 609.616 -568.438 601.814C-543.631 564.401 -517.982 525.712 -486.609 491.774C-469.614 473.388 -452.715 458.301 -434.95 445.649C-415.114 431.524 -393.965 420.459 -372.091 412.767C-348.991 404.643 -324.651 400.596 -299.747 400.737C-277.365 400.864 -253.655 404.39 -229.275 411.218C-180.307 424.93 -133.472 450.574 -98.1384 471.385C-52.9395 498.006 -3.83121 528.936 43.6626 558.85C64.6974 572.099 84.5659 584.613 103.749 596.538C105.404 597.567 107.072 598.606 108.754 599.654C148.713 624.536 194.003 652.739 239.707 660.04C262.556 663.69 284.147 655.239 305.709 634.204C324.357 616.012 339.841 591.595 353.502 570.055C355.846 566.361 358.057 562.873 360.252 559.469C382.95 524.249 408.042 486.877 437.722 452.175C469.913 414.539 503.413 384.945 540.14 361.707C569.067 343.405 600.817 329.435 634.507 320.185C667.275 311.189 701.453 306.767 736.085 307.04C770.465 307.31 804.694 312.202 837.827 321.573C871.438 331.082 903.354 345.054 932.688 363.1C955.399 377.072 977.031 392.88 996.978 410.086C1016.71 427.109 1035.02 445.684 1051.38 465.294C1067.71 484.86 1082.28 505.66 1094.67 527.113C1107.15 548.707 1117.55 571.189 1125.61 593.935C1139.04 631.877 1146.59 673.345 1148.7 720.711C1150.62 764.08 1147.86 807.58 1144.87 848.419Z" fill="#426E97"/>
<path d="M1167.63 863.571L1167.02 863.539C1171.65 776.303 1173.21 691.124 1142.04 608.113C1106.71 514.049 1035.76 430.838 942.269 373.808C886.53 339.809 823.749 321.196 760.987 318.101C689.737 314.586 618.504 331.05 557.518 367.669C474.181 417.706 419.967 492.609 371.582 565.042C369.457 568.222 367.316 571.473 365.048 574.915C350.831 596.498 334.718 620.959 315.403 639.024C296.058 657.116 276.848 665.526 256.966 664.546C253.77 664.389 250.56 663.987 247.325 663.347C204.381 654.829 162.249 627.35 125.077 603.105C121.985 601.088 118.932 599.095 115.919 597.143C102.508 588.447 88.7066 579.44 74.0948 569.907C25.0782 537.921 -30.4801 501.667 -79.0916 472.276C-159.921 423.403 -255.878 378.341 -354.705 414.69C-450.251 449.832 -507.621 536.201 -558.236 612.406C-564.205 621.394 -569.845 629.885 -575.58 638.357L-576.082 638.017C-570.347 629.547 -564.71 621.059 -558.741 612.071C-532.913 573.19 -506.209 532.983 -473.605 497.506C-455.94 478.283 -438.401 462.454 -419.985 449.111C-399.42 434.21 -377.527 422.439 -354.912 414.12C-255.843 377.683 -159.729 422.809 -78.7757 471.755C-30.1561 501.151 25.4076 537.408 74.4295 569.396C89.0414 578.932 102.843 587.937 116.254 596.633C119.267 598.588 122.32 600.577 125.414 602.594C162.54 626.81 204.621 654.254 247.449 662.748C270.601 667.34 292.694 659.435 314.995 638.576C334.256 620.559 350.35 596.131 364.546 574.578C366.814 571.135 368.955 567.882 371.083 564.701C394.936 528.993 421.166 491.243 451.302 457.116C484.664 419.334 519.309 389.902 557.213 367.145C614.132 332.97 680.879 315.704 750.234 317.213C783.842 317.945 817.334 323.085 849.782 332.492C882.577 342.001 913.804 355.724 942.596 373.287C989.277 401.763 1030.42 436.764 1064.88 477.319C1081.76 497.188 1096.91 518.323 1109.9 540.132C1122.94 562.023 1133.95 584.821 1142.61 607.894C1173.83 691.018 1172.26 776.267 1167.63 863.571Z" fill="#426E97"/>
<path d="M1189.83 878.703C1192.72 791.57 1192.54 706.375 1159.09 622.073C1121.05 526.208 1047.57 441.645 952.198 383.962C896.129 350.051 832.812 331.428 769.688 328.312C701.281 324.937 633.098 339.765 574.545 373.076C489.577 421.412 435.153 493.929 382.356 570.26C381.279 571.818 380.186 573.4 379.084 575.001C364.254 596.508 347.444 620.883 327.152 639.229C305.601 658.711 284.045 667.704 261.461 666.589C259.341 666.484 257.214 666.292 255.073 666.009C238.404 663.808 220.695 657.345 200.929 646.246C183.528 636.475 166.905 624.53 150.827 612.98C143.054 607.397 135.713 602.121 128.432 597.189C121.596 592.558 114.568 587.79 107.389 582.92C53.8904 546.622 -6.74911 505.484 -59.7183 472.597C-115.79 437.782 -179.437 404.981 -247.361 401.63C-276.714 400.183 -306.855 404.23 -337.548 415.988C-436.277 453.814 -495.983 543.561 -548.66 622.74C-555.405 632.878 -561.776 642.455 -568.248 651.969L-568.707 651.656C-562.235 642.144 -555.866 632.568 -549.122 622.433C-522.266 582.064 -494.495 540.318 -460.647 503.281C-442.306 483.213 -424.12 466.63 -405.048 452.588C-383.746 436.904 -361.102 424.414 -337.745 415.467C-313.983 406.363 -289.104 401.49 -263.795 400.982C-240.884 400.52 -216.782 403.631 -192.164 410.224C-170.254 416.091 -147.875 424.603 -123.749 436.248C-103.959 445.8 -82.9185 457.534 -59.424 472.122C-6.44407 505.017 54.1981 546.158 107.702 582.458C114.881 587.329 121.909 592.097 128.745 596.727C136.032 601.662 143.376 606.941 151.151 612.527C182.483 635.038 217.995 660.552 255.143 665.455C279.898 668.719 303.331 660.01 326.776 638.813C347.023 620.51 363.811 596.163 378.625 574.682C379.729 573.081 380.82 571.499 381.897 569.941C405.27 536.147 432.885 497.152 464.849 462.032C499.391 424.08 535.181 394.824 574.267 372.59C630.649 340.515 696.378 324.872 764.35 327.348C797.181 328.544 829.939 333.944 861.717 343.396C893.694 352.908 924.232 366.397 952.484 383.484C1000.27 412.386 1042.62 448.006 1078.35 489.352C1095.78 509.52 1111.51 530.99 1125.1 553.161C1138.71 575.346 1150.32 598.46 1159.6 621.866C1174.79 660.145 1184.27 701.866 1188.57 749.414C1192.5 792.739 1191.76 837.166 1190.38 878.72L1189.83 878.703Z" fill="#426E97"/>
<path d="M1212.63 893.869C1213.77 810.334 1211.89 721.619 1176.14 636.035C1135.31 538.304 1059.31 452.388 962.126 394.114C845.558 324.214 703.571 318.225 591.571 378.484C505.105 425.006 450.545 495.222 393.132 575.479C392.044 576.999 390.945 578.541 389.83 580.101C374.508 601.584 357.14 625.932 336.278 644.008C315.113 662.342 294.114 670.82 272.366 669.748C269.191 669.592 266 669.233 262.79 668.668C246.858 665.874 230.102 659.097 211.567 647.949C195.222 638.119 179.63 626.258 164.551 614.789C156.371 608.566 148.644 602.691 140.952 597.237C89.2461 560.592 18.4333 510.403 -40.3352 472.921C-115.425 425.028 -215.115 375.422 -320.384 417.292C-422.316 457.837 -484.378 550.991 -539.135 633.181C-546.635 644.437 -553.717 655.069 -560.906 665.593L-561.322 665.31C-554.135 654.788 -547.051 644.159 -539.553 632.903C-511.655 591.03 -482.809 547.729 -447.708 509.118C-428.687 488.194 -409.85 470.853 -390.117 456.106C-368.075 439.631 -344.675 426.415 -320.568 416.828C-296.466 407.241 -271.308 401.957 -245.794 401.123C-222.61 400.364 -198.311 403.258 -173.575 409.725C-133.001 420.332 -90.5774 440.282 -40.0625 472.502C18.7168 509.993 89.5349 560.184 141.246 596.832C148.946 602.289 156.676 608.169 164.859 614.395C194.164 636.688 227.381 661.954 262.881 668.18C287.915 672.57 311.82 664.543 335.951 643.635C356.767 625.6 374.117 601.276 389.425 579.818C390.538 578.257 391.639 576.713 392.727 575.193C418.468 539.211 446.285 501.216 478.4 466.927C514.128 428.783 551.07 399.711 591.337 378.047C619.658 362.809 650.321 351.628 682.474 344.816C713.231 338.299 745.195 335.804 777.483 337.397C777.813 337.413 778.139 337.43 778.471 337.446C843.02 340.796 906.616 360.244 962.388 393.687C1011.27 422.997 1054.82 459.232 1091.83 501.389C1109.8 521.854 1126.11 543.661 1140.32 566.202C1154.48 588.676 1166.69 612.108 1176.6 635.843C1212.39 721.516 1214.27 810.291 1213.13 893.88L1212.63 893.869Z" fill="#426E97"/>
<path d="M1235.43 909.034C1234.97 825.662 1231.32 736.984 1193.18 649.993C1149.49 550.327 1070.96 463.058 972.056 404.266C857.372 336.093 718.107 328.288 608.599 383.889C513.803 432.023 452.869 514.459 403.91 580.695C402.803 582.194 401.682 583.714 400.545 585.255C384.727 606.717 366.797 631.043 345.368 648.843C324.606 666.087 304.151 674.074 283.208 673.04C278.996 672.832 274.771 672.259 270.511 671.325C255.289 667.983 239.454 660.917 222.096 649.721C206.772 639.836 192.192 628.054 178.093 616.658C169.572 609.773 161.527 603.269 153.47 597.283C105.833 561.893 35.9252 510.53 -20.9561 473.242C-72.3971 439.521 -135.718 405.075 -205.602 401.628C-236.98 400.081 -269.67 404.776 -303.221 418.591C-408.371 461.884 -472.81 558.475 -529.661 643.694C-537.899 656.041 -545.68 667.705 -553.569 679.206L-553.941 678.95C-546.055 667.451 -538.274 655.79 -530.039 643.443C-473.153 558.17 -408.674 461.517 -303.397 418.173C-278.949 408.107 -253.511 402.411 -227.787 401.247C-204.324 400.183 -179.826 402.859 -154.971 409.198C-132.545 414.919 -109.885 423.459 -85.6994 435.309C-65.1802 445.361 -43.9213 457.645 -20.7076 472.864C36.1845 510.158 106.101 561.526 153.74 596.922C161.805 602.913 169.856 609.419 178.38 616.309C207.047 639.48 236.692 663.439 270.611 670.885C295.898 676.436 320.259 669.111 345.082 648.495C366.47 630.73 384.381 606.428 400.186 584.985C401.32 583.446 402.443 581.924 403.55 580.425C432.89 540.731 459.794 505.158 491.934 471.765C528.858 433.408 566.953 404.53 608.399 383.484C636.489 369.221 666.782 358.94 698.438 352.924C728.925 347.13 760.603 345.3 792.583 347.481C855.28 351.758 917.421 371.259 972.291 403.874C1022.25 433.57 1067.01 470.424 1105.31 513.406C1123.81 534.165 1140.71 556.313 1155.52 579.229C1170.24 601.989 1183.05 625.735 1193.61 649.81C1210.56 688.472 1221.95 730.45 1228.43 778.141C1234.61 823.594 1235.67 869.813 1235.89 909.029L1235.43 909.034Z" fill="#426E97"/>
<path d="M1258.23 924.197C1256.28 844.661 1250.81 752.397 1210.23 663.952C1163.58 562.274 1082.52 473.655 981.981 414.42C869.004 347.857 732.457 338.231 625.625 389.297C529.733 435.136 468.611 515.239 414.683 585.914C413.546 587.404 412.393 588.916 411.23 590.45C394.912 611.898 376.417 636.208 354.416 653.733C334.059 669.948 314.144 677.462 293.965 676.468C288.741 676.212 283.503 675.383 278.233 673.99C245.724 665.391 218.109 641.586 191.402 618.564C182.63 611.001 174.344 603.86 165.988 597.34C119.59 561.134 52.8571 510.271 -1.57809 473.574C-48.7479 441.778 -112.913 405.375 -185.254 401.808C-217.496 400.218 -251.348 405.143 -286.066 419.9C-394.442 465.971 -461.272 566.021 -520.235 654.291C-529.196 667.707 -537.66 680.378 -546.235 692.832L-546.564 692.606C-537.992 680.154 -529.528 667.486 -520.57 654.07C-461.577 565.754 -394.712 465.653 -286.225 419.533C-261.424 408.99 -235.699 402.886 -209.767 401.387C-186.021 400.016 -161.32 402.467 -136.346 408.672C-113.975 414.231 -90.526 423.027 -66.6509 434.815C-45.805 445.107 -24.4488 457.677 -1.35668 473.242C53.0893 509.944 119.831 560.813 166.231 597.024C174.595 603.55 182.884 610.696 191.658 618.261C218.331 641.254 245.913 665.029 278.33 673.604C303.839 680.351 328.643 673.75 354.162 653.422C376.123 635.929 394.604 611.641 410.906 590.212C412.072 588.679 413.222 587.167 414.362 585.676C440.899 550.899 470.976 511.483 505.445 476.582C523.686 458.115 541.632 442.366 560.31 428.437C581.32 412.77 602.628 399.851 625.45 388.941C653.297 375.628 683.22 366.229 714.387 361.008C744.28 355.997 775.332 354.814 806.683 357.492C867.476 362.684 928.162 382.253 982.181 414.079C1033.21 444.143 1079.17 481.609 1118.78 525.434C1137.81 546.488 1155.28 568.975 1170.71 592.275C1185.98 615.316 1199.39 639.377 1210.59 663.79C1228.43 702.663 1240.78 744.77 1248.34 792.52C1255.71 838.964 1257.68 885.143 1258.63 924.191L1258.23 924.197Z" fill="#426E97"/>
<path d="M1281.04 939.357C1276.79 840.94 1266.03 758.818 1227.28 677.907C1177.59 574.145 1094 484.174 991.909 424.569C930.997 389.006 865.022 369.348 800.638 366.173C745.422 363.449 691.381 372.836 642.656 394.702C546.47 437.863 486.576 513.724 428.652 587.086L425.461 591.128C424.403 592.478 423.328 593.849 422.243 595.24C392.96 632.673 354.033 682.432 304.563 679.992C298.518 679.695 292.319 678.618 285.955 676.641C254.852 666.989 229.22 643.325 204.429 620.44C195.509 612.206 187.08 604.425 178.502 597.378C150.261 574.178 78.0689 515.698 17.7965 473.888C-89.6699 399.335 -180.775 382.591 -268.913 421.191C-380.524 470.07 -449.762 573.594 -510.847 664.932C-520.518 679.392 -529.655 693.051 -538.899 706.434L-539.186 706.237C-529.941 692.857 -520.807 679.198 -511.136 664.737C-450.022 573.36 -380.756 469.792 -269.051 420.87C-243.89 409.852 -217.874 403.334 -191.726 401.501C-167.691 399.816 -142.782 402.038 -117.689 408.105C-75.0528 418.416 -30.6692 439.839 17.999 473.599C78.2822 515.417 150.483 573.902 178.726 597.105C187.312 604.157 195.741 611.941 204.667 620.178C229.427 643.036 255.033 666.673 286.058 676.301C344.251 694.363 389.166 636.942 421.965 595.015C423.05 593.628 424.125 592.256 425.183 590.904L428.377 586.862C457.004 550.605 486.603 513.114 520.91 479.501C539.432 461.355 557.623 445.96 576.528 432.431C597.828 417.187 619.413 404.741 642.513 394.373C670.112 381.989 699.662 373.46 730.349 369.021C759.637 364.785 790.068 364.25 820.798 367.434C879.62 373.527 938.851 393.177 992.084 424.255C1094.23 483.896 1177.87 573.918 1227.59 677.743C1246.31 716.837 1259.62 759.077 1268.26 806.876C1276.89 854.575 1279.81 902.717 1281.39 939.33L1281.04 939.357Z" fill="#426E97"/>
<path d="M1303.84 954.519C1298.64 869.859 1287.82 779.445 1244.33 691.866C1191.02 585.425 1104.9 494.102 1001.84 434.723C939.746 398.666 872.575 378.665 807.521 375.458C755.694 372.901 705.22 380.995 659.686 400.108C562.277 441 501.467 515.949 442.661 588.43C440.514 591.074 438.373 593.714 436.235 596.347C435.082 597.769 433.916 599.217 432.733 600.68C403.062 637.433 363.8 686.067 315.175 683.669C308.201 683.326 301.038 681.933 293.678 679.303C263.866 668.652 240.118 645.08 217.152 622.279C208.194 613.386 199.733 604.986 191.02 597.432C148.894 560.908 86.359 509.356 37.1751 474.217C-67.8641 399.168 -162.374 382.251 -251.756 422.498C-366.607 474.212 -438.267 581.227 -501.491 675.648C-511.861 691.137 -521.659 705.765 -531.565 720.058L-531.811 719.888C-521.905 705.598 -512.109 690.967 -501.739 675.48C-438.492 581.03 -366.807 473.977 -251.881 422.225C-226.356 410.732 -200.043 403.801 -173.678 401.628C-149.347 399.622 -124.224 401.609 -99.0128 407.535C-55.5256 417.754 -10.9234 439.488 37.3452 473.974C86.5372 509.121 149.08 560.676 191.212 597.205C199.93 604.765 208.397 613.17 217.358 622.066C240.301 644.842 264.023 668.393 293.773 679.02C352.242 699.906 398.626 642.444 432.496 600.488C433.678 599.022 434.847 597.575 435.998 596.152C438.136 593.52 440.277 590.879 442.423 588.236C471.466 552.438 501.499 515.42 536.306 482.422C555.098 464.605 573.549 449.559 592.71 436.421C614.304 421.615 636.173 409.644 659.565 399.824C686.915 388.342 716.103 380.66 746.317 376.991C775.012 373.506 804.829 373.608 834.944 377.294C891.804 384.251 949.563 404.02 1001.98 434.458C1055.03 465.021 1103.39 503.697 1145.71 549.409C1165.72 571.022 1184.34 594.219 1201.04 618.351C1217.35 641.91 1232 666.598 1244.58 691.726C1264.15 731.128 1278.39 773.508 1288.12 821.291C1295.87 859.41 1300.81 900.492 1304.13 954.495L1303.84 954.519Z" fill="#426E97"/>
<path d="M1326.65 969.679C1319.91 885.051 1307.35 794.513 1261.38 705.822C1205.3 597.637 1116.66 504.966 1011.77 444.875C899.415 380.512 777.296 366.165 676.72 405.513C578.087 444.1 516.384 518.233 456.711 589.926C453.471 593.819 450.242 597.699 447.016 601.563C445.768 603.058 444.499 604.581 443.211 606.125C426.237 626.515 405.111 651.891 381.365 668.614C368.349 677.781 355.967 683.477 343.515 686.031C329.39 688.928 315.223 687.562 301.411 681.965C272.759 670.359 250.798 646.807 229.564 624.034C220.687 614.511 212.301 605.518 203.548 597.486C166.168 563.184 105.245 510.406 56.5629 474.546C-6.03943 428.432 -65.4748 404.058 -122.907 401.225C-160.897 399.352 -198.002 406.895 -234.593 423.807C-352.684 478.383 -426.782 588.903 -492.157 686.415C-503.219 702.914 -513.667 718.498 -524.221 733.682L-524.424 733.541C-513.87 718.357 -503.421 702.776 -492.36 686.277C-426.966 588.738 -352.848 478.188 -234.696 423.583C-208.799 411.615 -182.186 404.271 -155.597 401.752C-130.958 399.419 -105.622 401.166 -80.2865 406.944C-57.1322 412.225 -33.2598 421.04 -9.33335 433.146C12.0795 443.981 34.2996 457.845 56.7087 474.349C105.396 510.212 166.33 563 203.712 597.305C212.471 605.343 220.862 614.341 229.742 623.866C250.96 646.621 272.9 670.153 301.502 681.739C327.475 692.26 353.551 687.9 381.225 668.415C404.943 651.713 426.059 626.35 443.023 605.969C444.308 604.425 445.577 602.902 446.827 601.406C450.053 597.543 453.282 593.663 456.522 589.77C485.975 554.385 516.433 517.793 551.731 485.378C570.789 467.875 589.494 453.169 608.912 440.417C630.8 426.043 652.95 414.552 676.628 405.289C703.713 394.692 732.532 387.858 762.282 384.98C790.334 382.267 819.522 383.031 849.037 387.253C876.981 391.252 905.365 398.361 933.401 408.388C960.168 417.959 986.573 430.166 1011.88 444.667C1066.04 475.691 1115.61 514.985 1159.22 561.461C1179.78 583.371 1198.98 606.9 1216.29 631.394C1233.15 655.242 1248.39 680.246 1261.59 705.711C1282.11 745.286 1297.31 787.793 1308.09 835.659C1316.8 874.37 1322.6 915.7 1326.89 969.663L1326.65 969.679Z" fill="#426E97"/>
<path d="M1313.29 921.319C1165.23 757.776 971.564 649.081 767.973 615.259C730.264 608.996 693.238 606.236 657.273 606.936C571.316 608.607 491.316 630.004 421.764 670.415C395.875 685.459 370.825 705.738 346.599 725.35C306.743 757.617 265.532 790.979 217.563 804.263C185.291 813.199 149.215 811.115 107.275 797.885C70.6916 786.346 34.2323 767.765 2.06579 751.372C-7.44323 746.525 -16.4231 741.949 -25.2679 737.605L-29.7038 735.426C-134.759 683.829 -243.389 630.476 -360.486 612.576C-433.119 601.474 -531.065 601.914 -585.217 667.06C-626.455 716.67 -622.548 786.049 -619.408 841.796L-620.486 841.856C-622 814.946 -623.888 781.457 -619.827 750.157C-615.364 715.752 -604.313 688.345 -586.046 666.368C-531.573 600.834 -433.229 600.361 -360.322 611.507C-243.063 629.431 -134.354 682.821 -29.2286 734.454L-24.7927 736.633C-15.9398 740.98 -6.95723 745.559 2.55448 750.405C69.4605 784.505 145.292 823.151 217.274 803.218C265.027 789.994 306.149 756.701 345.918 724.505C370.177 704.869 395.259 684.56 421.221 669.476C472.249 639.826 528.876 620.265 589.532 611.336C646.338 602.975 706.432 603.933 768.149 614.188C819.744 622.76 871.541 636.408 922.102 654.753C971.375 672.632 1020.02 695.165 1066.69 721.73C1112.53 747.824 1156.87 778.039 1198.49 811.533C1239.75 844.747 1278.65 881.439 1314.09 920.587L1313.29 921.319Z" fill="#426E97"/>
<path d="M1297.44 905.616C1154.01 745.964 968.971 640.53 776.396 608.737C742.542 603.177 709.088 600.737 676.343 601.374C590.395 603.045 509.204 625.884 437.538 669.047C411.813 684.539 386.858 705.271 362.724 725.32C322.474 758.759 280.853 793.336 232.222 807.416C199.71 816.75 163.702 814.536 122.142 800.65C85.9286 788.552 50.1848 769.156 18.6501 752.041C10.4046 747.568 2.61806 743.342 -5.08203 739.284L-6.71277 738.423C-109.317 684.155 -215.412 628.038 -331.429 606.201C-389.347 595.299 -496.279 587.202 -561.727 655.45C-612.655 708.557 -619.769 781.81 -622.693 852.291L-623.719 852.248C-622.301 818.075 -619.801 781.724 -611.172 747.438C-601.55 709.202 -585.621 678.882 -562.469 654.74C-535.619 626.739 -499.032 608.858 -453.728 601.593C-417.223 595.737 -374.867 596.984 -331.24 605.194C-215.069 627.058 -108.904 683.213 -6.23219 737.519L-4.60144 738.38C3.10135 742.438 10.8932 746.666 19.1387 751.142C84.881 786.819 159.395 827.255 231.936 806.431C280.359 792.41 321.896 757.903 362.065 724.532C386.229 704.458 411.214 683.702 437.003 668.169C487.081 638.009 542.272 617.619 601.043 607.562C657.755 597.859 716.807 597.915 776.558 607.727C825.963 615.883 875.62 629.113 924.142 647.048C971.123 664.414 1017.61 686.391 1062.31 712.375C1105.89 737.708 1148.18 767.082 1188.01 799.678C1227.19 831.748 1264.26 867.159 1298.2 904.933L1297.44 905.616Z" fill="#426E97"/>
<path d="M1281.6 889.912C1142.86 734.166 966.434 631.994 784.823 602.211C668.852 583.393 551.121 606.642 453.314 667.673C427.798 683.597 402.986 704.756 378.989 725.218C338.315 759.904 296.256 795.772 246.884 810.565C234.615 814.242 221.896 816.21 208.623 816.469C186.541 816.898 162.922 812.589 137.257 803.51C101.492 790.855 66.5336 770.628 35.69 752.782C28.5488 748.648 21.8045 744.747 15.1115 740.964L14.7686 740.767C-84.9168 684.034 -187.993 625.368 -302.363 599.822C-348.037 589.619 -462.453 573.484 -538.226 643.827C-599.762 700.954 -616.766 782.812 -625.975 862.762L-626.941 862.651C-623.081 829.124 -616.833 785.418 -602.68 744.709C-588.044 702.609 -567.177 669.379 -538.887 643.115C-509.747 616.062 -471.86 599.039 -426.28 592.516C-388.131 587.057 -345.211 589.255 -302.153 598.872C-187.64 624.45 -84.4983 683.151 15.2465 739.919L15.5893 740.114C22.2824 743.896 29.0294 747.8 36.1733 751.934C97.4257 787.375 173.657 831.483 246.603 809.628C295.779 794.894 337.759 759.094 378.357 724.473C402.378 703.986 427.22 682.806 452.799 666.844C501.964 636.165 555.721 614.952 612.578 603.796C669.079 592.71 727.081 591.855 784.977 601.247C832.204 608.993 879.716 621.804 926.195 639.327C970.892 656.179 1015.22 677.603 1057.94 703.004C1099.27 727.573 1139.51 756.105 1177.55 787.804C1214.64 818.718 1249.89 852.85 1282.32 889.261L1281.6 889.912Z" fill="#426E97"/>
<path d="M1265.75 874.209C1131.76 722.386 963.952 623.472 793.249 595.685C682.202 577.893 567.079 602.969 469.092 666.298C443.799 682.646 419.141 704.196 395.296 725.037C354.182 760.972 311.667 798.128 261.549 813.709C249.17 817.557 236.383 819.614 223.094 819.873C200.942 820.305 177.377 815.74 151.885 806.147C116.435 792.804 82.1951 771.607 51.986 752.905C46.2082 749.328 40.7491 745.95 35.3088 742.635L30.5894 739.759C-64.4576 681.866 -162.742 622.001 -273.294 593.436C-305.28 585.172 -336.89 581.424 -366.926 582.007C-424.769 583.131 -476.809 600.305 -514.716 632.193C-589.883 695.424 -614.798 789.516 -629.256 873.215L-630.16 873.058C-620.87 819.274 -609.482 777.604 -594.319 741.917C-585.058 720.123 -574.137 700.165 -561.858 682.605C-548.389 663.342 -532.727 646.143 -515.307 631.488C-499.259 617.989 -480.821 607 -460.504 598.83C-441.624 591.238 -420.943 585.995 -399.031 583.252C-359.375 578.287 -315.815 581.5 -273.062 592.545C-246.473 599.416 -220.063 608.159 -192.327 619.277C-167.65 629.166 -142.506 640.714 -115.453 654.578C-65.254 680.302 -16.2861 710.128 31.07 738.974L35.7894 741.849C41.2323 745.165 46.6915 748.545 52.472 752.122C112.658 789.381 187.558 835.749 261.279 812.829C311.211 797.305 353.653 760.214 394.697 724.34C418.566 703.478 443.251 681.906 468.601 665.523C516.899 634.307 569.228 612.284 624.133 600.062C680.312 587.558 737.264 585.779 793.403 594.772C882.048 609.201 969.587 642.463 1053.58 693.637C1092.65 717.439 1130.84 745.129 1167.09 775.938C1202.08 805.683 1235.51 838.538 1266.45 873.596L1265.75 874.209Z" fill="#426E97"/>
<path d="M1249.9 858.503C1120.72 710.622 961.536 614.968 801.673 589.16C778.437 585.485 754.881 583.903 731.259 584.362C646.92 586.001 561.504 613.639 484.865 664.927C459.826 681.682 436.439 702.612 411.679 724.772C370.098 761.985 327.099 800.464 276.206 816.86C242.984 827.563 207.251 824.944 166.969 808.85C131.997 794.88 98.5941 772.787 69.1248 753.294C64.4108 750.176 59.956 747.23 55.4984 744.314L48.4733 739.719C-42.5778 680.167 -136.728 618.591 -244.23 587.062C-336.59 559.974 -428.921 572.499 -491.21 620.562C-580.517 689.474 -613.653 797.37 -632.542 883.669L-633.387 883.485C-620.527 824.736 -605.494 778.843 -586.077 739.057C-574.494 715.325 -561.146 693.651 -546.402 674.633C-530.305 653.87 -511.913 635.449 -491.737 619.879C-474.798 606.806 -455.645 596.231 -434.815 588.444C-415.273 581.138 -394.112 576.227 -371.919 573.848C-330.853 569.448 -286.613 573.73 -243.984 586.233C-195.726 600.386 -145.903 621.861 -91.6699 651.878C-43.4013 678.593 3.54444 709.299 48.9485 738.995L55.9736 743.591C60.4338 746.506 64.8887 749.452 69.6054 752.573C128.46 791.503 201.706 839.952 275.944 816.037C326.665 799.7 369.593 761.28 411.106 724.127C434.801 702.922 459.299 680.996 484.39 664.208C507.671 648.63 532.183 635.004 557.246 623.71C582.817 612.19 609.208 602.988 635.686 596.36C691.447 582.402 747.34 579.691 801.816 588.306C885.858 601.873 969.093 634.164 1049.21 684.277C1086.03 707.304 1122.16 734.152 1156.61 764.075C1189.5 792.634 1221.1 824.212 1250.56 857.934L1249.9 858.503Z" fill="#426E97"/>
<path d="M-635.832 894.115L-636.617 893.915C-628.96 864.092 -620.92 837.674 -612.037 813.148C-601.745 784.729 -590.587 759.528 -577.927 736.101C-564.036 710.396 -548.263 686.996 -531.051 666.547C-512.314 644.286 -491.158 624.679 -468.176 608.267C-450.39 595.567 -430.556 585.361 -409.224 577.934C-389.029 570.903 -367.384 566.321 -344.894 564.313C-302.492 560.525 -257.544 565.922 -214.913 579.913C-168.143 595.261 -120.166 617.789 -68.2363 648.787C-22.0033 676.382 22.8148 707.863 66.1562 738.307C69.4905 740.648 72.8222 742.989 76.1512 745.327C79.7069 747.821 83.2411 750.322 86.9804 752.967C144.407 793.59 215.879 844.145 290.601 819.239C342.147 802.057 385.591 762.277 427.604 723.809C452.17 701.313 475.376 680.065 500.172 662.888C522.859 647.17 546.612 633.306 570.771 621.68C595.85 609.609 621.58 599.851 647.245 592.678C702.499 577.234 757.331 573.584 810.219 581.835C889.704 594.551 968.635 625.867 1044.83 674.914C1079.39 697.161 1113.47 723.169 1146.13 752.211C1176.89 779.567 1206.68 809.868 1234.67 842.272L1234.05 842.801C1109.76 698.883 959.188 606.49 810.092 582.637C789.551 579.432 768.643 578.055 747.571 578.465C664.627 580.077 578.903 609.331 500.631 663.555C475.881 680.702 452.697 701.931 428.149 724.408C386.074 762.935 342.566 802.772 290.857 820.008C257.435 831.148 221.88 828.375 182.162 811.531C147.717 796.922 115.202 773.921 86.5133 753.632C82.7713 750.986 79.2399 748.486 75.6868 745.991C72.3551 743.653 69.0235 741.312 65.6891 738.971C-21.1718 677.959 -110.989 614.871 -215.167 580.682C-306.545 550.694 -400.952 561.254 -467.707 608.926C-570.707 682.487 -611.659 799.978 -635.832 894.115Z" fill="#426E97"/>
<path d="M-639.114 904.558L-639.84 904.347C-620.106 835.908 -597.209 779.874 -569.842 733.045C-553.649 705.33 -535.457 680.2 -515.774 658.35C-494.378 634.596 -470.435 613.839 -444.608 596.657C-426.006 584.281 -405.506 574.413 -383.68 567.325C-362.836 560.559 -340.708 556.302 -317.905 554.666C-274.223 551.534 -228.555 558.078 -185.834 573.592C-140.622 590.007 -94.5457 613.483 -44.9703 645.355C-0.821725 673.742 41.8096 705.913 83.0342 737.024C87.4701 740.372 91.9061 743.72 96.342 747.062C99.0689 749.117 101.831 751.207 104.625 753.324C160.532 795.655 230.111 848.333 305.276 822.441C357.689 804.384 401.681 763.2 444.225 723.374C468.541 700.611 491.509 679.109 515.97 661.568C538.114 645.687 561.115 631.58 584.331 619.636C608.94 606.976 634.012 596.644 658.848 588.925C713.564 571.918 767.324 567.352 818.641 575.363C893.571 587.056 968.209 617.354 1040.49 665.412C1103.08 707.031 1163.07 761.264 1218.79 826.604L1218.21 827.095C1133.57 727.842 995.522 603.733 818.525 576.111C800.36 573.276 781.795 572.058 762.993 572.425C681.972 574 596.267 604.919 516.412 662.183C491.992 679.698 469.04 701.181 444.744 723.927C402.142 763.807 358.091 805.048 305.524 823.156C292.462 827.657 279.567 829.801 266.891 830.046C206.26 831.226 150.531 789.027 104.172 753.928C101.377 751.812 98.6152 749.722 95.891 747.667C91.4551 744.325 87.0193 740.98 82.5833 737.629C0.00718873 675.31 -85.3822 610.869 -186.088 574.302C-276.648 541.42 -373.134 550.011 -444.187 597.283C-562.113 675.748 -611.912 810.226 -639.114 904.558Z" fill="#426E97"/>
<path d="M-642.397 914.996L-643.066 914.785C-619.758 840.822 -593.183 780.344 -561.821 729.889C-543.324 700.133 -522.716 673.267 -500.566 650.037C-476.497 624.793 -449.741 602.929 -421.046 585.048C-401.642 572.958 -380.489 563.4 -358.174 556.637C-336.688 550.127 -314.069 546.185 -290.944 544.927C-246.023 542.479 -199.626 550.206 -156.759 567.272C-113.124 584.645 -68.9563 608.974 -21.7379 641.648C20.3237 670.753 60.7519 703.559 99.849 735.283C105.408 739.795 110.964 744.303 116.524 748.801C118.5 750.4 120.498 752.02 122.515 753.656C167.427 790.091 221.439 833.905 281.53 832.736C294.082 832.493 306.887 830.29 319.944 825.646C373.272 806.679 417.853 764.042 460.965 722.807C484.988 699.828 507.681 678.126 531.764 660.248C577.26 626.477 623.919 601.252 670.447 585.277C724.49 566.721 777.181 561.208 827.054 568.889C863.567 574.513 900.375 585.177 936.453 600.591C969.856 614.86 1003.39 633.516 1036.11 656.039C1093.69 695.665 1149.8 747.781 1202.9 810.937L1202.36 811.388C1121.3 714.969 990.367 594.751 826.946 569.58C809.834 566.945 792.916 565.914 776.317 566.235C678.792 568.13 591.602 616.696 532.18 660.807C508.132 678.658 485.455 700.347 461.448 723.309C418.282 764.593 373.648 807.284 320.179 826.299C307.546 830.792 294.724 833.173 281.616 833.427C259.691 833.853 236.96 828.338 212.923 816.836C179.682 800.928 149.076 776.1 122.072 754.193C120.058 752.557 118.06 750.94 116.083 749.339C110.524 744.841 104.968 740.332 99.4089 735.82C21.1228 672.297 -59.8253 606.612 -157.019 567.917C-246.882 532.138 -345.447 538.763 -420.674 585.636C-552.207 667.6 -610.211 812.862 -642.397 914.996Z" fill="#426E97"/>
<path d="M-645.68 925.431L-646.293 925.223C-619.364 845.587 -589.125 780.628 -553.849 726.636C-533.051 694.807 -510.027 666.201 -485.417 641.616C-458.661 614.887 -429.076 591.952 -397.487 573.444C-377.289 561.61 -355.488 552.339 -332.687 545.883C-310.559 539.62 -287.445 535.994 -263.988 535.105C-217.869 533.356 -170.734 542.298 -127.687 560.951C-85.5986 579.189 -43.3075 604.306 1.60243 637.734C41.6121 667.516 79.8669 700.922 116.861 733.229C123.362 738.907 130.088 744.779 136.708 750.532C138.017 751.669 139.332 752.816 140.658 753.969C193.246 799.732 258.694 856.687 334.612 828.843C388.913 808.926 434.122 764.774 477.844 722.078C501.53 698.948 523.902 677.101 547.555 658.922C592.519 624.372 637.772 598.372 682.059 581.649C735.357 561.524 786.971 555.052 835.466 562.415C869.874 567.639 904.537 577.885 938.497 592.87C969.68 606.631 1001.05 624.731 1031.74 646.668C1084.26 684.215 1136.5 734.214 1187.01 795.27L1186.51 795.683C1073.94 659.605 955.795 581.338 835.369 563.055C723.567 546.08 617.361 606.099 547.95 659.435C524.325 677.589 501.968 699.423 478.295 722.54C434.524 765.285 389.263 809.484 334.834 829.45C300.926 841.886 266.14 838.624 228.488 819.479C195.924 802.921 166.336 777.172 140.231 754.455C138.905 753.302 137.588 752.155 136.281 751.018C129.661 745.265 122.936 739.393 116.434 733.715C42.3762 669.039 -34.2035 602.163 -127.946 561.543C-169.973 543.332 -214.54 534.727 -258.203 535.575C-307.265 536.528 -355.191 549.409 -397.161 574C-507.497 638.649 -586.469 750.316 -645.68 925.431Z" fill="#426E97"/>
<path d="M-648.963 935.864L-649.521 935.664C-618.924 850.22 -585.035 780.75 -545.916 723.288C-522.818 689.358 -497.38 659.009 -470.311 633.087C-440.855 604.881 -408.427 580.909 -373.927 561.84C-352.936 550.238 -330.489 541.231 -307.205 535.068C-284.431 529.041 -260.821 525.723 -237.027 525.208C-213.446 524.703 -189.711 526.935 -166.473 531.86C-143.117 536.809 -120.286 544.471 -98.6169 554.628C-58.0214 573.657 -17.5446 599.514 25.1326 633.676C63.1524 664.112 99.285 698.111 134.224 730.99C141.646 737.975 149.322 745.197 156.887 752.266L159.05 754.285C209.846 801.76 273.063 860.844 349.281 832.045C404.616 811.134 450.508 765.401 494.892 721.171C518.184 697.96 540.185 676.034 563.353 657.602C664.167 577.391 758.552 543.189 843.885 555.943C876.2 560.773 908.723 570.604 940.547 585.159C969.525 598.412 998.737 615.956 1027.37 637.307C1075.46 673.162 1122.48 719.71 1171.13 779.605L1170.67 779.98C1062.06 646.265 955.14 573.174 843.796 556.532C758.633 543.802 664.402 577.963 563.723 658.066C540.582 676.477 518.592 698.392 495.313 721.592C450.886 765.865 404.948 811.644 349.495 832.601C336.794 837.401 324.032 839.931 311.113 840.182C289.417 840.606 267.272 834.602 244.185 822.12C212.351 804.911 183.821 778.247 158.648 754.72L156.485 752.7C148.917 745.632 141.241 738.41 133.819 731.423C63.8759 665.605 -8.44869 597.548 -98.868 555.163C-187.562 513.587 -290.279 516.276 -373.639 562.353C-494.062 628.924 -581.549 747.606 -648.963 935.864Z" fill="#426E97"/>
<path d="M-652.243 946.296L-652.748 946.107C-618.43 854.732 -580.901 780.723 -538.014 719.848C-512.61 683.788 -484.761 651.695 -455.238 624.456C-423.074 594.778 -387.789 569.807 -350.366 550.238C-328.58 538.845 -305.485 530.086 -281.718 524.206C-258.294 518.409 -234.181 515.394 -210.05 515.248C-185.953 515.102 -161.824 517.813 -138.333 523.304C-114.565 528.861 -91.422 537.273 -69.5421 548.311C-30.3613 568.077 8.38752 594.646 48.9183 629.54C85.0266 660.626 119.105 695.228 152.059 728.69C160.248 737.006 168.715 745.602 177.074 754.004L177.695 754.631C226.614 803.801 287.494 864.997 363.958 835.252C420.402 813.297 467.037 765.895 512.136 720.056C534.971 696.845 556.541 674.919 579.152 656.287C623.962 619.364 665.238 592.602 705.34 574.473C729.814 563.408 753.981 555.617 777.165 551.318C802.882 546.55 828.161 545.932 852.303 549.48C882.536 553.924 912.916 563.336 942.593 577.461C969.381 590.21 996.434 607.201 1023 627.957C1046.33 646.187 1070.15 668.013 1093.79 692.83C1113.74 713.765 1133.84 737.028 1155.25 763.948L1154.83 764.286C1089.19 681.745 986.401 569.732 852.225 550.017C770.418 537.997 681.208 572.896 579.495 656.709C556.905 675.322 535.344 697.237 512.519 720.439C467.38 766.321 420.707 813.764 364.152 835.763C351.43 840.711 338.716 843.314 325.911 843.563C304.366 843.981 282.561 837.736 260.012 824.777C228.955 806.928 201.519 779.348 177.312 755.017L176.691 754.393C168.332 745.991 159.862 737.392 151.673 729.076C85.7043 662.092 17.4916 592.826 -69.7851 548.799C-157.958 504.319 -262.754 505.039 -350.115 550.722C-480.484 618.886 -576.487 744.585 -652.243 946.296Z" fill="#426E97"/>
<path d="M-655.525 956.726L-655.979 956.547C-617.888 859.135 -576.729 780.555 -530.142 716.317C-502.433 678.108 -472.173 644.262 -440.201 615.719C-405.318 584.575 -367.169 558.64 -326.813 538.629C-304.229 527.43 -280.48 518.903 -256.233 513.29C-232.155 507.718 -207.535 505.002 -183.058 505.22C-158.443 505.439 -133.922 508.627 -110.177 514.694C-86.0101 520.869 -62.5588 530.051 -40.4791 541.985C-20.1948 552.949 -0.669255 565.487 19.2181 580.32C36.9267 593.528 54.5084 608.259 72.9703 625.357C107.253 657.105 139.35 692.331 170.39 726.395C179.176 736.037 188.264 746.01 197.246 755.735C219.105 779.397 246.309 808.847 276.658 827.277C311.371 848.357 344.725 852.01 378.625 838.451C436.27 815.389 483.713 766.221 529.595 718.674C551.898 695.56 572.966 673.726 594.946 654.962C615.392 637.507 634.167 622.773 652.343 609.925C674.525 594.244 696.278 581.114 716.997 570.909C740.953 559.107 764.528 550.703 787.07 545.926C812.303 540.581 837.08 539.598 860.715 543.005C888.883 547.066 917.115 556.067 944.633 569.758C969.248 582.005 994.141 598.439 1018.62 618.605C1040.03 636.241 1061.19 656.638 1083.31 680.967C1101.05 700.471 1118.86 721.859 1139.36 748.281L1138.98 748.578C1071.88 662.097 979.596 560.635 860.644 543.486C757.603 528.631 659.835 600.202 595.261 655.331C573.301 674.079 552.241 695.905 529.946 719.011C484.029 766.597 436.548 815.802 378.806 838.902C366.07 843.997 353.408 846.675 340.727 846.921C319.505 847.334 298.222 840.944 276.404 827.692C245.995 809.228 218.767 779.75 196.887 756.064C187.902 746.337 178.814 736.366 170.029 726.722C107.885 658.52 43.6225 587.996 -40.714 542.414C-129.697 494.318 -233.899 493.098 -326.6 539.066C-510.757 630.39 -602.521 821.169 -655.525 956.726Z" fill="#426E97"/>
<path d="M-658.807 967.155L-659.207 966.993C-639.495 918.287 -619.756 875.332 -598.864 835.67C-574.933 790.239 -549.17 748.869 -522.29 712.712C-492.27 672.33 -459.599 636.732 -425.186 606.901C-387.576 574.302 -346.554 547.427 -303.259 527.027C-279.864 516.003 -255.463 507.698 -230.732 502.342C-205.998 496.985 -180.865 494.561 -156.037 495.141C-130.903 495.727 -105.991 499.396 -81.992 506.043C-57.4338 512.844 -33.6856 522.81 -11.4142 535.661C8.21131 546.985 27.0134 559.882 46.0638 575.093C63.0245 588.636 79.7908 603.709 97.3158 621.172C129.855 653.601 160.05 689.482 189.25 724.181C198.462 735.126 207.987 746.447 217.426 757.465C259.263 806.309 316.56 873.202 393.299 841.651C452.249 817.414 500.582 766.359 547.325 716.983C569.008 694.08 589.49 672.446 610.746 653.636C641.549 626.378 682.79 591.94 728.68 567.363C752.099 554.82 775.08 545.797 796.987 540.545C821.723 534.614 845.995 533.264 869.133 536.528C895.244 540.213 921.336 548.804 946.677 562.058C969.137 573.808 991.87 589.686 1014.24 609.252C1056.15 645.903 1091.51 690.2 1123.48 732.61L1123.14 732.869C1053.01 639.842 973.7 551.723 869.071 536.954C859.579 535.615 850.113 535.078 840.714 535.262C754.893 536.93 673.777 598.434 611.032 653.957C589.789 672.754 569.316 694.382 547.639 717.277C500.866 766.685 452.497 817.775 393.461 842.047C380.715 847.288 368.118 850.036 355.574 850.279C334.798 850.684 314.163 844.221 293.209 830.84C263.405 811.806 237.729 781.829 217.096 757.743C207.655 746.722 198.13 735.402 188.918 724.456C130.446 654.972 69.9821 583.12 -11.6302 536.034C-60.3335 507.933 -114.429 494.345 -169.342 495.411C-214.195 496.283 -259.588 506.924 -303.075 527.416C-499.949 620.184 -600.387 822.811 -658.807 967.155Z" fill="#426E97"/>
<path d="M-662.087 977.585L-662.436 977.439C-640.934 925.879 -619.537 880.518 -597.025 838.765C-571.112 790.701 -543.33 747.052 -514.455 709.029C-482.121 666.455 -447.041 629.099 -410.19 597.996C-390.422 581.311 -369.67 566.019 -348.509 552.544C-326.461 538.504 -303.312 526.017 -279.705 515.428C-255.495 504.569 -230.432 496.472 -205.215 491.364C-179.814 486.218 -154.168 484.085 -128.986 485.022C-103.334 485.978 -78.0281 490.13 -53.7777 497.363C-28.8361 504.802 -4.80436 515.561 17.6479 529.344C36.8009 541.102 55.0495 554.455 73.433 570.163C89.7998 584.149 105.894 599.692 122.63 617.676C153.706 651.068 182.233 687.924 209.823 723.566C218.898 735.289 228.283 747.411 237.594 759.201C256.067 782.404 281.365 814.185 310.232 833.6C342.447 855.266 374.417 858.949 407.963 844.858C468.308 819.242 517.654 766.181 565.375 714.869C586.326 692.341 606.116 671.061 626.535 652.321C660.907 620.773 698.487 588.231 740.357 563.918C763.217 550.643 785.602 541.004 806.888 535.267C831.114 528.739 854.884 526.987 877.539 530.065C923.086 536.431 966.365 559.304 1009.85 599.994C1046.32 634.124 1076.89 674.792 1107.59 716.951L1107.28 717.172C1054.39 644.526 981.946 545.035 877.487 530.437C868.845 529.263 860.246 528.787 851.72 528.955C771.444 530.515 696.4 588.709 626.789 652.596C606.38 671.328 586.596 692.601 565.65 715.126C517.902 766.47 468.53 819.56 408.106 845.207C395.387 850.55 382.889 853.347 370.524 853.587C350.156 853.984 330.133 847.442 310.016 833.913C297.446 825.46 284.681 814.188 270.987 799.457C259.172 786.746 248.305 773.273 237.292 759.439C227.977 747.649 218.593 735.523 209.518 723.801C154.252 652.399 97.1003 578.568 17.4427 529.668C-70.5494 475.651 -178.802 470.589 -279.559 515.779C-488.978 609.703 -598.173 824.32 -662.087 977.585Z" fill="#426E97"/>
<path d="M-665.367 988.012L-665.664 987.885C-642.353 933.436 -619.302 885.662 -595.192 841.832C-567.291 791.109 -537.495 745.165 -506.632 705.277C-471.985 660.494 -434.497 621.378 -395.211 589.011C-374.108 571.627 -351.977 555.762 -329.433 541.861C-305.928 527.365 -281.273 514.57 -256.153 503.827C-231.117 493.122 -205.387 485.222 -179.681 480.349C-153.608 475.405 -127.438 473.556 -101.9 474.849C-75.7299 476.175 -50.0324 480.813 -25.5281 488.635C-0.211276 496.716 24.0932 508.285 46.7128 523.015C65.2422 535.084 82.7969 548.751 100.376 564.793C116.024 579.076 131.327 594.924 147.157 613.24C176.545 647.245 203.22 684.696 229.018 720.912C238.402 734.085 248.103 747.708 257.769 760.924C279.419 790.404 301.005 818.391 327.013 836.824C358.007 858.793 389.286 862.464 422.637 848.052C484.592 821.132 535.028 765.838 583.802 712.367C603.892 690.341 622.869 669.536 642.338 650.99C668.884 625.703 708.999 587.489 752.078 560.379C774.69 546.151 795.868 536.172 816.824 529.878C840.526 522.759 863.789 520.642 885.96 523.588C926.199 529.028 964.13 549.793 1001.92 587.068C1034.64 619.337 1062.16 658.855 1086.44 693.721C1088.21 696.267 1089.97 698.789 1091.71 701.281L1091.44 701.467C1089.7 698.975 1087.95 696.454 1086.17 693.908C1037.22 623.613 976.298 536.131 885.917 523.912C789.65 511.125 701.134 595.434 642.562 651.228C623.102 669.768 604.127 690.568 584.042 712.588C559.965 738.988 535.066 766.284 508.545 790.232C478.59 817.279 450.533 836.292 422.77 848.355C389.305 862.815 357.921 859.13 326.829 837.094C300.783 818.632 279.179 790.623 257.512 761.121C247.847 747.903 238.143 734.279 228.758 721.106C177.066 648.533 123.611 573.49 46.5374 523.291C-4.55536 490.015 -63.44 473.786 -124.444 474.971C-167.901 475.816 -212.428 485.49 -256.023 504.13C-477.86 598.977 -595.888 825.714 -665.367 988.012Z" fill="#426E97"/>
<path d="M-668.648 998.439L-668.896 998.331C-643.763 940.966 -619.057 890.77 -593.364 844.874C-563.047 790.715 -532.12 743.804 -498.82 701.459C-480.792 678.534 -461.961 656.924 -442.848 637.223C-422.723 616.48 -401.659 597.211 -380.24 579.95C-357.802 561.869 -334.294 545.44 -310.367 531.123C-285.404 516.184 -259.239 503.098 -232.602 492.226C-206.729 481.664 -180.327 473.955 -154.133 469.309C-135.128 465.939 -116.148 464.168 -97.4647 464.017C-141.351 464.384 -186.842 473.837 -232.502 492.474C-466.607 588.037 -593.54 827.004 -668.648 998.439ZM400.247 860.353C380.786 860.731 362.054 854.057 343.63 840.274C318.329 821.35 297.197 791.627 277.72 762.803C267.857 748.208 257.998 733.126 248.464 718.538C200.214 644.723 150.32 568.395 75.6226 516.911C27.2622 483.578 -27.4484 465.904 -85.1991 464.149C-81.7135 464.255 -78.2387 464.417 -74.7802 464.635C-48.0891 466.328 -22.0027 471.458 2.75525 479.874C28.4366 488.605 53.0056 500.992 75.7738 516.687C93.7307 529.063 110.638 543.046 127.458 559.431C142.431 574.016 156.984 590.18 171.947 608.842C199.726 643.487 224.616 681.566 248.688 718.39C258.222 732.975 268.079 748.056 277.942 762.649C297.405 791.452 318.521 821.156 343.789 840.055C373.564 862.327 404.153 865.99 437.311 851.254C501.063 822.922 552.712 765.174 602.663 709.329C621.74 688 639.759 667.853 658.14 649.664L662.031 645.812C691.001 617.12 727.055 581.414 766.422 555.095C787.999 540.67 808.203 530.507 828.182 524.03C850.85 516.681 873.122 514.354 894.375 517.113C972.583 527.265 1023.59 605.551 1064.58 668.453C1068.47 674.428 1072.15 680.073 1075.82 685.611L1075.6 685.759C1071.93 680.219 1068.25 674.573 1064.36 668.599C1023.4 605.742 972.426 527.513 894.343 517.378C803.94 505.644 722.03 586.768 662.222 646.001L658.332 649.853C639.956 668.034 621.94 688.178 602.868 709.505C578.25 737.03 552.793 765.495 525.578 790.55C494.818 818.869 465.984 838.808 437.427 851.497C424.686 857.164 412.326 860.118 400.247 860.353Z" fill="#426E97"/>
</g>
</svg>
