<svg width="58" height="59" viewBox="0 0 58 59" fill="none" xmlns="http://www.w3.org/2000/svg">
<path d="M11.5786 11.987C11.5786 13.3072 11.0542 14.5733 10.1206 15.5069C9.18713 16.4404 7.92101 16.9648 6.60082 16.9648C5.28063 16.9648 4.01452 16.4404 3.081 15.5069C2.14749 14.5733 1.62305 13.3072 1.62305 11.987C1.62305 9.24927 6.60082 2.03149 6.60082 2.03149C6.60082 2.03149 11.5786 9.23682 11.5786 11.987Z" stroke="#214F7A" stroke-width="1.5"/>
<path d="M51.3992 58.0315H40.1992L43.2257 45.9255C43.4277 45.118 43.8938 44.4011 44.5499 43.8888C45.2061 43.3765 46.0146 43.0982 46.847 43.0981H52.2181C52.7854 43.0982 53.3453 43.2276 53.8552 43.4764C54.365 43.7253 54.8115 44.0871 55.1606 44.5343C55.5097 44.9815 55.7522 45.5025 55.8699 46.0575C55.9875 46.6125 55.9771 47.187 55.8394 47.7374L55.1325 50.5648" stroke="#214F7A" stroke-width="1.5"/>
<path d="M15.9356 35.6314L10.709 22.5647" stroke="#214F7A" stroke-width="1.5"/>
<path d="M2.86719 22.5647L11.8073 44.9149" stroke="#214F7A" stroke-width="1.5"/>
<path d="M22.3021 42.0056L15.9306 35.6316L9.67103 49.7137C9.32797 50.4861 9.25712 51.352 9.47006 52.1699C9.683 52.9877 10.1671 53.7091 10.8433 54.2161L15.9306 58.0316" stroke="#214F7A" stroke-width="1.5"/>
<path d="M38.361 41.3086L27.9102 58.0314" stroke="#214F7A" stroke-width="1.5"/>
<path d="M38.4097 21.5021C39.1576 21.7477 39.8087 22.2234 40.2701 22.8613C40.7314 23.4991 40.9792 24.2665 40.9782 25.0537V35.6315C40.9782 37.6117 40.1916 39.5109 38.7913 40.9112C37.391 42.3115 35.4919 43.0981 33.5116 43.0981C31.5313 43.0981 29.6321 42.3115 28.2319 40.9112C26.8316 39.5109 26.0449 37.6117 26.0449 35.6315V25.0537C26.045 24.2673 26.2933 23.5011 26.7546 22.8642C27.2158 22.2273 27.8664 21.7524 28.6135 21.507C31.7902 20.4326 35.2319 20.4309 38.4097 21.5021V21.5021Z" stroke="#214F7A" stroke-width="1.5"/>
<path d="M26.0449 30.0315C28.3429 28.8059 30.9072 28.1648 33.5116 28.1648C36.116 28.1648 38.6803 28.8059 40.9782 30.0315" stroke="#214F7A" stroke-width="1.5"/>
<path d="M33.5098 13.2314V20.6981" stroke="#214F7A" stroke-width="1.5"/>
<path d="M24.1777 16.5068L28.2794 21.629" stroke="#214F7A" stroke-width="1.5"/>
<path d="M19.668 22.5647L26.0445 25.1432" stroke="#214F7A" stroke-width="1.5"/>
<path d="M42.8414 16.5068L38.7422 21.629" stroke="#214F7A" stroke-width="1.5"/>
<path d="M47.352 22.5647L41.0078 25.1307" stroke="#214F7A" stroke-width="1.5"/>
<path d="M50.7796 50.5647H57.0018V58.0314H50.7796C50.4496 58.0314 50.133 57.9003 49.8996 57.6669C49.6663 57.4335 49.5352 57.117 49.5352 56.7869V51.8091C49.5352 51.4791 49.6663 51.1626 49.8996 50.9292C50.133 50.6958 50.4496 50.5647 50.7796 50.5647Z" stroke="#214F7A" stroke-width="1.5"/>
<path d="M1 22.5647H14.0667" stroke="#214F7A" stroke-width="1.5"/>
</svg>
