<svg width="32" height="32" viewBox="0 0 32 32" fill="none" xmlns="http://www.w3.org/2000/svg">
<path d="M16.5664 28.5256V11.8379H15.4437V28.5256C15.8078 28.5357 16.1921 28.5357 16.5664 28.5256Z" fill="#214F7A"/>
<path d="M10.316 27.2598C10.7104 27.4418 11.1251 27.6138 11.5499 27.7655V11.8262H10.4272V25.9754L10.1542 25.8236C6.7357 23.9324 4.43987 20.5038 3.98475 16.6504C3.57009 16.6201 3.15542 16.5493 2.76099 16.4381C3.17565 21.1106 6.06819 25.2472 10.316 27.2598Z" fill="#214F7A"/>
<path d="M19.0645 28.1818V11.8379H17.9419V28.3941C18.3161 28.3436 18.7004 28.2627 19.0645 28.1818Z" fill="#214F7A"/>
<path d="M14.0582 28.3941V11.8379H12.9355V28.1818C13.2996 28.2627 13.684 28.3436 14.0582 28.3941Z" fill="#214F7A"/>
<path d="M28.5714 5.97034C28.0051 5.82875 27.4185 5.83886 26.8116 5.84897C26.6903 5.84897 26.5689 5.84897 26.4475 5.84897H5.56258C5.47156 5.84897 5.38053 5.84897 5.28951 5.84897H5.19848C4.59166 5.84897 4.00506 5.83886 3.42857 5.98045C1.40582 6.4558 0 8.24594 0 10.3193C0 12.787 2.01264 14.7997 4.4804 14.7997C6.94817 14.7997 8.96081 12.787 8.96081 10.3193C8.96081 10.2586 8.96081 10.208 8.96081 10.1473L8.94058 9.96528H23.0493L23.0392 10.1574C23.0392 10.2181 23.0392 10.2788 23.0392 10.3294C23.0392 12.7971 25.0518 14.8098 27.5196 14.8098C29.9874 14.8098 32 12.7971 32 10.3294C32 8.24594 30.5942 6.4558 28.5714 5.97034ZM27.5196 13.6872C25.6688 13.6872 24.1618 12.1802 24.1618 10.3294C24.1618 10.2687 24.1618 10.1979 24.1719 10.1372V10.0361H24.182C24.2124 9.6113 24.3338 9.20675 24.5158 8.83254H7.4842C7.67636 9.21686 7.78761 9.62141 7.82807 10.0361H7.83818V10.1372C7.83818 10.1979 7.84829 10.2586 7.84829 10.3294C7.84829 12.1802 6.34134 13.6872 4.49052 13.6872C2.6397 13.6872 1.13274 12.1802 1.13274 10.3294C1.13274 9.20675 1.689 8.16503 2.61947 7.53797L2.62958 7.51775C3.45891 6.9716 4.13654 6.9716 4.98609 6.9716H27.0139C27.8736 6.9716 28.5512 6.96149 29.3906 7.52786C30.3211 8.15491 30.8774 9.19663 30.8774 10.3193C30.8774 12.1802 29.3704 13.6872 27.5196 13.6872Z" fill="#214F7A"/>
<path d="M32 2.85547H0V3.9781H32V2.85547Z" fill="#214F7A"/>
<path d="M29.2389 16.4498C28.8445 16.561 28.4298 16.6318 28.0152 16.6622C27.5702 20.5256 25.2642 23.9542 21.8458 25.8354L21.5727 25.9871V11.8379H20.4501V27.7772C20.8647 27.6255 21.2794 27.4637 21.684 27.2715C25.9317 25.2488 28.8142 21.1122 29.2389 16.4498Z" fill="#214F7A"/>
</svg>
