<svg width="256" height="256" viewBox="0 0 256 256" fill="none" xmlns="http://www.w3.org/2000/svg">
<path d="M132.531 230.361V96.8594H123.55V230.361C126.463 230.442 129.537 230.442 132.531 230.361Z" fill="#214F7A"/>
<path d="M82.5278 220.237C85.6833 221.693 89.0007 223.068 92.3989 224.282V96.7676H83.4179V209.961L81.2333 208.747C53.8856 193.617 35.519 166.189 31.878 135.362C28.5607 135.119 25.2434 134.553 22.0879 133.663C25.4052 171.043 48.5455 204.135 82.5278 220.237Z" fill="#214F7A"/>
<path d="M152.516 227.61V96.8594H143.535V229.309C146.529 228.905 149.603 228.258 152.516 227.61Z" fill="#214F7A"/>
<path d="M112.465 229.309V96.8594H103.484V227.61C106.397 228.258 109.472 228.905 112.465 229.309Z" fill="#214F7A"/>
<path d="M228.571 49.9209C224.04 48.7882 219.348 48.8691 214.493 48.95C213.522 48.95 212.551 48.95 211.58 48.95H44.5006C43.7724 48.95 43.0442 48.95 42.3161 48.95H41.5879C36.7332 48.95 32.0405 48.8691 27.4286 50.0018C11.2465 53.8046 0 68.1257 0 84.7123C0 104.454 16.1011 120.556 35.8432 120.556C55.5853 120.556 71.6865 104.454 71.6865 84.7123C71.6865 84.2269 71.6865 83.8223 71.6865 83.3368L71.5247 81.8805H184.394L184.314 83.4178C184.314 83.9032 184.314 84.3887 184.314 84.7932C184.314 104.535 200.415 120.636 220.157 120.636C239.899 120.636 256 104.535 256 84.7932C256 68.1257 244.753 53.8046 228.571 49.9209ZM220.157 111.655C205.35 111.655 193.295 99.5998 193.295 84.7932C193.295 84.3078 193.295 83.7414 193.375 83.2559V82.4468H193.456C193.699 79.0486 194.67 75.8122 196.126 72.8185H59.8736C61.4109 75.8931 62.3009 79.1295 62.6245 82.4468H62.7054V83.2559C62.7054 83.7414 62.7864 84.2269 62.7864 84.7932C62.7864 99.5998 50.7307 111.655 35.9241 111.655C21.1176 111.655 9.06195 99.5998 9.06195 84.7932C9.06195 75.8122 13.512 67.4784 20.9558 62.462L21.0367 62.3002C27.6713 57.931 33.0923 57.931 39.8887 57.931H216.111C222.989 57.931 228.41 57.8501 235.125 62.3811C242.569 67.3975 247.019 75.7313 247.019 84.7123C247.019 99.5998 234.963 111.655 220.157 111.655Z" fill="#214F7A"/>
<path d="M256 25H0V33.981H256V25Z" fill="#214F7A"/>
<path d="M233.912 133.754C230.756 134.644 227.439 135.211 224.121 135.454C220.561 166.361 202.114 193.79 174.766 208.839L172.582 210.053V96.8594H163.601V224.374C166.918 223.16 170.235 221.866 173.472 220.328C207.454 204.146 230.513 171.054 233.912 133.754Z" fill="#214F7A"/>
</svg>
