<svg width="170" height="43" viewBox="0 0 170 43" fill="none" xmlns="http://www.w3.org/2000/svg">
<path d="M64.5971 30.88V10.7595H66.9659V28.8251H77.1261V30.88H64.5971Z" fill="#13273A"/>
<path d="M84.4871 31.1369C83.2124 31.1369 82.0993 30.842 81.148 30.2521C80.1967 29.6433 79.4546 28.7871 78.9219 27.6836C78.4082 26.58 78.1513 25.2577 78.1513 23.7165C78.1513 22.1563 78.4082 20.8245 78.9219 19.721C79.4546 18.6174 80.1967 17.7707 81.148 17.1809C82.0993 16.5911 83.2124 16.2962 84.4871 16.2962C85.7809 16.2962 86.894 16.6291 87.8263 17.2951C88.7776 17.942 89.4055 18.8267 89.7099 19.9493H89.3674L89.6814 16.553H91.9075C91.8504 17.1048 91.7933 17.6661 91.7362 18.2369C91.6982 18.7887 91.6792 19.3309 91.6792 19.8637V30.88H89.3674V27.5123H89.6814C89.377 28.6349 88.7491 29.5196 87.7978 30.1665C86.8464 30.8134 85.7429 31.1369 84.4871 31.1369ZM84.9438 29.2532C86.3137 29.2532 87.3982 28.7871 88.1973 27.8548C88.9964 26.9035 89.396 25.524 89.396 23.7165C89.396 21.89 88.9964 20.5106 88.1973 19.5783C87.3982 18.6269 86.3137 18.1513 84.9438 18.1513C83.5929 18.1513 82.5084 18.6269 81.6902 19.5783C80.8911 20.5106 80.4916 21.89 80.4916 23.7165C80.4916 25.524 80.8911 26.9035 81.6902 27.8548C82.5084 28.7871 83.5929 29.2532 84.9438 29.2532Z" fill="#13273A"/>
<path d="M98.9775 30.88L93.6691 16.553H96.1236L100.547 29.1676H99.8052L104.372 16.553H106.369L110.85 29.1676H110.137L114.589 16.553H116.929L111.592 30.88H109.366L104.743 18.0656H105.884L101.232 30.88H98.9775Z" fill="#13273A"/>
<path d="M118.866 37.3585L118.324 35.4464C119.218 35.2371 119.96 34.9897 120.55 34.7043C121.158 34.438 121.663 34.0765 122.062 33.6198C122.462 33.1632 122.804 32.5924 123.09 31.9074L123.832 30.2236L123.775 31.1939L117.524 16.553H120.036L125.202 29.1391H124.46L129.568 16.553H131.994L125.373 32.0787C124.992 32.992 124.574 33.753 124.117 34.3619C123.66 34.9897 123.166 35.4939 122.633 35.8745C122.119 36.274 121.548 36.588 120.921 36.8163C120.293 37.0446 119.608 37.2254 118.866 37.3585Z" fill="#13273A"/>
<path d="M139.911 31.1369C137.666 31.1369 135.897 30.49 134.603 29.1962C133.309 27.8833 132.662 26.0663 132.662 23.7451C132.662 22.242 132.948 20.9386 133.518 19.8351C134.089 18.7125 134.888 17.8468 135.916 17.238C136.943 16.6101 138.123 16.2962 139.455 16.2962C140.768 16.2962 141.871 16.5721 142.765 17.1238C143.66 17.6756 144.345 18.4652 144.82 19.4926C145.296 20.501 145.534 21.6997 145.534 23.0886V23.9448H134.432V22.4893H144.021L143.536 22.8603C143.536 21.3382 143.193 20.149 142.509 19.2929C141.824 18.4367 140.806 18.0086 139.455 18.0086C138.028 18.0086 136.915 18.5128 136.116 19.5212C135.317 20.5106 134.917 21.8519 134.917 23.5453V23.8021C134.917 25.5906 135.355 26.951 136.23 27.8833C137.124 28.7966 138.37 29.2532 139.968 29.2532C140.825 29.2532 141.624 29.1296 142.366 28.8822C143.127 28.6159 143.85 28.1878 144.535 27.5979L145.334 29.2247C144.706 29.8335 143.907 30.3092 142.937 30.6517C141.985 30.9751 140.977 31.1369 139.911 31.1369Z" fill="#13273A"/>
<path d="M148.158 30.88V20.0064C148.158 19.4356 148.139 18.8552 148.101 18.2654C148.082 17.6756 148.044 17.1048 147.987 16.553H150.213L150.498 20.0349L150.099 20.0634C150.289 19.2072 150.622 18.5033 151.097 17.9515C151.573 17.3997 152.134 16.9906 152.781 16.7243C153.428 16.4389 154.104 16.2962 154.808 16.2962C155.093 16.2962 155.34 16.3057 155.55 16.3247C155.778 16.3437 155.987 16.3913 156.178 16.4674L156.149 18.5223C155.864 18.4271 155.597 18.3701 155.35 18.351C155.122 18.313 154.855 18.294 154.551 18.294C153.714 18.294 152.981 18.4937 152.353 18.8933C151.744 19.2929 151.278 19.8066 150.955 20.4344C150.65 21.0623 150.498 21.7283 150.498 22.4322V30.88H148.158Z" fill="#13273A"/>
<path d="M162.353 31.1369C161.212 31.1369 160.146 30.9847 159.157 30.6802C158.168 30.3568 157.35 29.9097 156.703 29.3389L157.502 27.7121C158.206 28.2639 158.967 28.6729 159.785 28.9393C160.622 29.2057 161.488 29.3389 162.382 29.3389C163.524 29.3389 164.38 29.1391 164.951 28.7395C165.54 28.3209 165.835 27.7501 165.835 27.0271C165.835 26.4754 165.645 26.0378 165.265 25.7143C164.903 25.3718 164.304 25.1055 163.467 24.9152L160.812 24.3729C159.595 24.1066 158.681 23.6594 158.073 23.0316C157.464 22.3847 157.159 21.5665 157.159 20.5771C157.159 19.74 157.378 19.0075 157.816 18.3796C158.253 17.7327 158.891 17.2285 159.728 16.867C160.565 16.4864 161.545 16.2962 162.667 16.2962C163.714 16.2962 164.675 16.4579 165.55 16.7814C166.444 17.0858 167.186 17.5329 167.776 18.1227L166.948 19.721C166.378 19.1692 165.721 18.7601 164.979 18.4937C164.256 18.2083 163.505 18.0656 162.725 18.0656C161.602 18.0656 160.755 18.294 160.184 18.7506C159.633 19.1882 159.357 19.7685 159.357 20.4915C159.357 21.0433 159.528 21.4999 159.871 21.8614C160.232 22.2039 160.784 22.4608 161.526 22.632L164.18 23.1743C165.474 23.4597 166.435 23.9068 167.063 24.5156C167.709 25.1055 168.033 25.9046 168.033 26.913C168.033 27.7692 167.795 28.5207 167.319 29.1676C166.844 29.7955 166.178 30.2807 165.322 30.6231C164.484 30.9656 163.495 31.1369 162.353 31.1369Z" fill="#13273A"/>
<path fill-rule="evenodd" clip-rule="evenodd" d="M8.82597 7.93615C8.71791 7.93615 8.61234 7.93581 8.50899 7.93549H8.50893C8.61231 7.93581 8.71789 7.93615 8.82597 7.93615ZM19.4457 42.1235C19.387 42.1035 19.3285 42.0833 19.27 42.0629C19.2656 42.0613 19.2612 42.0598 19.2568 42.0583C19.3196 42.0803 19.3826 42.102 19.4457 42.1235ZM4.54788 23.0744C4.54788 23.0744 4.54788 23.0744 4.54788 23.0744C4.54751 23.07 4.54714 23.0656 4.54678 23.0613C4.54715 23.0656 4.54751 23.07 4.54788 23.0744ZM44.6256 7.93546C44.5224 7.93579 44.4169 7.93614 44.3089 7.93615C44.4168 7.93614 44.5223 7.93579 44.6256 7.93546H44.6256ZM33.8554 42.0643C33.8554 42.0643 33.8554 42.0644 33.8554 42.0644C33.7556 42.0992 33.6554 42.1333 33.555 42.1668C33.6555 42.1333 33.7556 42.0992 33.8554 42.0643ZM48.6047 22.7523C48.5972 22.8603 48.589 22.968 48.5799 23.0756C48.5464 23.476 48.5021 23.8733 48.4474 24.2674C48.5168 23.7675 48.5694 23.2623 48.6047 22.7523ZM8.50082 7.63496C7.07734 7.62985 5.98727 7.62594 4.60658 8.55123C3.13296 9.54011 2.1608 11.2217 2.1608 13.1313C2.1608 16.1736 4.62748 18.6403 7.6698 18.6403C10.7121 18.6403 13.1788 16.1736 13.1788 13.1313C13.1788 13.0277 13.1763 12.9225 13.1697 12.8175C13.1269 12.0561 12.9293 11.3354 12.6079 10.6874H40.5224C40.2009 11.3354 40.0033 12.0561 39.9606 12.8176C39.954 12.9226 39.9515 13.0277 39.9515 13.1313C39.9515 16.1736 42.4182 18.6403 45.4605 18.6403C48.5028 18.6403 50.9695 16.1736 50.9695 13.1313C50.9695 11.2218 49.9975 9.53897 48.5237 8.55123C47.1432 7.62566 46.0547 7.62968 44.6335 7.63492C44.5247 7.63533 44.414 7.63573 44.3011 7.63573H8.82917C8.71764 7.63573 8.60828 7.63534 8.50082 7.63496ZM17.4237 38.8154V15.611H19.2724V39.1465H19.27V41.7443C18.5805 41.4994 17.9061 41.2208 17.2505 40.9107C10.4331 37.6838 5.55903 31.0246 4.85735 23.1659C5.5035 23.3462 6.17458 23.4659 6.86431 23.5189C7.62001 30.0108 11.5086 35.5436 16.9779 38.5688L17.4237 38.8154ZM36.15 38.57C41.6192 35.5449 45.5077 30.011 46.2635 23.5204C46.9534 23.468 47.6245 23.3476 48.2705 23.1672C47.5688 31.0258 42.6948 37.685 35.8775 40.9119C35.2204 41.2222 34.5463 41.5009 33.8554 41.7459V15.611H35.7041V38.8166L36.15 38.57ZM0.326721 13.1325C0.326721 9.67169 2.72085 6.76931 5.94354 5.99267C6.87973 5.76744 7.83718 5.77637 8.83424 5.78567C9.03472 5.78754 9.23681 5.78943 9.44065 5.78943H26.2641V5.79065H43.6884C43.8922 5.79065 44.0942 5.78877 44.2947 5.7869L44.2948 5.7869C45.2919 5.77759 46.2493 5.76866 47.1855 5.99389C50.4081 6.7693 52.8023 9.67163 52.8023 13.1325C52.8023 17.1882 49.515 20.4756 45.4592 20.4756C41.4035 20.4756 38.1162 17.1882 38.1162 13.1325C38.1162 13.0383 38.1185 12.9432 38.1221 12.8478L38.1338 12.5361H14.9953L15.007 12.8478C15.0105 12.9432 15.0129 13.0383 15.0129 13.1325C15.0129 17.1882 11.7255 20.4756 7.6698 20.4756C3.61406 20.4756 0.326721 17.1882 0.326721 13.1325ZM0.326721 0.88414H52.8023V2.73167H0.326721V0.88414ZM21.5328 42.4123V15.611H23.3804V42.7651C22.7556 42.674 22.1394 42.5556 21.5328 42.4123ZM25.6408 42.975V15.611H27.4883V42.975C27.1822 42.9876 26.8741 42.9939 26.5645 42.9939C26.2549 42.9939 25.9468 42.9876 25.6408 42.975ZM29.7487 42.7647V15.611H31.5974V42.4122C30.9902 42.5554 30.3738 42.6731 29.7487 42.7647Z" fill="#214F7A"/>
</svg>
